<svg width="319" height="64" viewBox="0 0 319 64" fill="none" xmlns="http://www.w3.org/2000/svg">
<path d="M201.686 28.5165C199.527 24.9975 196.643 22.2464 193.036 20.2633C189.426 18.2831 185.521 17.2886 181.323 17.2886C177.124 17.2886 173.216 18.2802 169.609 20.2633C165.999 22.2464 163.115 24.9975 160.959 28.5165C158.799 32.0355 157.719 36.0164 157.719 40.4534C157.719 40.5917 157.728 40.7241 157.731 40.8595H157.71V63.6712H167.076V40.8595H167.061C167.055 40.7241 167.038 40.5917 167.038 40.4534C167.038 37.7318 167.658 35.2603 168.9 33.0417C170.142 30.8232 171.857 29.0784 174.046 27.8074C176.235 26.5363 178.663 25.9008 181.323 25.9008C183.982 25.9008 186.322 26.5363 188.511 27.8074C190.7 29.0814 192.415 30.8232 193.66 33.0417C194.901 35.2603 195.522 37.7318 195.522 40.4534C195.522 40.5976 195.522 40.7359 195.519 40.8771V63.6712H204.92V40.8771C204.92 40.7359 204.932 40.5976 204.932 40.4534C204.932 36.0164 203.852 32.0384 201.692 28.5165H201.686Z" fill="#DCD1BE"/>
<path d="M258.908 53.126C256.719 51.8549 255.004 50.1101 253.762 47.8916C252.527 45.6849 251.909 43.231 251.9 40.527H251.888V38.8881H251.891V23.2732H266.038V13.9079H251.891V0.720398H242.526V13.9079H224.207V0.720398H214.841V13.9079H204.938V23.2732H214.841V38.8881H214.853C214.821 39.4118 214.806 39.9444 214.806 40.4799C214.806 44.9169 215.886 48.8979 218.046 52.4169C220.205 55.9359 223.089 58.6869 226.699 60.6701C230.294 62.6473 234.184 63.633 238.365 63.6418V55.0326C235.782 55.0238 233.399 54.3912 231.224 53.1289C229.035 51.8578 227.32 50.113 226.078 47.8945C224.842 45.6878 224.224 43.2339 224.216 40.5299H224.204V38.8911H224.207V23.2762H242.526V38.8911H242.537C242.505 39.4148 242.49 39.9473 242.49 40.4828C242.49 44.9199 243.57 48.9008 245.73 52.4198C247.889 55.9388 250.773 58.6899 254.383 60.673C257.979 62.6502 261.868 63.6359 266.049 63.6448V55.0355C263.466 55.0267 261.083 54.3941 258.908 53.1319V53.126Z" fill="#DCD1BE"/>
<path d="M151.741 45.7908C152.12 44.0901 152.323 42.313 152.323 40.4505C152.323 36.0135 151.243 32.0355 149.084 28.5135C146.924 24.9945 144.038 22.2434 140.43 20.2603C136.82 18.2801 132.916 17.2856 128.717 17.2856C124.518 17.2856 120.611 18.2772 117.004 20.2603C113.393 22.2434 110.51 24.9945 108.35 28.5135C106.191 32.0355 105.111 36.0135 105.111 40.4505C105.111 44.8875 106.191 48.8685 108.35 52.3875C110.51 55.9065 113.393 58.6575 117.004 60.6407C120.611 62.6238 124.515 63.6153 128.717 63.6153C132.919 63.6153 136.823 62.6267 140.43 60.6407C144.038 58.6605 146.921 55.9094 149.084 52.3875C149.095 52.3669 149.107 52.3433 149.119 52.3227L139.527 50.0218C138.509 51.237 137.314 52.2757 135.902 53.0966C133.713 54.3706 131.318 55.0032 128.714 55.0032C126.11 55.0032 123.624 54.3676 121.438 53.0966C119.249 51.8255 117.533 50.0807 116.292 47.8622C115.918 47.1913 115.606 46.4969 115.344 45.782H141.987C141.987 45.782 141.987 45.7878 141.984 45.7937H151.741V45.7908ZM121.441 27.8044C123.63 26.5333 126.054 25.8978 128.717 25.8978C131.38 25.8978 133.716 26.5333 135.905 27.8044C138.094 29.0784 139.809 30.8203 141.051 33.0388C141.857 34.4776 142.396 36.0252 142.681 37.6759H114.664C114.947 36.0252 115.488 34.4776 116.294 33.0388C117.536 30.8203 119.251 29.0755 121.441 27.8044Z" fill="#DCD1BE"/>
<path d="M11.3626 33.183C12.6043 30.9645 14.3196 29.2197 16.5087 27.9486C18.6978 26.6775 21.1223 26.042 23.7851 26.042C26.4479 26.042 28.7841 26.6775 30.9731 27.9486C33.1622 29.2226 34.8776 30.9645 36.1193 33.183C37.1079 34.9454 37.6846 36.8756 37.8876 38.9587H47.3383C47.1029 35.1749 46.0407 31.7412 44.1488 28.6577C41.9892 25.1387 39.1057 22.3876 35.4955 20.4045C31.8853 18.4243 27.9808 17.4298 23.7821 17.4298C19.5834 17.4298 15.676 18.4214 12.0688 20.4045C8.45855 22.3876 5.57508 25.1387 3.41542 28.6577C1.52351 31.7412 0.461337 35.1749 0.225952 38.9587H9.5884C9.79142 36.8785 10.3681 34.9484 11.3567 33.183H11.3626Z" fill="#DCD1BE"/>
<path d="M37.9052 41.9776H37.8935V42.0776C37.7052 44.2167 37.1314 46.1998 36.1222 48.0064C34.8805 50.2249 33.1622 51.9697 30.9761 53.2408C28.787 54.5148 26.392 55.1474 23.788 55.1474C21.1841 55.1474 18.6978 54.5118 16.5117 53.2408C14.3226 51.9697 12.6072 50.2249 11.3656 48.0064C10.3387 46.1733 9.762 44.1549 9.58251 41.9776H0.225952C0.428972 45.8614 1.49115 49.3834 3.42131 52.5317C5.58097 56.0507 8.46443 58.8017 12.0747 60.7849C15.6819 62.768 19.5864 63.7595 23.788 63.7595C27.9896 63.7595 31.8941 62.7709 35.5014 60.7849C36.3399 60.3259 37.1343 59.8227 37.8935 59.2784V63.6124H47.3501V41.9776H37.9052Z" fill="#DCD1BE"/>
<path d="M99.8204 40.5535C99.8204 40.1033 99.8057 39.659 99.7851 39.2177V0.749832H90.4197V21.9374C89.6312 21.3666 88.8014 20.8429 87.9305 20.3633C84.3203 18.3831 80.4158 17.3886 76.2172 17.3886C72.0185 17.3886 68.1111 18.3802 64.5038 20.3633C60.8936 22.3464 58.0101 25.0975 55.8504 28.6165C53.6908 32.1355 52.611 36.1165 52.611 40.5535C52.611 44.9905 53.6908 48.9714 55.8504 52.4904C58.0101 56.0124 60.8936 58.7605 64.5038 60.7436C68.1111 62.7268 72.0155 63.7183 76.2172 63.7183C80.4188 63.7183 84.3232 62.7297 87.9305 60.7436C88.8044 60.264 89.6341 59.7374 90.4197 59.1695V63.6801H99.7851V41.8893C99.8086 41.4479 99.8204 41.0036 99.8204 40.5535ZM88.5484 47.9652C87.3067 50.1837 85.5884 51.9285 83.4023 53.1995C81.2132 54.4736 78.8182 55.1062 76.2142 55.1062C73.6103 55.1062 71.124 54.4706 68.9379 53.1995C66.7488 51.9285 65.0334 50.1837 63.7918 47.9652C62.5501 45.7467 61.9293 43.2751 61.9293 40.5535C61.9293 37.8318 62.5501 35.3603 63.7918 33.1418C65.0334 30.9233 66.7488 29.1785 68.9379 27.9074C71.127 26.6363 73.5514 26.0008 76.2142 26.0008C78.877 26.0008 81.2132 26.6363 83.4023 27.9074C85.5914 29.1814 87.3067 30.9233 88.5484 33.1418C89.7901 35.3603 90.4109 37.8318 90.4109 40.5535C90.4109 43.2751 89.7901 45.7467 88.5484 47.9652Z" fill="#DCD1BE"/>
<path d="M282.706 33.1653C283.948 30.9468 285.663 29.202 287.852 27.9309C290.041 26.6599 292.466 26.0243 295.128 26.0243C297.791 26.0243 300.127 26.6599 302.316 27.9309C304.505 29.205 306.221 30.9468 307.463 33.1653C308.451 34.9278 309.028 36.8579 309.231 38.9411H318.682C318.446 35.1573 317.384 31.7236 315.492 28.64C313.332 25.121 310.449 22.37 306.839 20.3868C303.229 18.4067 299.324 17.4122 295.125 17.4122C290.927 17.4122 287.019 18.4037 283.412 20.3868C279.802 22.37 276.918 25.121 274.759 28.64C272.867 31.7236 271.805 35.1573 271.569 38.9411H280.932C281.135 36.8609 281.711 34.9307 282.7 33.1653H282.706Z" fill="#DCD1BE"/>
<path d="M309.248 42.0011H309.237V42.1011C309.048 44.2402 308.475 46.2233 307.465 48.0299C306.224 50.2484 304.505 51.9932 302.319 53.2643C300.13 54.5383 297.735 55.1709 295.131 55.1709C292.527 55.1709 290.041 54.5353 287.855 53.2643C285.666 51.9932 283.95 50.2484 282.709 48.0299C281.682 46.1968 281.102 44.1784 280.926 42.0011H271.569C271.772 45.8849 272.834 49.4069 274.765 52.5552C276.924 56.0742 279.808 58.8252 283.418 60.8084C287.025 62.7915 290.93 63.783 295.131 63.783C299.333 63.783 303.237 62.7944 306.845 60.8084C307.683 60.3494 308.478 59.8462 309.24 59.3019V63.6359H318.696V42.0011H309.251H309.248Z" fill="#DCD1BE"/>
</svg>
