<svg width="19" height="18" viewBox="0 0 19 18" fill="none" xmlns="http://www.w3.org/2000/svg">
<g id="Group 9601">
<circle id="Ellipse 6" cx="9.5" cy="9" r="3" fill="#202054"/>
<path id="Vector" d="M10 3.60854C10.8996 3.67597 11.7324 3.89736 12.491 4.28957C13.4077 4.76382 14.1286 5.42012 14.6538 6.25511C15.1802 7.09122 15.4416 8.00599 15.4416 9.00056C15.4416 9.99512 15.179 10.9448 14.6538 11.7797C14.1286 12.6158 13.4077 13.271 12.491 13.7453C11.7336 14.1375 10.8996 14.3577 10 14.4263L10 18C11.6048 17.9225 13.06 17.5168 14.3608 16.7795C15.8148 15.9547 16.9515 14.8533 17.7709 13.4744C18.5903 12.0966 19 10.6053 19 9.00056C19 7.39576 18.5915 5.90448 17.7709 4.52669C16.9527 3.14891 15.816 2.04757 14.3608 1.22158C13.06 0.483236 11.6048 0.0786666 10 0L10 3.60741L10 3.60854Z" fill="#9FB3DC"/>
<path id="Vector_2" d="M9 3.60854C8.10037 3.67597 7.2676 3.89736 6.50898 4.28957C5.59233 4.76382 4.8714 5.42012 4.34621 6.25511C3.8198 7.09122 3.55842 8.00599 3.55842 9.00056C3.55842 9.99512 3.82102 10.9448 4.34621 11.7797C4.8714 12.6158 5.59233 13.271 6.50898 13.7453C7.26638 14.1375 8.10036 14.3577 9 14.4263L9 18C7.39524 17.9225 5.94002 17.5168 4.6392 16.7795C3.1852 15.9547 2.04849 14.8533 1.22909 13.4744C0.409696 12.0966 -6.30444e-07 10.6053 -5.60296e-07 9.00056C-4.90148e-07 7.39576 0.408481 5.90448 1.22909 4.52669C2.04728 3.14891 3.18398 2.04757 4.6392 1.22158C5.94003 0.483236 7.39525 0.0786666 9 0L9 3.60741L9 3.60854Z" fill="#202054"/>
</g>
</svg>
