<svg width="23" height="23" viewBox="0 0 23 23" fill="none" xmlns="http://www.w3.org/2000/svg">
<g id="Phone">
<path id="Union" fill-rule="evenodd" clip-rule="evenodd" d="M5.4095 2.95259L5.37668 2.95258C5.16758 2.95252 5.00089 2.95247 4.81987 2.97649C4.1625 3.06374 3.5822 3.41712 3.16694 3.87487C2.75169 4.33261 2.45632 4.94448 2.43332 5.60722C2.42701 5.78912 2.43939 5.91582 2.45482 6.07375L2.45627 6.08855C2.693 8.51489 3.29932 10.7002 4.25627 12.6048C5.67821 15.4347 7.86094 17.6175 10.6909 19.0394C12.5955 19.9964 14.7808 20.6027 17.2071 20.8394L17.2219 20.8409C17.3799 20.8563 17.5066 20.8687 17.6885 20.8624C18.3512 20.8394 18.9631 20.544 19.4208 20.1287C19.8786 19.7135 20.2319 19.1332 20.3192 18.4758C20.3432 18.2948 20.3432 18.1281 20.3431 17.9191V17.919L20.3431 17.8862L20.3431 17.85V17.85C20.3432 17.6506 20.3432 17.4957 20.328 17.3513C20.218 16.3066 19.5225 15.4158 18.5357 15.0557C18.3992 15.0059 18.2489 14.9684 18.0554 14.9201L18.0204 14.9113L16.7064 14.5828L16.6702 14.5738C16.11 14.4337 15.6344 14.3148 15.2316 14.2576C14.8027 14.1968 14.3929 14.195 13.9724 14.3319C13.5519 14.4688 13.2217 14.7115 12.9109 15.0132C12.6189 15.2966 12.3045 15.6726 11.9341 16.1157L11.9341 16.1157L11.9102 16.1443L10.8417 17.4224C8.72559 16.243 7.05271 14.5701 5.87332 12.454L7.15135 11.3855L7.17996 11.3616C7.62305 10.9912 7.99911 10.6768 8.28251 10.3848C8.58423 10.074 8.82688 9.74379 8.96379 9.32327C9.1007 8.90276 9.09893 8.49301 9.03806 8.06411C8.98088 7.66124 8.86199 7.18573 8.7219 6.62546L8.72189 6.62544L8.71285 6.58926L8.38435 5.27528L8.37559 5.24022L8.37559 5.24021C8.32729 5.04678 8.28976 4.89649 8.23996 4.76C7.8799 3.77317 6.98911 3.07766 5.94442 2.9677C5.79993 2.95249 5.64501 2.95253 5.44564 2.95258L5.4095 2.95259Z" fill="#293881"/>
</g>
</svg>
