<svg width="18" height="21" viewBox="0 0 18 21" fill="none" xmlns="http://www.w3.org/2000/svg">
<g id="Location">
<path id="Location_2" fill-rule="evenodd" clip-rule="evenodd" d="M0.9375 9.27039C0.9375 4.67053 4.78138 0.952637 9.43095 0.952637C14.0936 0.952637 17.9375 4.67053 17.9375 9.27039C17.9375 11.5883 17.0945 13.7403 15.707 15.5642C14.1763 17.5762 12.2897 19.3291 10.166 20.7051C9.68001 21.0231 9.24137 21.0471 8.70795 20.7051C6.57224 19.3291 4.68559 17.5762 3.168 15.5642C1.77948 13.7403 0.9375 11.5883 0.9375 9.27039ZM6.63086 9.52938C6.63086 11.0703 7.88829 12.2823 9.43008 12.2823C10.9729 12.2823 12.2424 11.0703 12.2424 9.52938C12.2424 8.00042 10.9729 6.72946 9.43008 6.72946C7.88829 6.72946 6.63086 8.00042 6.63086 9.52938Z" fill="#293881"/>
</g>
</svg>
