<svg width="21" height="21" viewBox="0 0 21 21" fill="none" xmlns="http://www.w3.org/2000/svg">
<g id="Time Circle">
<path id="Time Circle_2" fill-rule="evenodd" clip-rule="evenodd" d="M10.8438 20.9528C5.32375 20.9528 0.84375 16.4828 0.84375 10.9528C0.84375 5.43282 5.32375 0.95282 10.8438 0.95282C16.3738 0.95282 20.8438 5.43282 20.8438 10.9528C20.8438 16.4828 16.3738 20.9528 10.8438 20.9528ZM14.0341 14.6628C14.1541 14.7328 14.2841 14.7728 14.4241 14.7728C14.6741 14.7728 14.9241 14.6428 15.0641 14.4028C15.2741 14.0528 15.1641 13.5928 14.8041 13.3728L11.2441 11.2528V6.63281C11.2441 6.21281 10.9041 5.88281 10.4941 5.88281C10.0841 5.88281 9.74414 6.21281 9.74414 6.63281V11.6828C9.74414 11.9428 9.88414 12.1828 10.1141 12.3228L14.0341 14.6628Z" fill="#293881"/>
</g>
</svg>
