<svg width="30" height="30" viewBox="0 0 30 30" fill="none" xmlns="http://www.w3.org/2000/svg">
<g id="arrow-right-small">
<path id="Vector" d="M13.5949 12.2695L14.2784 11.586L12.9113 10.2189L12.2278 10.9025L13.5949 12.2695ZM9.04466 15.4527L8.36112 14.7691L7.67759 15.4527L8.36112 16.1362L9.04466 15.4527ZM12.2278 20.0029L12.9113 20.6864L14.2784 19.3193L13.5949 18.6358L12.2278 20.0029ZM12.2278 10.9025L8.36112 14.7691L9.7282 16.1362L13.5949 12.2695L12.2278 10.9025ZM8.36112 16.1362L12.2278 20.0029L13.5949 18.6358L9.7282 14.7691L8.36112 16.1362ZM9.04466 16.4193L21.6113 16.4193L21.6113 14.486L9.04466 14.486L9.04466 16.4193Z" fill="#293881"/>
</g>
</svg>
