<svg width="12" height="13" viewBox="0 0 12 13" fill="none" xmlns="http://www.w3.org/2000/svg">
<g id="Frame 21">
<path id="Vector" d="M9.65023 8.396L8.80979 7.55437L9.65023 6.71394C9.92817 6.43841 10.149 6.11071 10.2999 5.74963C10.4509 5.38855 10.529 5.00121 10.5299 4.60985C10.5307 4.21848 10.4543 3.83081 10.3049 3.46907C10.1555 3.10733 9.93619 2.77866 9.65945 2.50193C9.38271 2.22519 9.05404 2.00584 8.69231 1.85647C8.33057 1.7071 7.94289 1.63064 7.55153 1.6315C7.16017 1.63236 6.77283 1.71051 6.41175 1.86146C6.05067 2.01242 5.72296 2.23321 5.44744 2.51115L4.607 3.35218L3.76597 2.51174L4.6076 1.67131C5.3879 0.891005 6.44621 0.452637 7.54972 0.452637C8.65324 0.452637 9.71155 0.891005 10.4919 1.67131C11.2722 2.45161 11.7105 3.50992 11.7105 4.61343C11.7105 5.71695 11.2722 6.77526 10.4919 7.55556L9.65082 8.396H9.65023ZM7.96935 10.0769L7.12832 10.9173C6.34802 11.6976 5.2897 12.136 4.18619 12.136C3.08268 12.136 2.02436 11.6976 1.24406 10.9173C0.463759 10.137 0.0253906 9.0787 0.0253906 7.97519C0.0253906 6.87168 0.463759 5.81336 1.24406 5.03306L2.08509 4.19262L2.92553 5.03425L2.08509 5.87469C1.80715 6.15021 1.58636 6.47791 1.4354 6.83899C1.28445 7.20007 1.2063 7.58741 1.20544 7.97877C1.20459 8.37014 1.28104 8.75782 1.43041 9.11955C1.57978 9.48129 1.79913 9.80996 2.07587 10.0867C2.35261 10.3634 2.68128 10.5828 3.04301 10.7322C3.40475 10.8815 3.79243 10.958 4.18379 10.9571C4.57515 10.9563 4.96249 10.8781 5.32357 10.7272C5.68465 10.5762 6.01236 10.3554 6.28788 10.0775L7.12832 9.23703L7.96935 10.0775V10.0769ZM7.54854 3.7724L8.38957 4.61343L4.18678 8.81563L3.34575 7.97519L7.54854 3.773V3.7724Z" fill="#293881"/>
</g>
</svg>
