<svg width="14" height="21" viewBox="0 0 14 21" fill="none" xmlns="http://www.w3.org/2000/svg">
<g id="Layer_1" clip-path="url(#clip0_2031_2533)">
<g id="TuowQf.tif">
<path id="Vector" d="M3.90517 21C3.86351 20.9843 3.81851 20.9653 3.77393 20.9535C3.26561 20.8214 2.89229 20.5303 2.70396 20.0196C2.41091 19.2244 2.11842 18.4293 1.82648 17.6344C1.79948 17.5706 1.78342 17.5026 1.77899 17.4334C1.77899 17.2472 1.8819 17.1228 2.05689 17.0906C2.23189 17.0585 2.36563 17.1613 2.43188 17.3242C2.52771 17.5573 2.60896 17.7964 2.69604 18.033C2.89728 18.578 3.09645 19.1242 3.29936 19.6688C3.45644 20.0919 3.77768 20.3035 4.21058 20.2836C4.61557 20.2642 4.92472 19.9993 5.0293 19.5723C5.26763 18.5988 5.50374 17.6249 5.73762 16.6506C5.92761 15.8648 6.46176 15.3765 7.16716 15.3481C7.89797 15.3185 8.52712 15.7793 8.70878 16.5016C8.96877 17.5349 9.21668 18.5708 9.46376 19.6075C9.57292 20.0636 9.7675 20.2616 10.1592 20.2845C10.6283 20.312 10.9445 20.1224 11.0833 19.7018C11.2545 19.1835 11.4095 18.6592 11.5704 18.1362C12.0412 16.6027 12.5349 15.076 12.9712 13.5329C13.1549 12.8846 13.217 12.2008 13.3386 11.5111H0.672351C0.728167 12.2904 0.885506 13.0588 1.14025 13.7961C1.2565 14.1308 1.20942 14.3309 0.994425 14.4079C0.779432 14.4849 0.614853 14.3597 0.500273 14.0296C0.190677 13.1259 0.0219813 12.1787 0.000288257 11.2221C-0.00804483 10.9386 0.101119 10.8269 0.38236 10.8265C1.1915 10.8265 2.00065 10.8265 2.81479 10.8265C3.12728 10.3212 3.52893 9.91163 4.07725 9.70514C4.40182 9.58327 4.75723 9.49357 5.10097 9.48595C6.3326 9.45971 7.56506 9.47579 8.79711 9.47537C9.77875 9.47537 10.5396 9.89851 11.0958 10.7122C11.1195 10.7465 11.1445 10.7799 11.1791 10.8265H13.3328C13.8974 10.8265 13.902 10.8265 13.902 11.3867C13.902 12.4594 13.6624 13.4867 13.347 14.5035C12.7987 16.2678 12.2617 18.0366 11.7362 19.8101C11.5545 20.4207 11.21 20.8346 10.5812 20.9725C10.57 20.9746 10.5616 20.9907 10.5521 21H9.96874C9.95291 20.9877 9.93832 20.9683 9.92083 20.964C9.28626 20.8109 8.90586 20.4042 8.75128 19.7657C8.50878 18.7654 8.27421 17.763 8.01047 16.769C7.95308 16.5543 7.83259 16.3624 7.66506 16.2189C7.19257 15.8462 6.55301 16.1411 6.39635 16.7792C6.14636 17.799 5.90136 18.8204 5.64637 19.8393C5.50262 20.4186 5.14847 20.7969 4.57348 20.9509C4.52849 20.9628 4.48557 20.9822 4.44182 20.9983L3.90517 21ZM3.64601 10.8104H10.3487C9.91249 10.3957 9.43417 10.1592 8.87586 10.1528C7.61645 10.139 6.3569 10.139 5.09722 10.1528C4.5439 10.1583 4.06142 10.3699 3.64601 10.8104Z" fill="#293880"/>
<path id="Vector_2" d="M13.9999 5.16204C13.9095 5.35795 13.7595 5.42481 13.5475 5.41846C13.1116 5.40577 12.6754 5.41846 12.2392 5.41423C11.9892 5.41423 11.8592 5.28729 11.8642 5.06853C11.8692 4.85696 11.9954 4.74271 12.2363 4.74144C12.5812 4.74144 12.9262 4.74144 13.2858 4.74144C13.2497 4.05071 13.1379 3.36622 12.9525 2.70064C12.8591 2.37101 12.7617 2.03715 12.6192 1.72742C12.4972 1.46078 12.3345 1.21543 12.1371 1.00046C11.7075 0.546433 11.1167 0.470691 10.6088 0.831206C10.2405 1.0934 9.90201 1.39639 9.59966 1.73461C8.62511 2.82377 7.37515 2.91136 6.28351 1.93518C5.92436 1.61444 5.53354 1.36309 5.05397 1.27466C4.3169 1.13925 3.69776 1.41514 3.11944 1.83828C3.06361 1.88059 3.01319 1.92798 2.95653 1.96818C2.7957 2.08243 2.61404 2.05577 2.49821 1.90386C2.38238 1.75196 2.3903 1.58059 2.54196 1.45407C2.72904 1.30004 2.93445 1.1676 3.13236 1.02712C3.18194 0.991999 3.23485 0.961956 3.29069 0.926412C2.71737 0.507504 2.00906 0.604403 1.59365 1.18453C1.40067 1.45855 1.24431 1.75736 1.12867 2.07312C0.812009 2.92194 0.712012 3.81476 0.670346 4.74482H10.8867C11.1817 4.74482 11.3184 4.86584 11.3 5.11169C11.2871 5.29152 11.1884 5.39392 11.0138 5.41592C10.9515 5.42058 10.8891 5.42143 10.8267 5.41846H0.483269C0.0857803 5.41592 0.000366211 5.3313 0.000366211 4.92043C0.00328279 3.76568 0.160778 2.63378 0.639931 1.57551C0.7831 1.25622 0.975826 0.962343 1.21075 0.70511C2.01156 -0.153017 2.99569 -0.190253 3.88817 0.568859L4.03066 0.69157H5.52479C7.06099 -0.177559 8.05763 -0.224104 9.91674 0.530777C10.2663 0.234579 10.6692 0.0462819 11.133 0.0153927C11.8829 -0.0353841 12.4325 0.322592 12.8729 0.898485C13.3475 1.51881 13.5608 2.25592 13.7362 3.00064C13.8433 3.45594 13.8862 3.92732 13.9591 4.39108C13.9687 4.45244 13.9854 4.5121 13.9987 4.57261L13.9999 5.16204ZM9.388 1.02839C8.3047 0.562935 7.25015 0.592132 6.18185 1.05589C7.26765 2.10528 8.11721 2.42517 9.388 1.02839Z" fill="#2273EC"/>
<path id="Vector_3" d="M7.31099 7.60805C7.39098 7.55897 7.4464 7.52343 7.50473 7.49C7.65431 7.40875 7.78764 7.43668 7.89514 7.56574C8.00263 7.6948 8.02013 7.84924 7.91264 7.97068C7.68134 8.23139 7.43641 8.47929 7.17891 8.71329C7.02974 8.84701 6.85517 8.80892 6.71309 8.66548C6.51643 8.46787 6.32018 8.26984 6.12602 8.06928C5.96353 7.90002 5.93811 7.7278 6.04852 7.58224C6.15894 7.43668 6.32102 7.42272 6.53059 7.54458C6.55934 7.56151 6.58642 7.5814 6.64809 7.62202C6.64809 7.21115 6.64601 6.82948 6.64809 6.44823C6.64809 6.23962 6.75225 6.11564 6.92891 6.09533C7.15182 6.06994 7.3039 6.19942 7.30849 6.4313C7.31474 6.81551 7.31099 7.19972 7.31099 7.60805Z" fill="#293880"/>
<path id="Vector_4" d="M12.5023 3.72363C12.5046 3.80499 12.4778 3.88443 12.4267 3.94718C12.3757 4.00992 12.3039 4.05168 12.2248 4.06468C12.0494 4.08965 11.9019 3.97709 11.8565 3.77187C11.7985 3.51206 11.7656 3.24548 11.6898 2.99118C11.574 2.59554 11.4348 2.20667 11.2994 1.81696C11.2227 1.59481 11.2773 1.44375 11.481 1.35405C11.6623 1.27492 11.844 1.34474 11.9073 1.55969C12.1123 2.25745 12.3006 2.95986 12.4952 3.66101C12.4994 3.68161 12.5018 3.70258 12.5023 3.72363Z" fill="#2273EC"/>
<path id="Vector_5" d="M1.52083 16.3954C1.4725 16.348 1.35417 16.2769 1.30334 16.1733C1.20542 15.9816 1.14043 15.7725 1.06918 15.5677C1.03556 15.4823 1.03649 15.3868 1.07174 15.3021C1.107 15.2173 1.17375 15.1501 1.25751 15.115C1.33884 15.0822 1.42961 15.0832 1.51021 15.1178C1.59082 15.1524 1.65479 15.2178 1.68833 15.2999C1.78266 15.5102 1.86515 15.7258 1.9354 15.9456C2.00373 16.1639 1.82249 16.3916 1.52083 16.3954Z" fill="#293880"/>
</g>
</g>
<defs>
<clipPath id="clip0_2031_2533">
<rect width="14" height="21" fill="white"/>
</clipPath>
</defs>
</svg>
