<svg width="22" height="22" viewBox="0 0 22 22" fill="none" xmlns="http://www.w3.org/2000/svg">
<g id="Layer_1" clip-path="url(#clip0_2031_2672)">
<g id="jDrlwG.tif">
<g id="Vector">
<mask id="path-1-outside-1_2031_2672" maskUnits="userSpaceOnUse" x="0.0356903" y="11.0834" width="22" height="11" fill="black">
<rect fill="white" x="0.0356903" y="11.0834" width="22" height="11"/>
<path d="M9.64612 21C9.29136 20.9722 8.93461 20.9598 8.58303 20.9115C8.28627 20.8713 7.95019 20.8524 7.71381 20.6963C7.47069 20.5354 7.28437 20.5491 7.02535 20.5756C6.27054 20.6561 5.50938 20.6002 4.81893 20.259C4.54604 20.1204 4.24022 20.062 3.9362 20.0905C3.39337 20.122 2.85095 20.022 2.35389 19.7988C2.03608 19.6589 1.8144 19.4441 1.78659 19.0716C1.75282 18.619 1.72025 18.1665 1.67774 17.7147C1.66995 17.5842 1.63956 17.4561 1.58796 17.3362C1.04728 16.2135 0.847056 15.0554 1.24472 13.843C1.58915 12.7923 2.33045 12.2432 3.40943 12.1269C4.76649 11.9809 6.08264 12.2195 7.37494 12.5911C8.21556 12.8325 9.0387 13.1438 9.85707 13.4576C10.6087 13.746 11.3472 13.7794 12.0909 13.4653C13.3411 12.9355 14.6255 12.5215 15.9595 12.2742C16.8915 12.1012 17.8266 12.0095 18.7737 12.1583C19.9087 12.3361 20.5833 13.0079 20.8582 14.267C21.093 15.3418 20.8761 16.3615 20.4001 17.3366C20.3483 17.4564 20.3179 17.5846 20.3104 17.7151C20.2643 18.1934 20.2329 18.6733 20.1872 19.1512C20.1777 19.2691 20.1377 19.3823 20.0712 19.4795C20.0048 19.5768 19.9142 19.6546 19.8086 19.7051C19.1602 20.047 18.4206 20.1697 17.6983 20.0551C17.634 20.0454 17.5474 20.0454 17.4997 20.0804C17.0837 20.3865 16.5995 20.4867 16.1093 20.5515C15.6115 20.617 15.1105 20.6577 14.6175 20.502C14.6002 20.4975 14.582 20.4972 14.5645 20.5011C14.547 20.5049 14.5306 20.5128 14.5166 20.5241C14.221 20.8741 13.8015 20.8628 13.4066 20.9131C13.0674 20.9562 12.7245 20.9718 12.3833 20.9992H12.2641C12.1668 20.9887 12.0694 20.9714 11.9717 20.9682C11.6483 20.9582 11.3262 20.9545 11.0453 20.7502C11.0163 20.7289 10.944 20.7647 10.8931 20.7792C10.687 20.8371 10.484 20.9127 10.2742 20.9521C10.0823 20.9879 9.88289 20.9851 9.68704 20.9992L9.64612 21ZM20.1856 16.594C20.2222 16.4923 20.2504 16.4255 20.2702 16.3567C20.4355 15.7935 20.5181 15.2163 20.4268 14.6338C20.2059 13.2223 19.5706 12.7066 18.3832 12.5992C17.4568 12.5151 16.5522 12.6471 15.6516 12.8321C14.4924 13.0702 13.3765 13.4516 12.2856 13.9134C11.4151 14.2814 10.5463 14.2513 9.66638 13.9057C8.88774 13.5996 8.10035 13.3043 7.29748 13.073C6.06992 12.7195 4.81972 12.4878 3.52821 12.6044C2.57477 12.6901 1.97887 13.1382 1.68886 14.0453C1.51601 14.589 1.47915 15.1676 1.5816 15.7292C1.63126 16.0108 1.70754 16.2899 1.7715 16.5699C2.06706 15.9826 2.4401 15.7501 3.05308 15.8273C3.52305 15.8865 3.908 16.1262 4.22144 16.4838C4.2703 16.5397 4.31957 16.5952 4.38591 16.6713C4.53727 16.1145 4.90236 15.8667 5.40847 15.8265C6.01629 15.7807 6.5522 15.9802 7.01462 16.3788C7.15406 16.4995 7.28556 16.629 7.41745 16.7513C7.61609 16.2976 7.95257 15.9581 8.46425 15.8643C9.30804 15.7099 10.0156 15.9923 10.5674 16.6463C10.7426 16.8547 10.8614 17.1117 11.0087 17.3515C10.9992 17.3535 11.0087 17.3543 11.0107 17.3515C11.0226 17.3282 11.0334 17.3044 11.0433 17.2803C11.3214 16.6045 11.7981 16.1435 12.4882 15.9227C13.4178 15.6246 14.1622 15.9271 14.5702 16.7557C14.5734 16.7626 14.5901 16.763 14.6 16.7662C15.1824 16.1447 15.4875 15.9464 16.1232 15.8434C16.5602 15.773 16.9912 15.8076 17.3217 16.1524C17.4492 16.2855 17.5251 16.4693 17.6296 16.6387C17.6761 16.5852 17.7265 16.5265 17.7778 16.4681C18.0366 16.1703 18.3782 15.9584 18.7578 15.8603C19.4097 15.6902 19.9028 15.9331 20.1856 16.594ZM14.3084 18.8624L14.3374 18.858C14.2818 18.2747 14.2489 17.6874 14.1622 17.1085C14.0999 16.689 13.8154 16.4287 13.4031 16.3366C12.6284 16.1636 11.7187 16.6986 11.4783 17.518C11.2233 18.3893 11.1704 19.288 11.2725 20.1947C11.2768 20.255 11.3015 20.3119 11.3425 20.3559C11.3834 20.3999 11.4382 20.4282 11.4974 20.436C11.5943 20.4565 11.6928 20.469 11.7918 20.4734C12.4782 20.5008 13.1627 20.4811 13.8413 20.3584C14.0872 20.3137 14.2342 20.1725 14.2532 19.9207C14.2814 19.5696 14.2918 19.2156 14.3084 18.8624ZM7.66773 18.6725C7.69276 19.2031 7.70229 19.5639 7.7297 19.9231C7.74917 20.1758 7.89536 20.3182 8.14326 20.3596C8.27861 20.3884 8.41571 20.4082 8.55364 20.4187C9.15907 20.4372 9.7649 20.4614 10.3703 20.4537C10.6456 20.4505 10.6881 20.3705 10.7207 20.0953C10.8101 19.3037 10.7362 18.5217 10.569 17.7485C10.389 16.9191 9.7657 16.3808 8.93302 16.3096C8.35659 16.2602 7.88424 16.6021 7.80042 17.1866C7.72255 17.734 7.7011 18.2884 7.66852 18.6725H7.66773ZM14.7578 18.8121H14.7387C14.7387 19.1657 14.749 19.5201 14.7331 19.8733C14.7272 20.0068 14.7728 20.0575 14.8849 20.0744C15.6125 20.1819 16.3553 20.087 17.0337 19.7997C17.1783 19.7393 17.2721 19.6387 17.2907 19.4746C17.3845 18.5989 17.3702 17.7276 17.1557 16.87C17.0488 16.4392 16.8184 16.2847 16.3762 16.3068C16.2774 16.3117 16.1792 16.3252 16.0826 16.347C15.3203 16.5188 14.6862 17.1616 14.7542 17.9923C14.7772 18.2626 14.7585 18.5386 14.7585 18.8121H14.7578ZM7.22359 20.0627C7.22359 19.3857 7.22359 18.7707 7.22359 18.156C7.22359 17.9694 7.24305 17.7771 7.2073 17.5969C7.08017 16.9609 6.52678 16.4528 5.86613 16.3402C5.16058 16.2195 4.89282 16.4102 4.76848 17.1238C4.64145 17.8622 4.6122 18.6145 4.68148 19.3608C4.70333 19.6054 4.80661 19.753 5.02869 19.8391C5.51136 20.0225 6.02277 20.1161 6.5383 20.1154C6.7715 20.117 7.00469 20.0808 7.22359 20.0627ZM2.14095 17.8189C2.18068 18.2288 2.22438 18.6069 2.25537 18.9855C2.27086 19.179 2.37455 19.2848 2.541 19.3539C3.02559 19.5526 3.54858 19.6365 4.07008 19.5993C4.21469 19.5905 4.21707 19.5157 4.2123 19.3982C4.19376 18.9648 4.18132 18.5313 4.17496 18.0977C4.17218 17.9046 4.21826 17.7079 4.19522 17.5188C4.1257 16.9396 3.5735 16.3901 3.00342 16.304C2.61529 16.2453 2.3376 16.4162 2.25974 16.8117C2.1918 17.1524 2.17631 17.5011 2.14095 17.8189ZM19.8483 17.8145C19.8086 17.4899 19.7828 17.1158 19.7109 16.7513C19.6501 16.4424 19.4328 16.2976 19.1185 16.3C18.7924 16.3024 18.5135 16.44 18.2795 16.6552C17.9319 16.977 17.7484 17.3519 17.7933 17.862C17.837 18.3575 17.7877 18.862 17.779 19.3624C17.779 19.4626 17.7233 19.5856 17.8981 19.5965C18.4543 19.6311 18.9894 19.5603 19.4991 19.3242C19.6318 19.2626 19.7113 19.1725 19.7244 19.0213C19.7609 18.6367 19.803 18.2522 19.8483 17.8145Z"/>
</mask>
<path d="M9.64612 21C9.29136 20.9722 8.93461 20.9598 8.58303 20.9115C8.28627 20.8713 7.95019 20.8524 7.71381 20.6963C7.47069 20.5354 7.28437 20.5491 7.02535 20.5756C6.27054 20.6561 5.50938 20.6002 4.81893 20.259C4.54604 20.1204 4.24022 20.062 3.9362 20.0905C3.39337 20.122 2.85095 20.022 2.35389 19.7988C2.03608 19.6589 1.8144 19.4441 1.78659 19.0716C1.75282 18.619 1.72025 18.1665 1.67774 17.7147C1.66995 17.5842 1.63956 17.4561 1.58796 17.3362C1.04728 16.2135 0.847056 15.0554 1.24472 13.843C1.58915 12.7923 2.33045 12.2432 3.40943 12.1269C4.76649 11.9809 6.08264 12.2195 7.37494 12.5911C8.21556 12.8325 9.0387 13.1438 9.85707 13.4576C10.6087 13.746 11.3472 13.7794 12.0909 13.4653C13.3411 12.9355 14.6255 12.5215 15.9595 12.2742C16.8915 12.1012 17.8266 12.0095 18.7737 12.1583C19.9087 12.3361 20.5833 13.0079 20.8582 14.267C21.093 15.3418 20.8761 16.3615 20.4001 17.3366C20.3483 17.4564 20.3179 17.5846 20.3104 17.7151C20.2643 18.1934 20.2329 18.6733 20.1872 19.1512C20.1777 19.2691 20.1377 19.3823 20.0712 19.4795C20.0048 19.5768 19.9142 19.6546 19.8086 19.7051C19.1602 20.047 18.4206 20.1697 17.6983 20.0551C17.634 20.0454 17.5474 20.0454 17.4997 20.0804C17.0837 20.3865 16.5995 20.4867 16.1093 20.5515C15.6115 20.617 15.1105 20.6577 14.6175 20.502C14.6002 20.4975 14.582 20.4972 14.5645 20.5011C14.547 20.5049 14.5306 20.5128 14.5166 20.5241C14.221 20.8741 13.8015 20.8628 13.4066 20.9131C13.0674 20.9562 12.7245 20.9718 12.3833 20.9992H12.2641C12.1668 20.9887 12.0694 20.9714 11.9717 20.9682C11.6483 20.9582 11.3262 20.9545 11.0453 20.7502C11.0163 20.7289 10.944 20.7647 10.8931 20.7792C10.687 20.8371 10.484 20.9127 10.2742 20.9521C10.0823 20.9879 9.88289 20.9851 9.68704 20.9992L9.64612 21ZM20.1856 16.594C20.2222 16.4923 20.2504 16.4255 20.2702 16.3567C20.4355 15.7935 20.5181 15.2163 20.4268 14.6338C20.2059 13.2223 19.5706 12.7066 18.3832 12.5992C17.4568 12.5151 16.5522 12.6471 15.6516 12.8321C14.4924 13.0702 13.3765 13.4516 12.2856 13.9134C11.4151 14.2814 10.5463 14.2513 9.66638 13.9057C8.88774 13.5996 8.10035 13.3043 7.29748 13.073C6.06992 12.7195 4.81972 12.4878 3.52821 12.6044C2.57477 12.6901 1.97887 13.1382 1.68886 14.0453C1.51601 14.589 1.47915 15.1676 1.5816 15.7292C1.63126 16.0108 1.70754 16.2899 1.7715 16.5699C2.06706 15.9826 2.4401 15.7501 3.05308 15.8273C3.52305 15.8865 3.908 16.1262 4.22144 16.4838C4.2703 16.5397 4.31957 16.5952 4.38591 16.6713C4.53727 16.1145 4.90236 15.8667 5.40847 15.8265C6.01629 15.7807 6.5522 15.9802 7.01462 16.3788C7.15406 16.4995 7.28556 16.629 7.41745 16.7513C7.61609 16.2976 7.95257 15.9581 8.46425 15.8643C9.30804 15.7099 10.0156 15.9923 10.5674 16.6463C10.7426 16.8547 10.8614 17.1117 11.0087 17.3515C10.9992 17.3535 11.0087 17.3543 11.0107 17.3515C11.0226 17.3282 11.0334 17.3044 11.0433 17.2803C11.3214 16.6045 11.7981 16.1435 12.4882 15.9227C13.4178 15.6246 14.1622 15.9271 14.5702 16.7557C14.5734 16.7626 14.5901 16.763 14.6 16.7662C15.1824 16.1447 15.4875 15.9464 16.1232 15.8434C16.5602 15.773 16.9912 15.8076 17.3217 16.1524C17.4492 16.2855 17.5251 16.4693 17.6296 16.6387C17.6761 16.5852 17.7265 16.5265 17.7778 16.4681C18.0366 16.1703 18.3782 15.9584 18.7578 15.8603C19.4097 15.6902 19.9028 15.9331 20.1856 16.594ZM14.3084 18.8624L14.3374 18.858C14.2818 18.2747 14.2489 17.6874 14.1622 17.1085C14.0999 16.689 13.8154 16.4287 13.4031 16.3366C12.6284 16.1636 11.7187 16.6986 11.4783 17.518C11.2233 18.3893 11.1704 19.288 11.2725 20.1947C11.2768 20.255 11.3015 20.3119 11.3425 20.3559C11.3834 20.3999 11.4382 20.4282 11.4974 20.436C11.5943 20.4565 11.6928 20.469 11.7918 20.4734C12.4782 20.5008 13.1627 20.4811 13.8413 20.3584C14.0872 20.3137 14.2342 20.1725 14.2532 19.9207C14.2814 19.5696 14.2918 19.2156 14.3084 18.8624ZM7.66773 18.6725C7.69276 19.2031 7.70229 19.5639 7.7297 19.9231C7.74917 20.1758 7.89536 20.3182 8.14326 20.3596C8.27861 20.3884 8.41571 20.4082 8.55364 20.4187C9.15907 20.4372 9.7649 20.4614 10.3703 20.4537C10.6456 20.4505 10.6881 20.3705 10.7207 20.0953C10.8101 19.3037 10.7362 18.5217 10.569 17.7485C10.389 16.9191 9.7657 16.3808 8.93302 16.3096C8.35659 16.2602 7.88424 16.6021 7.80042 17.1866C7.72255 17.734 7.7011 18.2884 7.66852 18.6725H7.66773ZM14.7578 18.8121H14.7387C14.7387 19.1657 14.749 19.5201 14.7331 19.8733C14.7272 20.0068 14.7728 20.0575 14.8849 20.0744C15.6125 20.1819 16.3553 20.087 17.0337 19.7997C17.1783 19.7393 17.2721 19.6387 17.2907 19.4746C17.3845 18.5989 17.3702 17.7276 17.1557 16.87C17.0488 16.4392 16.8184 16.2847 16.3762 16.3068C16.2774 16.3117 16.1792 16.3252 16.0826 16.347C15.3203 16.5188 14.6862 17.1616 14.7542 17.9923C14.7772 18.2626 14.7585 18.5386 14.7585 18.8121H14.7578ZM7.22359 20.0627C7.22359 19.3857 7.22359 18.7707 7.22359 18.156C7.22359 17.9694 7.24305 17.7771 7.2073 17.5969C7.08017 16.9609 6.52678 16.4528 5.86613 16.3402C5.16058 16.2195 4.89282 16.4102 4.76848 17.1238C4.64145 17.8622 4.6122 18.6145 4.68148 19.3608C4.70333 19.6054 4.80661 19.753 5.02869 19.8391C5.51136 20.0225 6.02277 20.1161 6.5383 20.1154C6.7715 20.117 7.00469 20.0808 7.22359 20.0627ZM2.14095 17.8189C2.18068 18.2288 2.22438 18.6069 2.25537 18.9855C2.27086 19.179 2.37455 19.2848 2.541 19.3539C3.02559 19.5526 3.54858 19.6365 4.07008 19.5993C4.21469 19.5905 4.21707 19.5157 4.2123 19.3982C4.19376 18.9648 4.18132 18.5313 4.17496 18.0977C4.17218 17.9046 4.21826 17.7079 4.19522 17.5188C4.1257 16.9396 3.5735 16.3901 3.00342 16.304C2.61529 16.2453 2.3376 16.4162 2.25974 16.8117C2.1918 17.1524 2.17631 17.5011 2.14095 17.8189ZM19.8483 17.8145C19.8086 17.4899 19.7828 17.1158 19.7109 16.7513C19.6501 16.4424 19.4328 16.2976 19.1185 16.3C18.7924 16.3024 18.5135 16.44 18.2795 16.6552C17.9319 16.977 17.7484 17.3519 17.7933 17.862C17.837 18.3575 17.7877 18.862 17.779 19.3624C17.779 19.4626 17.7233 19.5856 17.8981 19.5965C18.4543 19.6311 18.9894 19.5603 19.4991 19.3242C19.6318 19.2626 19.7113 19.1725 19.7244 19.0213C19.7609 18.6367 19.803 18.2522 19.8483 17.8145Z" fill="#2273EC"/>
<path d="M9.64612 21C9.29136 20.9722 8.93461 20.9598 8.58303 20.9115C8.28627 20.8713 7.95019 20.8524 7.71381 20.6963C7.47069 20.5354 7.28437 20.5491 7.02535 20.5756C6.27054 20.6561 5.50938 20.6002 4.81893 20.259C4.54604 20.1204 4.24022 20.062 3.9362 20.0905C3.39337 20.122 2.85095 20.022 2.35389 19.7988C2.03608 19.6589 1.8144 19.4441 1.78659 19.0716C1.75282 18.619 1.72025 18.1665 1.67774 17.7147C1.66995 17.5842 1.63956 17.4561 1.58796 17.3362C1.04728 16.2135 0.847056 15.0554 1.24472 13.843C1.58915 12.7923 2.33045 12.2432 3.40943 12.1269C4.76649 11.9809 6.08264 12.2195 7.37494 12.5911C8.21556 12.8325 9.0387 13.1438 9.85707 13.4576C10.6087 13.746 11.3472 13.7794 12.0909 13.4653C13.3411 12.9355 14.6255 12.5215 15.9595 12.2742C16.8915 12.1012 17.8266 12.0095 18.7737 12.1583C19.9087 12.3361 20.5833 13.0079 20.8582 14.267C21.093 15.3418 20.8761 16.3615 20.4001 17.3366C20.3483 17.4564 20.3179 17.5846 20.3104 17.7151C20.2643 18.1934 20.2329 18.6733 20.1872 19.1512C20.1777 19.2691 20.1377 19.3823 20.0712 19.4795C20.0048 19.5768 19.9142 19.6546 19.8086 19.7051C19.1602 20.047 18.4206 20.1697 17.6983 20.0551C17.634 20.0454 17.5474 20.0454 17.4997 20.0804C17.0837 20.3865 16.5995 20.4867 16.1093 20.5515C15.6115 20.617 15.1105 20.6577 14.6175 20.502C14.6002 20.4975 14.582 20.4972 14.5645 20.5011C14.547 20.5049 14.5306 20.5128 14.5166 20.5241C14.221 20.8741 13.8015 20.8628 13.4066 20.9131C13.0674 20.9562 12.7245 20.9718 12.3833 20.9992H12.2641C12.1668 20.9887 12.0694 20.9714 11.9717 20.9682C11.6483 20.9582 11.3262 20.9545 11.0453 20.7502C11.0163 20.7289 10.944 20.7647 10.8931 20.7792C10.687 20.8371 10.484 20.9127 10.2742 20.9521C10.0823 20.9879 9.88289 20.9851 9.68704 20.9992L9.64612 21ZM20.1856 16.594C20.2222 16.4923 20.2504 16.4255 20.2702 16.3567C20.4355 15.7935 20.5181 15.2163 20.4268 14.6338C20.2059 13.2223 19.5706 12.7066 18.3832 12.5992C17.4568 12.5151 16.5522 12.6471 15.6516 12.8321C14.4924 13.0702 13.3765 13.4516 12.2856 13.9134C11.4151 14.2814 10.5463 14.2513 9.66638 13.9057C8.88774 13.5996 8.10035 13.3043 7.29748 13.073C6.06992 12.7195 4.81972 12.4878 3.52821 12.6044C2.57477 12.6901 1.97887 13.1382 1.68886 14.0453C1.51601 14.589 1.47915 15.1676 1.5816 15.7292C1.63126 16.0108 1.70754 16.2899 1.7715 16.5699C2.06706 15.9826 2.4401 15.7501 3.05308 15.8273C3.52305 15.8865 3.908 16.1262 4.22144 16.4838C4.2703 16.5397 4.31957 16.5952 4.38591 16.6713C4.53727 16.1145 4.90236 15.8667 5.40847 15.8265C6.01629 15.7807 6.5522 15.9802 7.01462 16.3788C7.15406 16.4995 7.28556 16.629 7.41745 16.7513C7.61609 16.2976 7.95257 15.9581 8.46425 15.8643C9.30804 15.7099 10.0156 15.9923 10.5674 16.6463C10.7426 16.8547 10.8614 17.1117 11.0087 17.3515C10.9992 17.3535 11.0087 17.3543 11.0107 17.3515C11.0226 17.3282 11.0334 17.3044 11.0433 17.2803C11.3214 16.6045 11.7981 16.1435 12.4882 15.9227C13.4178 15.6246 14.1622 15.9271 14.5702 16.7557C14.5734 16.7626 14.5901 16.763 14.6 16.7662C15.1824 16.1447 15.4875 15.9464 16.1232 15.8434C16.5602 15.773 16.9912 15.8076 17.3217 16.1524C17.4492 16.2855 17.5251 16.4693 17.6296 16.6387C17.6761 16.5852 17.7265 16.5265 17.7778 16.4681C18.0366 16.1703 18.3782 15.9584 18.7578 15.8603C19.4097 15.6902 19.9028 15.9331 20.1856 16.594ZM14.3084 18.8624L14.3374 18.858C14.2818 18.2747 14.2489 17.6874 14.1622 17.1085C14.0999 16.689 13.8154 16.4287 13.4031 16.3366C12.6284 16.1636 11.7187 16.6986 11.4783 17.518C11.2233 18.3893 11.1704 19.288 11.2725 20.1947C11.2768 20.255 11.3015 20.3119 11.3425 20.3559C11.3834 20.3999 11.4382 20.4282 11.4974 20.436C11.5943 20.4565 11.6928 20.469 11.7918 20.4734C12.4782 20.5008 13.1627 20.4811 13.8413 20.3584C14.0872 20.3137 14.2342 20.1725 14.2532 19.9207C14.2814 19.5696 14.2918 19.2156 14.3084 18.8624ZM7.66773 18.6725C7.69276 19.2031 7.70229 19.5639 7.7297 19.9231C7.74917 20.1758 7.89536 20.3182 8.14326 20.3596C8.27861 20.3884 8.41571 20.4082 8.55364 20.4187C9.15907 20.4372 9.7649 20.4614 10.3703 20.4537C10.6456 20.4505 10.6881 20.3705 10.7207 20.0953C10.8101 19.3037 10.7362 18.5217 10.569 17.7485C10.389 16.9191 9.7657 16.3808 8.93302 16.3096C8.35659 16.2602 7.88424 16.6021 7.80042 17.1866C7.72255 17.734 7.7011 18.2884 7.66852 18.6725H7.66773ZM14.7578 18.8121H14.7387C14.7387 19.1657 14.749 19.5201 14.7331 19.8733C14.7272 20.0068 14.7728 20.0575 14.8849 20.0744C15.6125 20.1819 16.3553 20.087 17.0337 19.7997C17.1783 19.7393 17.2721 19.6387 17.2907 19.4746C17.3845 18.5989 17.3702 17.7276 17.1557 16.87C17.0488 16.4392 16.8184 16.2847 16.3762 16.3068C16.2774 16.3117 16.1792 16.3252 16.0826 16.347C15.3203 16.5188 14.6862 17.1616 14.7542 17.9923C14.7772 18.2626 14.7585 18.5386 14.7585 18.8121H14.7578ZM7.22359 20.0627C7.22359 19.3857 7.22359 18.7707 7.22359 18.156C7.22359 17.9694 7.24305 17.7771 7.2073 17.5969C7.08017 16.9609 6.52678 16.4528 5.86613 16.3402C5.16058 16.2195 4.89282 16.4102 4.76848 17.1238C4.64145 17.8622 4.6122 18.6145 4.68148 19.3608C4.70333 19.6054 4.80661 19.753 5.02869 19.8391C5.51136 20.0225 6.02277 20.1161 6.5383 20.1154C6.7715 20.117 7.00469 20.0808 7.22359 20.0627ZM2.14095 17.8189C2.18068 18.2288 2.22438 18.6069 2.25537 18.9855C2.27086 19.179 2.37455 19.2848 2.541 19.3539C3.02559 19.5526 3.54858 19.6365 4.07008 19.5993C4.21469 19.5905 4.21707 19.5157 4.2123 19.3982C4.19376 18.9648 4.18132 18.5313 4.17496 18.0977C4.17218 17.9046 4.21826 17.7079 4.19522 17.5188C4.1257 16.9396 3.5735 16.3901 3.00342 16.304C2.61529 16.2453 2.3376 16.4162 2.25974 16.8117C2.1918 17.1524 2.17631 17.5011 2.14095 17.8189ZM19.8483 17.8145C19.8086 17.4899 19.7828 17.1158 19.7109 16.7513C19.6501 16.4424 19.4328 16.2976 19.1185 16.3C18.7924 16.3024 18.5135 16.44 18.2795 16.6552C17.9319 16.977 17.7484 17.3519 17.7933 17.862C17.837 18.3575 17.7877 18.862 17.779 19.3624C17.779 19.4626 17.7233 19.5856 17.8981 19.5965C18.4543 19.6311 18.9894 19.5603 19.4991 19.3242C19.6318 19.2626 19.7113 19.1725 19.7244 19.0213C19.7609 18.6367 19.803 18.2522 19.8483 17.8145Z" stroke="#2273EC" stroke-width="0.4" mask="url(#path-1-outside-1_2031_2672)"/>
</g>
<path id="Vector_2" d="M4.08462 6.37982L4.08435 6.37957C3.89551 6.20461 3.86097 5.97386 3.84105 5.77134L3.84102 5.77107C3.81254 5.47303 3.78287 5.17513 3.75202 4.87736C3.75137 4.87348 3.75065 4.86961 3.74986 4.86575C3.60421 4.84287 3.45885 4.82102 3.31388 4.79922C2.90997 4.73849 2.50912 4.67822 2.11383 4.59765C1.43482 4.46047 0.917071 3.7941 0.904783 3.10076L0.904782 3.10072C0.898406 2.73191 0.898406 2.36283 0.904782 1.99349L4.08462 6.37982ZM4.08462 6.37982C4.16432 6.45311 4.27685 6.502 4.39558 6.533C4.516 6.56444 4.65158 6.57976 4.78561 6.57994C4.91966 6.58013 5.05531 6.56518 5.17591 6.53412C5.29477 6.50351 5.40748 6.45507 5.48756 6.3823C5.68797 6.20104 5.71328 5.95287 5.73414 5.74837C5.73528 5.7372 5.7364 5.72615 5.73755 5.71525C5.75767 5.52423 5.77833 5.33331 5.79906 5.14174C5.80572 5.08017 5.81239 5.01854 5.81905 4.95681L9.95577 5.04587C9.96259 5.10892 9.96943 5.17177 9.97625 5.23446C10.0062 5.50955 10.0358 5.78145 10.0622 6.05285L10.0623 6.0533C10.0822 6.24825 10.1581 6.41511 10.2839 6.53463C10.4099 6.65439 10.5791 6.72007 10.7733 6.72438L10.7737 6.72439C10.8636 6.72602 10.954 6.72547 11.0429 6.72493C11.0866 6.72467 11.13 6.7244 11.1728 6.72441L11.1735 6.7244M4.08462 6.37982L11.1735 6.7244M11.1735 6.7244C11.3856 6.72286 11.5651 6.66308 11.6975 6.53979C11.8295 6.41683 11.903 6.24153 11.9246 6.0313C11.9474 5.81036 11.9723 5.59088 11.9975 5.3695C12.0097 5.2618 12.022 5.15366 12.0341 5.04467L16.1717 4.95599M11.1735 6.7244L16.1717 4.95599M2.12784 1.58834H2.12747C1.92662 1.58759 1.79475 1.63725 1.71197 1.71973C1.62909 1.80231 1.57845 1.93465 1.57672 2.13599V2.13723V2.13888V2.14053V2.14218V2.14383V2.14548V2.14713V2.14878V2.15043V2.15208V2.15373V2.15538V2.15702V2.15867V2.16032V2.16197V2.16362V2.16527V2.16692V2.16857V2.17022V2.17187V2.17352V2.17517V2.17682V2.17847V2.18012V2.18177V2.18342V2.18507V2.18672V2.18837V2.19002V2.19167V2.19332V2.19497V2.19662V2.19827V2.19992V2.20157V2.20322V2.20487V2.20652V2.20817V2.20982V2.21147V2.21312V2.21477V2.21642V2.21807V2.21972V2.22137V2.22302V2.22467V2.22632V2.22797V2.22962V2.23127V2.23292V2.23457V2.23622V2.23787V2.23952V2.24117V2.24282V2.24447V2.24612V2.24777V2.24942V2.25107V2.25272V2.25437V2.25602V2.25767V2.25932V2.26097V2.26262V2.26427V2.26592V2.26757V2.26922V2.27087V2.27252V2.27417V2.27582V2.27747V2.27912V2.28077V2.28242V2.28407V2.28572V2.28737V2.28902V2.29067V2.29232V2.29397V2.29562V2.29727V2.29892V2.30057V2.30222V2.30387V2.30552V2.30717V2.30882V2.31047V2.31212V2.31377V2.31542V2.31707V2.31871V2.32036V2.32201V2.32366V2.32531V2.32696V2.32861V2.33026V2.33191V2.33356V2.33521V2.33686V2.33851V2.34016V2.34181V2.34346V2.34511V2.34676V2.34841V2.35006V2.35171V2.35336V2.35501V2.35666V2.35831V2.35996V2.36161V2.36326V2.36491V2.36656V2.36821V2.36986V2.37151V2.37316V2.37481V2.37646V2.37811V2.37976V2.38141V2.38306V2.38471V2.38636V2.38801V2.38966V2.39131V2.39296V2.39461V2.39626V2.39791V2.39956V2.40121V2.40286V2.40451V2.40616V2.40781V2.40946V2.41111V2.41276V2.41441V2.41606V2.41771V2.41936V2.42101V2.42266V2.42431V2.42596V2.42761V2.42926V2.43091V2.43256V2.43421V2.43586V2.43751V2.43916V2.44081V2.44246V2.44411V2.44576V2.44741V2.44906V2.45071V2.45236V2.45401V2.45566V2.45731V2.45896V2.46061V2.46226V2.46391V2.46556V2.46721V2.46886V2.47051V2.47216V2.47381V2.47546V2.47711V2.47875V2.4804V2.48205V2.4837V2.48535V2.487V2.48865V2.4903V2.49195V2.4936V2.49525V2.4969V2.49855V2.5002V2.50185V2.5035V2.50515V2.5068V2.50845V2.5101V2.51175V2.5134V2.51505V2.5167V2.51835V2.52V2.52165V2.5233V2.52495V2.5266V2.52825V2.5299V2.53155V2.5332V2.53485V2.5365V2.53815V2.5398V2.54145V2.5431V2.54475V2.5464V2.54805V2.5497V2.55135V2.553V2.55465V2.5563V2.55795V2.5596V2.56125V2.5629V2.56455V2.5662V2.56785V2.5695V2.57115V2.5728V2.57445V2.5761V2.57775V2.5794V2.58105V2.5827V2.58435V2.586V2.58765V2.5893V2.59095V2.5926V2.59425V2.5959V2.59755V2.5992V2.60085V2.6025V2.60415V2.6058V2.60745V2.6091V2.61075V2.6124V2.61405V2.6157V2.61735V2.619V2.62065V2.6223V2.62395V2.6256V2.62725V2.6289V2.63055V2.6322V2.63385V2.6355V2.63715V2.6388V2.64044V2.64209V2.64374V2.64539V2.64704V2.64869V2.65034V2.65199V2.65364V2.65529V2.65694V2.65859V2.66024V2.66189V2.66354V2.66519V2.66684V2.66849V2.67014V2.67179V2.67344V2.67509V2.67674V2.67839V2.68004V2.68169V2.68334V2.68499V2.68664V2.68829V2.68994V2.69159V2.69324V2.69489V2.69654V2.69819V2.69984V2.70149V2.70314V2.70479V2.70644V2.70809V2.70974V2.71139V2.71304V2.71469V2.71634V2.71799V2.71964V2.72129V2.72294V2.72459V2.72624V2.72789V2.72954V2.73119V2.73284V2.73449V2.73614V2.73779V2.73944V2.74109V2.74274V2.74439V2.74604V2.74769V2.74934V2.75099V2.75264V2.75429V2.75594V2.75759V2.75924V2.76089V2.76254V2.76419V2.76584V2.76749V2.76914V2.77079V2.77244V2.77409V2.77574V2.77739V2.77904V2.78069V2.78234V2.78399V2.78564V2.78729V2.78894V2.79059V2.79224V2.79389V2.79554V2.79719V2.79884V2.80049V2.80213V2.80378V2.80543V2.80708V2.80873V2.81038V2.81203V2.81368V2.81533V2.81698V2.81863V2.82028V2.82193V2.82358V2.82523V2.82688V2.82853V2.83018V2.83183V2.83348V2.83513V2.83678V2.83843V2.84008V2.84173V2.84338V2.84503V2.84668V2.84833V2.84998V2.85163V2.85328V2.85493V2.85658V2.85823V2.85988V2.86153V2.86318V2.86483V2.86648V2.86813V2.86978V2.87143V2.87308V2.87473V2.87638V2.87803V2.87968V2.88133V2.88298V2.88463V2.88628V2.88793V2.88958V2.89123V2.89288V2.89453V2.89618V2.89783V2.89948V2.90113V2.90278V2.90443V2.90608V2.90773V2.90938V2.91103V2.91268V2.91433V2.91598V2.91763V2.91928V2.92093V2.92258V2.92423V2.92588V2.92753V2.92918V2.93083V2.93248V2.93413V2.93578V2.93743V2.93908V2.94073V2.94238V2.94403V2.94568V2.94733V2.94898V2.95063V2.95228V2.95393V2.95558V2.95723V2.95888V2.96053V2.96218V2.96382V2.96547V2.96712V2.96877V2.97042V2.97207V2.97372V2.97537V2.97702V2.97867V2.97992C1.58093 3.49585 1.8775 3.89447 2.36343 3.95678L2.36349 3.95679C3.3308 4.08143 4.29993 4.19396 5.26923 4.23078C5.26924 4.23078 5.26924 4.23079 5.26925 4.23079L5.26545 4.33071L2.12784 1.58834ZM2.12784 1.58834H2.14518H2.16252H2.17986H2.1972H2.21454H2.23188H2.24922H2.26656H2.2839H2.30124H2.31858H2.33592H2.35326H2.3706H2.38794H2.40528H2.42262H2.43996H2.4573H2.47464H2.49198H2.50932H2.52666H2.544H2.56134H2.57869H2.59603H2.61337H2.63071H2.64805H2.66539H2.68273H2.70007H2.71741H2.73475H2.75209H2.76943H2.78677H2.80411H2.82145H2.83879H2.85613H2.87347H2.89081H2.90815H2.92549H2.94283H2.96017H2.97751H2.99486H3.0122H3.02954H3.04688H3.06422H3.08156H3.0989H3.11624H3.13358H3.15092H3.16826H3.1856H3.20294H3.22028H3.23762H3.25496H3.2723H3.28965H3.30699H3.32433H3.34167H3.35901H3.37635H3.39369H3.41103H3.42837H3.44571H3.46305H3.48039H3.49773H3.51508H3.53242H3.54976H3.5671H3.58444H3.60178H3.61912H3.63646H3.6538H3.67114H3.68848H3.70582H3.72317H3.74051H3.75785H3.77519H3.79253H3.80987H3.82721H3.84455H3.86189H3.87923H3.89657H3.91392H3.93126H3.9486H3.96594H3.98328H4.00062H4.01796H4.0353H4.05264H4.06999H4.08733H4.10467H4.12201H4.13935H4.15669H4.17403H4.19137H4.20871H4.22606H4.2434H4.26074H4.27808H4.29542H4.31276H4.3301H4.34744H4.36479H4.38213H4.39947H4.41681H4.43415H4.45149H4.46883H4.48617H4.50352H4.52086H4.5382H4.55554H4.57288H4.59022H4.60756H4.6249H4.64225H4.65959H4.67693H4.69427H4.71161H4.72895H4.74629H4.76364H4.78098H4.79832H4.81566H4.833H4.85034H4.86769H4.88503H4.90237H4.91971H4.93705H4.95439H4.97173H4.98908H5.00642H5.02376H5.0411H5.05844H5.07578H5.09313H5.11047H5.12781H5.14515H5.16249H5.17983H5.19718H5.21452H5.23186H5.2492H5.26654H5.28388H5.30123H5.31857H5.33591H5.35325H5.37059H5.38793H5.40528H5.42262H5.43996H5.4573H5.47464H5.49199H5.50933H5.52667H5.54401H5.56135H5.57869H5.59604H5.61338H5.63072H5.64806H5.6654H5.68275H5.70009H5.71743H5.73477H5.75211H5.76946H5.7868H5.80414H5.82148H5.83882H5.85617H5.87351H5.89085H5.90819H5.92553H5.94288H5.96022H5.97756H5.9949H6.01224H6.02959H6.04693H6.06427H6.08161H6.09896H6.1163H6.13364H6.15098H6.16832H6.18567H6.20301H6.22035H6.23769H6.25503H6.27238H6.28972H6.30706H6.3244H6.34175H6.35909H6.37643H6.39377H6.41112H6.42846H6.4458H6.46314H6.48048H6.49783H6.51517H6.53251H6.54985H6.5672H6.58454H6.60188H6.61922H6.63657H6.65391H6.67125H6.68859H6.70594H6.72328H6.74062H6.75796H6.77531H6.79265H6.80999H6.82733H6.84468H6.86202H6.87936H6.8967H6.91405H6.93139H6.94873H6.96607H6.98342H7.00076H7.0181H7.03544H7.05279H7.07013H7.08747H7.10482H7.12216H7.1395H7.15684H7.17419H7.19153H7.20887H7.22621H7.24356H7.2609H7.27824H7.29559H7.31293H7.33027H7.34761H7.36496H7.3823H7.39964H7.41699H7.43433H7.45167H7.46901H7.48636H7.5037H7.52104H7.53838H7.55573H7.57307H7.59041H7.60776H7.6251H7.64244H7.65979H7.67713H7.69447H7.71181H7.72916H7.7465H7.76384H7.78119H7.79853H7.81587H7.83322H7.85056H7.8679H7.88525H7.90259H7.91993H7.93727H7.95462H7.97196H7.9893H8.00665H8.02399H8.04133H8.05868H8.07602H8.09336H8.11071H8.12805H8.14539H8.16274H8.18008H8.19742H8.21477H8.23211H8.24945H8.2668H8.28414H8.30148H8.31883H8.33617H8.35351H8.37086H8.3882H8.40554H8.42289H8.44023H8.45757H8.47492H8.49226H8.5096H8.52695H8.54429H8.56163H8.57898H8.59632H8.61366H8.63101H8.64835H8.66569H8.68304H8.70038H8.71772H8.73507H8.75241H8.76975H8.7871H8.80444H8.82179H8.83913H8.85647H8.87382H8.89116H8.9085H8.92585H8.94319H8.96053H8.97788H8.99522H9.01257H9.02991H9.04725H9.0646H9.08194H9.09928H9.11663H9.13397H9.15131H9.16866H9.186H9.20335H9.22069H9.23803H9.25538H9.27272H9.29006H9.30741H9.32475H9.3421H9.35944H9.37678H9.39413H9.41147H9.42882H9.44616H9.4635H9.48085H9.49819H9.51554H9.53288H9.55022H9.56757H9.58491H9.60226H9.6196H9.63694H9.65429H9.67163H9.68898H9.70632H9.72366H9.74101H9.75835H9.7757H9.79304H9.81038H9.82773H9.84507H9.86242H9.87976H9.89711H9.91445H9.93179H9.94914H9.96648H9.98383H10.0012H10.0185H10.0359H10.0532H10.0705H10.0879H10.1052H10.1226H10.1399H10.1573H10.1746H10.192H10.2093H10.2266H10.244H10.2613H10.2787H10.296H10.3134H10.3307H10.3481H10.3654H10.3827H10.4001H10.4174H10.4348H10.4521H10.4695H10.4868H10.5042H10.5215H10.5388H10.5562H10.5735H10.5909H10.6082H10.6256H10.6429H10.6603H10.6776H10.6949H10.7123H10.7296H10.747H10.7643H10.7817H10.799H10.8164H10.8337H10.851H10.8684H10.8857H10.9031H10.9204H10.9378H10.9551H10.9725H10.9898H11.0071L19.8058 1.58794C20.0582 1.58794 20.2007 1.63446 20.2835 1.71731C20.3664 1.80014 20.4129 1.94245 20.4129 2.19471V2.19623V2.19775V2.19928V2.2008V2.20232V2.20385V2.20537V2.20689V2.20841V2.20994V2.21146V2.21298V2.21451V2.21603V2.21755V2.21908V2.2206V2.22212V2.22365V2.22517V2.22669V2.22822V2.22974V2.23126V2.23279V2.23431V2.23584V2.23736V2.23888V2.24041V2.24193V2.24346V2.24498V2.2465V2.24803V2.24955V2.25108V2.2526V2.25412V2.25565V2.25717V2.2587V2.26022V2.26175V2.26327V2.2648V2.26632V2.26785V2.26937V2.27089V2.27242V2.27394V2.27547V2.27699V2.27852V2.28004V2.28157V2.28309V2.28462V2.28614V2.28767V2.28919V2.29072V2.29225V2.29377V2.2953V2.29682V2.29835V2.29987V2.3014V2.30292V2.30445V2.30597V2.3075V2.30903V2.31055V2.31208V2.3136V2.31513V2.31665V2.31818V2.31971V2.32123V2.32276V2.32428V2.32581V2.32734V2.32886V2.33039V2.33192V2.33344V2.33497V2.33649V2.33802V2.33955V2.34107V2.3426V2.34413V2.34565V2.34718V2.34871V2.35023V2.35176V2.35329V2.35481V2.35634V2.35787V2.35939V2.36092V2.36245V2.36397V2.3655V2.36703V2.36856V2.37008V2.37161V2.37314V2.37466V2.37619V2.37772V2.37925V2.38077V2.3823V2.38383V2.38535V2.38688V2.38841V2.38994V2.39146V2.39299V2.39452V2.39605V2.39757V2.3991V2.40063V2.40216V2.40369V2.40521V2.40674V2.40827V2.4098V2.41132V2.41285V2.41438V2.41591V2.41744V2.41896V2.42049V2.42202V2.42355V2.42508V2.4266V2.42813V2.42966V2.43119V2.43272V2.43425V2.43577V2.4373V2.43883V2.44036V2.44189V2.44342V2.44494V2.44647V2.448V2.44953V2.45106V2.45259V2.45412V2.45564V2.45717V2.4587V2.46023V2.46176V2.46329V2.46482V2.46635V2.46787V2.4694V2.47093V2.47246V2.47399V2.47552V2.47705V2.47858V2.48011V2.48164V2.48316V2.48469V2.48622V2.48775V2.48928V2.49081V2.49234V2.49387V2.4954V2.49693V2.49846V2.49999V2.50151V2.50304V2.50457V2.5061V2.50763V2.50916V2.51069V2.51222V2.51375V2.51528V2.51681V2.51834V2.51987V2.5214V2.52293V2.52446V2.52599V2.52752V2.52905V2.53058V2.53211V2.53364V2.53516V2.53669V2.53822V2.53975V2.54128V2.54281V2.54434V2.54587V2.5474V2.54893V2.55046V2.55199V2.55352V2.55505V2.55658V2.55811V2.55964V2.56117V2.5627V2.56423V2.56576V2.56729V2.56882V2.57035V2.57188V2.57341V2.57494V2.57647V2.578V2.57953V2.58107V2.5826V2.58413V2.58566V2.58719V2.58872V2.59025V2.59178V2.59331V2.59484V2.59637V2.5979V2.59943V2.60096V2.60249V2.60402V2.60555V2.60708V2.60861V2.61014V2.61167V2.6132V2.61473V2.61626V2.61779V2.61933V2.62086V2.62239V2.62392V2.62545V2.62698V2.62851V2.63004V2.63157V2.6331V2.63463V2.63616V2.63769V2.63922V2.64075V2.64228V2.64382V2.64535V2.64688V2.64841V2.64994V2.65147V2.653V2.65453V2.65606V2.65759V2.65912V2.66065V2.66218V2.66372V2.66525V2.66678V2.66831V2.66984V2.67137V2.6729V2.67443V2.67596V2.67749V2.67902V2.68055V2.68209V2.68362V2.68515V2.68668V2.68821V2.68974V2.69127V2.6928V2.69433V2.69586V2.69739V2.69893V2.70046V2.70199V2.70352V2.70505V2.70658V2.70811V2.70964V2.71117V2.7127V2.71424V2.71577V2.7173V2.71883V2.72036V2.72189V2.72342V2.72495V2.72648V2.72801V2.72955V2.73108V2.73261V2.73414V2.73567V2.7372V2.73873V2.74026V2.74179V2.74332V2.74486V2.74639V2.74792V2.74945V2.75098V2.75251V2.75404V2.75557V2.7571V2.75864V2.76017V2.7617V2.76323V2.76476V2.76629V2.76782V2.76935V2.77088V2.77241V2.77395V2.77548V2.77701V2.77854V2.78007V2.7816V2.78313V2.78466V2.78619V2.78772V2.78926V2.79079V2.79232V2.79385V2.79538V2.79691V2.79844V2.79997V2.8015V2.80303V2.80457V2.8061V2.80763V2.80916V2.81069V2.81222V2.81375V2.81528V2.81681V2.81834V2.81988V2.82141V2.82294V2.82447V2.826V2.82753V2.82906V2.83059V2.83212V2.83365V2.83518V2.83671V2.83825V2.83978V2.84131V2.84284V2.84437V2.8459V2.84743V2.84896V2.85049V2.85202V2.85355V2.85508V2.85662V2.85815V2.85968V2.86121V2.86274V2.86427V2.8658V2.86733V2.86886V2.87039V2.87192V2.87345V2.87498V2.87651V2.87805V2.87958V2.88111V2.88264V2.88417V2.8857V2.88723V2.88876V2.89029V2.89182V2.89335V2.89488V2.89641V2.89794V2.89947V2.901V2.90253V2.90406V2.90559V2.90712V2.90866V2.91019V2.91172V2.91325V2.91478V2.91631V2.91784V2.91937V2.9209V2.92243V2.92396V2.92549V2.92702V2.92855V2.93008V2.93161V2.93314V2.93467V2.9362V2.93773V2.93926V2.94079V2.94232V2.94385V2.94538V2.94691V2.94844V2.94997V2.9515V2.95303V2.95456V2.95609V2.95762V2.95915V2.96068V2.96221V2.96374V2.96527V2.9668V2.96833V2.96986V2.97139V2.97292V2.97445V2.97598L20.4129 2.97702C20.4129 2.97714 20.4129 2.97727 20.4129 2.97739C20.4116 3.24171 20.3376 3.46889 20.2063 3.63771C20.0757 3.80564 19.884 3.92159 19.6347 3.95824L19.6344 3.95829M2.12784 1.58834L19.6344 3.95829M19.6344 3.95829C18.9051 4.06803 18.1734 4.16662 17.443 4.19175M19.6344 3.95829L10.8912 4.34455C13.0745 4.3345 15.2581 4.26657 17.443 4.19175M4.55009 5.83148C4.55091 5.83669 4.55174 5.84189 4.55258 5.8471L4.45384 5.86292C4.46218 5.91321 4.59209 5.9836 4.65883 5.97636C4.70546 5.97157 4.7551 5.97874 4.80498 5.98594C4.9225 6.00292 5.04139 6.02009 5.12562 5.88143M4.55009 5.83148C4.55698 5.83764 4.56807 5.8456 4.58255 5.85355C4.59788 5.86197 4.61397 5.8687 4.62797 5.87281C4.63991 5.87631 4.64639 5.87676 4.64794 5.87687C4.6484 5.8769 4.64843 5.8769 4.64804 5.87694L4.6486 5.87688C4.70075 5.87152 4.75244 5.87762 4.79464 5.88346C4.80413 5.88477 4.81313 5.88607 4.82173 5.8873C4.85489 5.89208 4.88221 5.89601 4.90954 5.89699C4.94202 5.89817 4.9648 5.89443 4.98267 5.8863C4.99686 5.87984 5.01368 5.86805 5.03153 5.84271M4.55009 5.83148C4.50958 5.57541 4.48183 5.31771 4.45253 5.04578C4.4466 4.99068 4.4406 4.93501 4.43442 4.87864M4.55009 5.83148L4.43442 4.87864M5.03153 5.84271L5.0317 5.84613C5.03172 5.8467 5.03164 5.84725 5.03146 5.84773L5.12562 5.88143M5.03153 5.84271L5.0313 5.83816L5.03218 5.83023L5.13266 4.91887M5.03153 5.84271L5.13266 4.91887M5.12562 5.88143C5.13022 5.86855 5.13225 5.85488 5.13157 5.8412L5.12562 5.88143ZM5.13266 4.91887L4.43442 4.87864M5.13266 4.91887L4.43442 4.87864M16.8546 4.92041L16.7546 4.92621C16.7632 5.00275 16.7714 5.07847 16.7794 5.15356C16.8037 5.37837 16.8273 5.59747 16.8593 5.81546L16.9999 5.87707C17.0039 5.87755 17.008 5.87802 17.012 5.87848M16.8546 4.92041C16.8631 4.99642 16.8712 5.07128 16.8791 5.14528C16.9033 5.36896 16.9265 5.58483 16.9582 5.80094L16.9583 5.80122C16.9583 5.8012 16.9583 5.80169 16.9586 5.8027L16.9598 5.8068C16.9611 5.81032 16.9629 5.81477 16.9655 5.81998C16.9708 5.83055 16.9782 5.84212 16.9868 5.85292C16.9955 5.86387 17.0038 5.8721 17.0102 5.87715C17.0109 5.87765 17.0115 5.87809 17.012 5.87848M16.8546 4.92041L17.5529 4.87991C17.5473 4.92951 17.5417 4.97874 17.5362 5.02766C17.5039 5.31328 17.4729 5.58815 17.436 5.86217C17.4343 5.86382 17.432 5.86574 17.4293 5.86782C17.4233 5.87246 17.417 5.8762 17.412 5.87855C17.4107 5.87919 17.4096 5.87962 17.4089 5.8799M16.8546 4.92041C16.8509 4.88747 16.8472 4.8543 16.8433 4.8209L17.4089 5.8799M17.012 5.87848C17.1438 5.8934 17.2769 5.89388 17.4089 5.8799M17.012 5.87848L17.4089 5.8799M16.1717 4.95599C16.1788 5.01804 16.1861 5.07879 16.1933 5.13862C16.2161 5.32821 16.2379 5.50854 16.2477 5.69169L16.1717 4.95599ZM17.443 4.19175L17.4464 4.29169L17.443 4.19175C17.443 4.19175 17.443 4.19175 17.443 4.19175ZM17.2571 6.5648C17.5387 6.58826 17.7624 6.5223 17.9178 6.36561C18.0707 6.21138 18.1408 5.98558 18.1534 5.7237C18.1638 5.50401 18.1907 5.28858 18.2181 5.06931C18.2276 4.99379 18.237 4.91781 18.2459 4.84104C18.3126 4.83428 18.3788 4.82788 18.4444 4.82152C18.6459 4.80204 18.8427 4.78299 19.037 4.75513L19.0371 4.75511C19.3251 4.71352 19.6155 4.66557 19.9017 4.59864L19.8789 4.50127L19.9017 4.59864C20.5189 4.45425 21.0363 3.86682 21.0791 3.23081L21.0792 3.23013C21.1052 2.79919 21.1072 2.36711 21.0852 1.93595C21.0641 1.49574 20.8192 1.16782 20.4212 1.00369L20.4212 1.00362L20.4176 1.00231C20.2272 0.932114 20.0255 0.898634 19.8229 0.903614C13.9413 0.901469 8.06101 0.900397 2.18187 0.900397C2.10112 0.900397 2.01953 0.90203 1.93744 0.907017L1.93744 0.907016L1.93693 0.907049C1.37867 0.943848 0.914423 1.42601 0.904782 1.99346L17.2571 6.5648ZM10.7384 5.96969L10.7384 5.96948C10.7104 5.68162 10.682 5.39406 10.6527 5.09619L10.6479 5.04799L11.3406 5.04677C11.3341 5.12546 11.3287 5.20266 11.3235 5.27863C11.3067 5.52266 11.2908 5.75407 11.2375 5.98173L11.2374 5.9821C11.2263 6.03041 11.2103 6.0434 11.2028 6.04803C11.192 6.05476 11.1721 6.0604 11.1324 6.05882C11.1033 6.05766 11.0746 6.05354 11.0405 6.04867C11.026 6.04659 11.0104 6.04437 10.9935 6.04218C10.9433 6.03569 10.8803 6.02962 10.8199 6.04218L10.819 6.04238C10.7829 6.05024 10.7688 6.04194 10.7637 6.03787C10.757 6.0325 10.7428 6.01541 10.7384 5.96969Z" fill="#293880" stroke="#293880" stroke-width="0.2"/>
<path id="Vector_3" d="M5.5205 8.86581L5.60041 8.80568C5.4143 8.55835 5.17943 8.29465 4.77141 8.28593L4.77141 8.28579L4.76609 8.28596C4.39917 8.29763 4.1676 8.55836 3.98439 8.79144M5.5205 8.86581L5.59921 8.80412C5.62733 8.84 5.63506 8.88367 5.63733 8.91418C5.63984 8.94786 5.63691 8.98338 5.63088 9.01628C5.62482 9.04934 5.61498 9.08332 5.60149 9.11389C5.58893 9.14236 5.56909 9.17741 5.53804 9.20274L5.47482 9.12527M5.5205 8.86581C5.56023 8.91649 5.52805 9.08182 5.47482 9.12527M5.5205 8.86581C5.33617 8.62083 5.12681 8.39355 4.76927 8.38591C4.45304 8.39597 4.24726 8.61882 4.06293 8.85334C4.0232 8.90362 4.04783 9.06814 4.09987 9.114L4.60758 8.97401C4.72994 8.85052 4.84197 8.84409 4.96512 8.9712M5.47482 9.12527L5.53817 9.20264C5.48439 9.24667 5.41232 9.26545 5.35097 9.27167C5.28779 9.27807 5.2189 9.27291 5.16134 9.25412C5.099 9.23378 5.04659 9.19308 5.00535 9.15528C4.97461 9.1271 4.94397 9.09451 4.91761 9.06648C4.90888 9.05719 4.90061 9.0484 4.89297 9.04044L4.96512 8.9712M5.47482 9.12527C5.41046 9.17796 5.27618 9.18641 5.19236 9.15906C5.11968 9.13534 5.05357 9.06505 4.99273 9.00036C4.98341 8.99045 4.9742 8.98066 4.96512 8.9712M4.96512 8.9712L4.8933 9.04078C4.84153 8.98735 4.80776 8.97822 4.78802 8.97861C4.76681 8.97903 4.73165 8.99092 4.67878 9.04424C4.67009 9.05309 4.66028 9.06342 4.64974 9.07452C4.62448 9.10114 4.59501 9.13219 4.56653 9.15803C4.52476 9.19594 4.4706 9.23704 4.40428 9.25513C4.34582 9.27108 4.27748 9.27377 4.21491 9.2649C4.15458 9.25636 4.08429 9.23485 4.03303 9.18838C4.0034 9.16196 3.98507 9.12671 3.97363 9.09794C3.9613 9.06691 3.95281 9.03273 3.94802 8.99966C3.94325 8.96672 3.94166 8.93146 3.94518 8.89827C3.94838 8.86811 3.95715 8.82597 3.98439 8.79144M3.98439 8.79144C3.98441 8.79141 3.98444 8.79138 3.98446 8.79134L4.06293 8.85333L3.98431 8.79154C3.98433 8.79151 3.98436 8.79147 3.98439 8.79144Z" fill="#2273EC" stroke="#2273EC" stroke-width="0.2"/>
<path id="Vector_4" d="M17.2102 8.28879L17.2102 8.28924C17.5993 8.30811 17.8339 8.56835 18.0178 8.81676C18.0452 8.85365 18.051 8.89808 18.0521 8.9278C18.0534 8.96118 18.0494 8.9964 18.0424 9.02896C18.0354 9.06169 18.0247 9.09531 18.0106 9.12544C17.9975 9.15341 17.977 9.18802 17.9457 9.21267L17.9453 9.21298L17.9453 9.21298C17.8906 9.2556 17.8186 9.27268 17.7573 9.27754C17.694 9.28255 17.6257 9.2759 17.5686 9.25661C17.5059 9.23544 17.4541 9.19414 17.4136 9.15615C17.3874 9.13159 17.3595 9.10195 17.3352 9.07615C17.3236 9.06377 17.3128 9.05228 17.3034 9.04266L17.3031 9.04235L17.3031 9.04235C17.2546 8.99223 17.2231 8.98391 17.2054 8.9841C17.1866 8.9843 17.1541 8.9944 17.1046 9.04368L17.0341 8.9728M17.2102 8.28879L16.3918 8.812C16.3647 8.84832 16.3582 8.89219 16.3566 8.92197C16.3548 8.95531 16.3583 8.99059 16.3648 9.02333C16.3713 9.05621 16.3816 9.09009 16.3955 9.12055C16.4084 9.14885 16.4287 9.18395 16.4605 9.20899L16.4605 9.20899L16.4612 9.20954C16.5159 9.25197 16.5874 9.26884 16.6484 9.2738C16.7115 9.27894 16.7786 9.27264 16.8352 9.25562C16.9009 9.23589 16.9539 9.19403 16.9948 9.15594C17.0188 9.13362 17.0463 9.1046 17.0701 9.0796C17.0833 9.0657 17.0953 9.05304 17.1048 9.04348L17.0341 8.9728M17.2102 8.28879L17.2007 8.28923C16.8148 8.30718 16.5778 8.56297 16.3919 8.81195L17.2102 8.28879ZM17.0341 8.9728C17.0203 8.98657 17.0065 9.00115 16.9926 9.01588C16.9357 9.07606 16.8763 9.13885 16.8064 9.15985C16.7194 9.186 16.5884 9.18158 16.5224 9.13049L17.9375 8.87626C17.9744 8.92614 17.9375 9.09187 17.8838 9.13411C17.8183 9.1852 17.6852 9.19043 17.6006 9.16186C17.5309 9.13833 17.4698 9.07327 17.4117 9.01149C17.3993 8.9983 17.3871 8.98526 17.3749 8.9728C17.2581 8.85212 17.1505 8.85695 17.0341 8.9728Z" fill="#2273EC" stroke="#2273EC" stroke-width="0.2"/>
<path id="Vector_5" d="M10.5805 9.74635L10.6165 9.83963C10.6828 9.81401 10.738 9.7711 10.7835 9.73034C10.8065 9.70972 10.8287 9.68812 10.8492 9.6682L10.8501 9.6673C10.8707 9.64722 10.8896 9.62887 10.9084 9.61185L10.9087 9.61166C10.9521 9.57225 10.9812 9.56356 10.9992 9.56335C11.0159 9.56316 11.0436 9.57009 11.0852 9.60968C11.101 9.62503 11.1168 9.64145 11.1341 9.6595C11.1359 9.66141 11.1378 9.66333 11.1396 9.66528C11.1587 9.68516 11.1796 9.7068 11.2015 9.72734C11.2442 9.76746 11.2983 9.81096 11.3651 9.83341C11.4242 9.85364 11.4949 9.85687 11.5579 9.84868C11.6194 9.84068 11.6915 9.81938 11.7436 9.77369L11.7436 9.7737L11.7448 9.77268C11.7739 9.74638 11.7923 9.7113 11.804 9.68236C11.8165 9.65146 11.8254 9.61731 11.8306 9.58411C11.8358 9.55106 11.8379 9.5156 11.8348 9.48211C11.832 9.4517 11.8238 9.40932 11.7969 9.37429C11.6149 9.13604 11.3803 8.88519 11.045 8.86494L11.045 8.86482L11.04 8.86476C10.8826 8.86305 10.6837 8.94412 10.5237 9.04235C10.4416 9.09276 10.3644 9.1509 10.3027 9.21154C10.2431 9.27 10.1894 9.33903 10.1674 9.41269C10.1485 9.47356 10.1507 9.54515 10.1627 9.60534C10.1744 9.66393 10.1998 9.73424 10.248 9.78081C10.2973 9.82857 10.3694 9.84958 10.4277 9.85726C10.4881 9.86522 10.5586 9.86217 10.6167 9.83955L10.5805 9.74635ZM10.5805 9.74635C10.505 9.77572 10.3711 9.76083 10.3175 9.70894C10.2639 9.65705 10.238 9.52149 10.2631 9.44184L11.3973 9.73871C11.3256 9.71472 11.2653 9.65187 11.2061 9.59017C11.1889 9.57221 11.1718 9.55435 11.1545 9.53758C11.0481 9.43621 10.948 9.44103 10.8415 9.53758C10.8212 9.5559 10.8011 9.57543 10.781 9.59502C10.7185 9.65586 10.6553 9.71745 10.5805 9.74635Z" fill="#2273EC" stroke="#2273EC" stroke-width="0.2"/>
<path id="Vector_6" d="M4.77278 10.8222L4.77277 10.8222C4.6653 10.8182 4.57822 10.7773 4.5202 10.7027C4.46501 10.6317 4.44543 10.5422 4.44403 10.4564C4.44403 10.4564 4.44403 10.4564 4.44403 10.4564L4.77278 10.8222ZM4.77278 10.8222C4.88498 10.8263 4.979 10.7913 5.04342 10.716C5.10441 10.6446 5.12678 10.5509 5.1302 10.4601C5.13426 10.3524 5.1329 10.2413 5.13157 10.1328C5.13116 10.0996 5.13075 10.0666 5.13051 10.034L5.13306 10.0325M4.77278 10.8222L5.13306 10.0325M5.13306 10.0325V9.97483M5.13306 10.0325V9.97483M5.13306 9.97483C5.13306 9.9236 5.1334 9.8714 5.13375 9.81865C5.13446 9.71112 5.13518 9.60128 5.13304 9.49256C5.13118 9.3984 5.10768 9.30365 5.04968 9.23052C4.98877 9.15371 4.89823 9.11161 4.7883 9.11296C4.68049 9.11429 4.5899 9.15543 4.52818 9.2308C4.46868 9.30346 4.44413 9.39784 4.44402 9.49388L5.13306 9.97483Z" fill="#2273EC" stroke="#2273EC" stroke-width="0.2"/>
<path id="Vector_7" d="M17.5456 10.4674L17.5456 10.4674C17.544 10.5559 17.5222 10.6459 17.4644 10.7159C17.4041 10.7889 17.3157 10.8271 17.2095 10.8294L17.2094 10.8295C17.0978 10.8318 17.005 10.7956 16.9418 10.7195C16.8821 10.6476 16.8606 10.5539 16.8575 10.463C16.8537 10.3546 16.855 10.2436 16.8562 10.1355C16.8568 10.0828 16.8574 10.0308 16.8574 9.98006V9.88006H16.8576C16.8575 9.86493 16.8573 9.84973 16.8572 9.83447C16.8559 9.71651 16.8546 9.59503 16.8603 9.47568L16.9602 9.48045M17.5456 10.4674L17.5456 9.48491C17.5456 9.48488 17.5456 9.48484 17.5456 9.48481M17.5456 10.4674C17.5515 10.1399 17.5515 9.81233 17.5456 9.48481M17.5456 10.4674L17.5456 9.48481M16.9602 9.48045L16.8603 9.47602C16.8643 9.38587 16.8893 9.29635 16.9498 9.2285C17.0126 9.15798 17.102 9.12387 17.2064 9.12543C17.3106 9.12699 17.3993 9.1635 17.4608 9.23487C17.5203 9.30396 17.5442 9.39394 17.5456 9.48481M16.9602 9.48045C16.9546 9.59675 16.9559 9.71344 16.9571 9.83011C16.9573 9.84676 16.9575 9.86341 16.9577 9.88006L16.9602 9.48045ZM17.4457 10.4656C17.4429 10.6152 17.3722 10.7259 17.2073 10.7295L17.4457 10.4656Z" fill="#2273EC" stroke="#2273EC" stroke-width="0.2"/>
<path id="Vector_8" d="M10.9837 11.4095C11.0811 11.4118 11.1713 11.3823 11.2368 11.3152C11.3017 11.2487 11.3308 11.1572 11.3308 11.0577V11.0558V11.0538V11.0519V11.0499V11.048V11.046V11.044V11.0421V11.0401V11.0382V11.0362V11.0343V11.0323V11.0304V11.0284V11.0264V11.0245V11.0225V11.0206V11.0186V11.0167V11.0147V11.0128V11.0108V11.0089V11.0069V11.0049V11.003V11.001V10.9991V10.9971V10.9952V10.9932V10.9913V10.9893V10.9874V10.9854V10.9834V10.9815V10.9795V10.9776V10.9756V10.9737V10.9717V10.9698V10.9678V10.9659V10.9639V10.9619V10.96V10.958V10.9561V10.9541V10.9522V10.9502V10.9483V10.9463V10.9444V10.9424V10.9404V10.9385V10.9365V10.9346V10.9326V10.9307V10.9287V10.9268V10.9248V10.9229V10.9209V10.9189V10.917V10.915V10.9131V10.9111V10.9092V10.9072V10.9053V10.9033V10.9014V10.8994V10.8974V10.8955V10.8935V10.8916V10.8896V10.8877V10.8857V10.8838V10.8818V10.8799V10.8779V10.8759V10.874V10.872V10.8701V10.8681V10.8662V10.8642V10.8623V10.8603V10.8584V10.8564V10.8544V10.8525V10.8505V10.8486V10.8466V10.8447V10.8427V10.8408V10.8388V10.8369V10.8349V10.8329V10.831V10.829V10.8271V10.8251V10.8232V10.8212V10.8193V10.8173V10.8154V10.8134V10.8115V10.8095V10.8075V10.8056V10.8036V10.8017V10.7997V10.7978V10.7958V10.7939V10.7919V10.79V10.788V10.786V10.7841V10.7821V10.7802V10.7782V10.7763V10.7743V10.7724V10.7704V10.7685V10.7665V10.7645V10.7626V10.7606V10.7587V10.7567V10.7548V10.7528V10.7509V10.7489V10.747V10.745V10.7431V10.7411V10.7391V10.7372V10.7352V10.7333V10.7313V10.7294V10.7274V10.7255V10.7235V10.7216V10.7196V10.7176V10.7157V10.7137V10.7118V10.7098V10.7079V10.7059V10.704V10.702V10.7001V10.6981V10.6962V10.6942V10.6922V10.6903V10.6883V10.6864V10.6844V10.6825V10.6805V10.6786V10.6766V10.6747V10.6727V10.6707V10.6688V10.6668V10.6649V10.6629V10.661V10.659V10.6571V10.6551V10.6532V10.6512V10.6493V10.6473V10.6453V10.6434V10.6414V10.6395V10.6375V10.6356V10.6336V10.6317V10.6297V10.6278V10.6258V10.6238V10.6219V10.6199V10.618V10.616V10.6141V10.6121V10.6102V10.6082V10.6063V10.6043V10.6024V10.6004V10.5984V10.5965V10.5945V10.5926V10.5906V10.5887V10.5867V10.5848V10.5828V10.5809V10.5789V10.577V10.575V10.573V10.5711V10.5691V10.5672V10.5652V10.5633V10.5613V10.5594V10.5574V10.5555V10.5535V10.5516V10.5496V10.5476V10.5457V10.5437V10.5418V10.5398V10.5379V10.5359V10.534V10.532V10.5301V10.5281V10.5261V10.5242V10.5222V10.5203V10.5183V10.5164V10.5144V10.5125V10.5105V10.5086V10.5066V10.5047V10.5027V10.5007V10.4988V10.4968V10.4949V10.4929V10.491V10.489V10.4871V10.4851V10.4832V10.4812V10.4793V10.4773V10.4753V10.4734V10.4714V10.4695V10.4675V10.4656V10.4636V10.4617V10.4597V10.4578V10.4558V10.4539V10.4519V10.4499V10.448V10.446V10.4441V10.4421V10.4402V10.4382V10.4363V10.4343V10.4324V10.4304V10.4285V10.4265V10.4246V10.4226V10.4206V10.4187V10.4167V10.4148V10.4128V10.4109V10.4089V10.407V10.405V10.4031V10.4011V10.3992V10.3972V10.3952V10.3933V10.3913V10.3894V10.3874V10.3855V10.3835V10.3816V10.3796V10.3777V10.3757V10.3738V10.3718V10.3698V10.3679V10.3659V10.364V10.362V10.3601V10.3581V10.3562V10.3542V10.3523V10.3503V10.3484V10.3464V10.3445V10.3425V10.3405V10.3386V10.3366V10.3347V10.3327V10.3308V10.3288V10.3269V10.3249V10.323V10.321V10.3191V10.3171V10.3151V10.3132V10.3112V10.3093V10.3073V10.3054V10.3034V10.3015V10.2995V10.2976V10.2956V10.2937V10.2917V10.2898V10.2878V10.2858V10.2839V10.2819V10.28V10.278V10.2761V10.2741V10.2722V10.2702V10.2683V10.2663V10.2644V10.2624V10.2604V10.2585V10.2565V10.2546V10.2526V10.2507V10.2487V10.2468V10.2448V10.2429V10.2409V10.239V10.237V10.2351V10.2331V10.2311V10.2292V10.2272V10.2253V10.2233V10.2214V10.2194V10.2175V10.2155V10.2136V10.2116V10.2097V10.2077V10.2058V10.2038V10.2018V10.1999V10.1979V10.196V10.194V10.1921V10.1901V10.1882V10.1862V10.1843V10.1823V10.1804V10.1784V10.1765V10.1745V10.1725V10.1706V10.1686V10.1667V10.1647V10.1628V10.1608V10.1589V10.1569V10.155V10.153V10.1511V10.1491V10.1472V10.1452V10.1432V10.1413V10.1393V10.1374V10.1354V10.1335V10.1315V10.1296V10.1276V10.1257V10.1237V10.1218V10.1198V10.1179V10.1159V10.1139V10.112V10.11V10.1081V10.1061V10.1042V10.1022V10.1003V10.0983V10.0964V10.0944V10.0925V10.0905V10.0886V10.0866V10.0846V10.0827V10.0807V10.0788V10.0768V10.0749V10.0729V10.071V10.069V10.0671V10.0651V10.0632V10.0612V10.0593V10.0573C11.3308 9.96336 11.3081 9.87203 11.2466 9.80347C11.1833 9.73296 11.0932 9.70217 10.992 9.70267C10.8902 9.70318 10.8008 9.73552 10.7388 9.80723C10.6788 9.87652 10.6573 9.96785 10.6573 10.0609V10.0619L10.6581 11.0617C10.6581 11.0618 10.6581 11.0618 10.6581 11.0618C10.6588 11.1565 10.6864 11.2438 10.7464 11.309C10.8071 11.3748 10.8913 11.4074 10.9837 11.4095ZM10.9837 11.4095L10.9861 11.3095L10.9838 11.4095C10.9838 11.4095 10.9837 11.4095 10.9837 11.4095Z" fill="#2273EC" stroke="#2273EC" stroke-width="0.2"/>
</g>
</g>
<defs>
<clipPath id="clip0_2031_2672">
<rect width="22" height="22" fill="white"/>
</clipPath>
</defs>
</svg>
