<svg width="19" height="19" viewBox="0 0 19 19" fill="none" xmlns="http://www.w3.org/2000/svg">
<g id="import-2">
<path id="Icon" fill-rule="evenodd" clip-rule="evenodd" d="M9.72073 1.823C9.72073 1.51234 9.46889 1.2605 9.15823 1.2605C8.84757 1.2605 8.59573 1.51234 8.59573 1.823V11.715L6.55598 9.67525C6.33631 9.45558 5.98016 9.45558 5.76049 9.67525C5.54082 9.89492 5.54082 10.2511 5.76049 10.4707L8.76049 13.4707C8.86598 13.5762 9.00905 13.6355 9.15823 13.6355C9.30742 13.6355 9.45049 13.5762 9.55598 13.4707L12.556 10.4707C12.7757 10.2511 12.7757 9.89492 12.556 9.67525C12.3363 9.45558 11.9802 9.45558 11.7605 9.67525L9.72073 11.715V1.823ZM5.78323 5.7605L5.67598 5.76048C4.73238 5.76028 4.13095 5.76015 3.62407 5.91391C2.48551 6.2593 1.59452 7.15028 1.24914 8.28885C1.09538 8.79573 1.09551 9.39716 1.09572 10.3408L1.09573 10.448V12.023V12.0478C1.09573 12.8669 1.09573 13.516 1.13847 14.0392C1.18219 14.5743 1.2734 15.027 1.48402 15.4404C1.82557 16.1107 2.37057 16.6557 3.04089 16.9972C3.45427 17.2078 3.90699 17.2991 4.44203 17.3428C4.96525 17.3855 5.61437 17.3855 6.43347 17.3855H6.45823L11.8582 17.3855H11.883C12.7021 17.3855 13.3512 17.3855 13.8744 17.3428C14.4095 17.2991 14.8622 17.2079 15.2756 16.9972C15.9459 16.6557 16.4909 16.1107 16.8324 15.4404C17.0431 15.027 17.1343 14.5743 17.178 14.0392C17.2207 13.516 17.2207 12.8669 17.2207 12.0478V12.0478V12.023V10.448L17.2207 10.3408C17.221 9.39716 17.2211 8.79573 17.0673 8.28885C16.7219 7.15029 15.831 6.2593 14.6924 5.91391C14.1855 5.76015 13.5841 5.76028 12.6405 5.76048L12.5332 5.7605L12.5332 6.323L12.5332 5.7605L12.1582 5.76051C11.8476 5.76052 11.5957 6.01237 11.5957 6.32303C11.5957 6.63369 11.8476 6.88552 12.1583 6.88551L12.5332 6.8855H12.5333C13.6208 6.8855 14.0399 6.89161 14.3658 6.99046C15.1448 7.22678 15.7545 7.83641 15.9908 8.61543C16.0896 8.9413 16.0957 9.36041 16.0957 10.448V12.023C16.0957 12.8724 16.0953 13.4756 16.0567 13.9476C16.0187 14.4131 15.9464 14.7013 15.8301 14.9296C15.5964 15.3883 15.2235 15.7611 14.7648 15.9948C14.5365 16.1112 14.2483 16.1835 13.7828 16.2215C13.3108 16.2601 12.7076 16.2605 11.8582 16.2605L6.45823 16.2605C5.60887 16.2605 5.00568 16.2601 4.53365 16.2215C4.06817 16.1835 3.77999 16.1112 3.55163 15.9948C3.09299 15.7611 2.7201 15.3883 2.48641 14.9296C2.37005 14.7013 2.29777 14.4131 2.25974 13.9476C2.22117 13.4756 2.22073 12.8724 2.22073 12.023L2.22073 10.448C2.22073 9.3604 2.22684 8.9413 2.32569 8.61543C2.56201 7.83641 3.17163 7.22678 3.95065 6.99046C4.27652 6.89161 4.69562 6.8855 5.78321 6.8855H5.78324L6.15821 6.88551C6.46887 6.88552 6.72072 6.63369 6.72073 6.32303C6.72074 6.01237 6.46891 5.76052 6.15825 5.76051L5.78325 5.7605L5.78323 6.323L5.78323 5.7605Z" fill="#293880"/>
</g>
</svg>
