<svg width="31" height="27" viewBox="0 0 31 27" fill="none" xmlns="http://www.w3.org/2000/svg">
<g id="HXd1XM.tif_1_">
<g id="Group">
<path id="Vector" d="M6.85631 0.745117C6.97326 0.866905 7.12528 0.791513 7.26562 0.832109C7.9088 1.01189 8.37073 1.41205 8.74495 1.934C9.30628 2.71692 9.59864 3.61004 9.75066 4.54375C9.98455 6.011 9.92608 7.46666 9.35306 8.85273C9.11332 9.43267 8.96129 9.95462 9.1484 10.5868C9.26535 10.9811 9.12502 11.4103 8.92036 11.7814C8.82096 11.967 8.82096 12.1236 8.87943 12.3208C9.20103 13.4633 9.50508 14.6116 9.80913 15.7599C9.91438 16.16 9.72727 16.4384 9.3706 16.4152C9.13086 16.3978 9.01977 16.247 8.96129 16.0324C8.69232 15.0233 8.41751 14.0142 8.14269 13.0109C8.1193 12.9239 8.14269 12.7731 8.0199 12.7731C7.90296 12.7673 7.87372 12.9007 7.84448 13.0051C7.67492 13.6431 7.4995 14.281 7.32409 14.9189C7.289 15.0407 7.289 15.1567 7.31824 15.2785C7.88542 17.3489 8.44674 19.4193 9.00222 21.4955C9.05485 21.6811 9.10163 21.7043 9.26535 21.6173C9.52847 21.4723 9.82083 21.3737 10.1249 21.3853C10.3588 21.3911 10.3939 21.3157 10.3354 21.1011C10.0547 20.1036 9.79744 19.1061 9.52262 18.1086C9.46415 17.8882 9.4583 17.6911 9.65711 17.5345C9.92608 17.3257 10.2594 17.4649 10.3646 17.8361C10.6921 19.0191 11.0195 20.2022 11.3294 21.3853C11.3762 21.5593 11.458 21.6579 11.6101 21.7565C12.5222 22.3422 12.8964 23.4789 12.5281 24.488C12.1422 25.5435 11.1247 26.1466 9.97285 26.0075C8.97299 25.8915 8.10761 25.0158 7.98482 23.9951C7.92635 23.5079 8.00821 23.0381 8.25379 22.6032C8.31226 22.4988 8.34149 22.4002 8.30641 22.2784C7.81525 20.4864 7.33578 18.6944 6.82708 16.8211C6.6692 17.3953 6.53472 17.8882 6.40023 18.387C6.0494 19.6339 5.71027 20.8924 5.36529 22.1508C5.31266 22.3364 5.32435 22.4872 5.41206 22.6612C5.84475 23.5601 5.7395 24.4184 5.10801 25.1955C4.52914 25.9089 3.51758 26.2104 2.63466 25.9263C1.69326 25.6247 1.11439 24.9636 0.979907 23.9951C0.85127 23.0497 1.22549 22.2784 2.0324 21.7449C2.17273 21.6521 2.25459 21.5535 2.30137 21.3969C3.12582 18.3348 3.95027 15.2727 4.78057 12.2106C4.8215 12.0656 4.8098 11.9612 4.73964 11.8336C4.41804 11.2363 4.37711 10.6042 4.59931 9.96622C4.66362 9.79223 4.64024 9.67045 4.55838 9.51386C4.15492 8.77153 3.94442 7.96541 3.83333 7.13609C3.78655 6.78233 3.93273 6.56195 4.20755 6.52715C4.47652 6.49816 4.65193 6.65474 4.70455 7.00271C4.80396 7.61745 4.92675 8.22639 5.19572 8.80053C5.22495 8.87012 5.21326 8.99771 5.38283 8.90492C6.58734 8.22639 7.15452 8.24379 8.35904 8.96292C8.78003 8.064 8.9496 7.12449 8.96714 6.14439C8.98468 5.0135 8.81511 3.92321 8.30641 2.90251C8.02575 2.34576 7.68661 1.9862 7.26562 1.79481C7.26562 2.22397 7.26562 2.64733 7.26562 3.06489C7.26562 3.92321 7.27146 4.78152 7.26562 5.63984C7.26562 5.91821 7.07266 6.11539 6.82708 6.12119C6.58734 6.12699 6.40023 5.92981 6.38269 5.65144C6.37684 5.57605 6.38269 5.49485 6.38269 5.41946C6.38269 4.31177 6.38269 3.20408 6.38269 2.09639C6.38269 2.00359 6.38269 1.9108 6.38269 1.77742C6.10788 1.8992 5.92077 2.07319 5.75705 2.27037C5.17818 2.9779 4.9209 3.81882 4.76887 4.69453C4.74548 4.82792 4.73379 4.96131 4.7104 5.09469C4.65778 5.32667 4.45313 5.47166 4.21339 5.43686C3.96781 5.40206 3.81578 5.25128 3.84502 5.0019C3.99705 3.61584 4.38296 2.32836 5.4413 1.33086C5.78043 1.01189 6.21312 0.890103 6.63997 0.750917C6.70429 0.745117 6.7803 0.745117 6.85631 0.745117ZM4.56422 21.7101C4.87412 20.5618 5.18402 19.4251 5.48808 18.2884C5.93831 16.6356 6.38269 14.9769 6.83292 13.3241C6.8797 13.1559 6.8914 13.0573 6.66336 13.0631C6.33592 13.0747 6.03186 12.9761 5.74535 12.8195C5.58748 12.7325 5.54655 12.7615 5.49977 12.9355C5.22495 13.9736 4.93844 15.0059 4.65778 16.044C4.19585 17.7433 3.73977 19.4483 3.28369 21.1533C3.25446 21.2635 3.1726 21.3795 3.38894 21.3737C3.81578 21.3621 4.19585 21.5071 4.56422 21.7101ZM4.76887 23.6993C4.76887 22.8932 4.13153 22.2494 3.32462 22.2436C2.50602 22.2436 1.83944 22.899 1.84529 23.7051C1.85114 24.5054 2.50602 25.1433 3.31293 25.1433C4.13153 25.1375 4.76887 24.5112 4.76887 23.6993ZM8.26548 10.7665C8.27133 9.96042 7.62814 9.30508 6.83292 9.29928C6.01432 9.29348 5.3419 9.94302 5.3419 10.7491C5.3419 11.5495 5.99093 12.1932 6.79784 12.1932C7.62229 12.1932 8.26548 11.5727 8.26548 10.7665ZM11.7679 23.7109C11.7738 22.9222 11.1247 22.2552 10.3646 22.2494C9.51678 22.2436 8.84435 22.8874 8.84435 23.6993C8.84435 24.5054 9.48169 25.1317 10.3061 25.1433C11.1131 25.1491 11.7621 24.517 11.7679 23.7109Z" fill="#293881"/>
<path id="Vector_2" d="M30.8239 24.5634C30.7304 24.633 30.7421 24.749 30.707 24.8418C30.3737 25.6653 29.52 26.1409 28.6195 26.0017C27.8009 25.8741 27.1402 25.1318 27.0876 24.2793C27.0817 24.1459 27.0759 24.0125 27.0759 23.8733C27.0759 19.8659 27.0759 15.8585 27.0759 11.8511C27.0759 11.6423 27.0233 11.4683 26.9122 11.2885C25.5732 9.11955 25.4153 6.85777 26.3976 4.5148C26.4678 4.34081 26.5555 4.18423 26.7601 4.13783C26.9297 4.09724 27.07 4.14943 27.1811 4.26542C27.3215 4.41041 27.339 4.58439 27.2571 4.76997C26.9882 5.35571 26.8011 5.96465 26.7192 6.61419C26.5262 8.19164 26.8595 9.64729 27.7542 10.9696C27.9003 11.1841 27.9588 11.3871 27.9588 11.6423C27.953 15.8063 27.953 19.9645 27.9588 24.1285C27.9588 24.865 28.6488 25.3522 29.3153 25.0796C29.7013 24.923 29.8942 24.6156 29.941 24.2097C29.9468 24.1459 29.9468 24.0763 29.9468 24.0067C29.9468 16.7342 29.9468 9.46171 29.9468 2.18922C29.9468 2.11963 29.9468 2.05584 29.9468 1.95145C29.6428 2.07903 29.4031 2.25882 29.1575 2.4386C28.871 2.65318 28.6078 2.89675 28.3623 3.15773C28.1167 3.4129 27.8536 3.4419 27.6548 3.25052C27.4501 3.05334 27.4676 2.82716 27.7074 2.56619C28.4441 1.78326 29.2978 1.18592 30.2977 0.791558C30.5433 0.768361 30.7128 0.87855 30.8239 1.09313C30.8239 8.91657 30.8239 16.74 30.8239 24.5634Z" fill="#293881"/>
<path id="Vector_3" d="M18.7259 16.885C19.4568 16.885 20.1818 16.8792 20.9127 16.8908C21.094 16.8908 21.1525 16.8386 21.1349 16.6646C21.1115 16.4152 21.2402 16.0962 21.0882 15.9396C20.9361 15.7831 20.6087 15.9048 20.3631 15.8933C20.2871 15.8875 20.2052 15.899 20.1292 15.8875C19.8895 15.8585 19.7199 15.6671 19.7258 15.4409C19.7316 15.2031 19.8895 15.0349 20.1468 15.0175C20.3982 15.0059 20.6496 15.0059 20.9069 15.0117C21.0765 15.0175 21.1525 14.9827 21.1408 14.7914C21.1232 14.5304 21.1291 14.2694 21.1408 14.0142C21.1466 13.8634 21.0998 13.8113 20.942 13.8171C20.6905 13.8287 20.4391 13.8229 20.1818 13.8171C19.8895 13.8113 19.7141 13.6315 19.7199 13.3705C19.7258 13.1327 19.907 12.9529 20.176 12.9471C20.4274 12.9413 20.6788 12.9355 20.9361 12.9471C21.0823 12.9529 21.1466 12.9181 21.1349 12.7558C21.1232 12.4948 21.1232 12.2338 21.1349 11.9786C21.1466 11.8046 21.0765 11.7641 20.9186 11.7757C20.6847 11.7873 20.4508 11.7873 20.2169 11.7757C19.907 11.7641 19.7199 11.5843 19.7199 11.3233C19.7199 11.0623 19.907 10.8883 20.2228 10.8767C20.4625 10.8709 20.7081 10.8709 20.9537 10.8767C21.094 10.8825 21.1408 10.8361 21.1349 10.697C21.1232 10.4302 21.1232 10.1576 21.1349 9.89084C21.1408 9.72845 21.0706 9.69945 20.9303 9.70525C20.6788 9.71685 20.4274 9.71105 20.1701 9.70525C19.9012 9.69945 19.7199 9.51967 19.7141 9.2761C19.7082 9.02672 19.8778 8.84694 20.1468 8.83534C20.4099 8.82374 20.673 8.82374 20.9361 8.83534C21.094 8.84114 21.1291 8.78314 21.1291 8.63816C21.1291 8.13941 20.8543 7.82624 20.3573 7.82044C19.2521 7.80884 18.1412 7.80884 17.0361 7.82044C16.5507 7.82624 16.2818 8.09881 16.2818 8.58016C16.2759 9.42688 16.2818 10.2736 16.2818 11.1203C16.2818 11.1957 16.2876 11.2769 16.2818 11.3523C16.2525 11.6423 16.0771 11.8162 15.8257 11.8104C15.5743 11.8046 15.393 11.6191 15.3872 11.3349C15.3755 10.8999 15.3755 10.4708 15.3872 10.0358C15.4047 9.43268 15.3228 8.82374 15.4339 8.2206C15.5626 7.49567 16.1707 6.97372 16.9133 6.94472C17.1004 6.93892 17.1413 6.88673 17.1296 6.71275C17.1179 6.38798 17.1238 6.05741 17.1238 5.73264C17.1296 5.39627 17.2758 5.25129 17.6208 5.22809C17.6325 5.22809 17.6383 5.22809 17.65 5.22809C18.2581 5.20489 18.2581 5.20489 18.2581 4.60755C18.2581 3.55785 18.2581 2.50816 18.2581 1.45846C18.2581 1.34247 18.264 1.22648 18.2874 1.11629C18.3283 0.924911 18.4569 0.820521 18.6499 0.797323C18.8545 0.774126 19.0066 0.855318 19.106 1.0409C19.1703 1.15689 19.1586 1.28448 19.1586 1.40626C19.1586 2.58935 19.1644 3.77823 19.1527 4.96132C19.1527 5.1643 19.182 5.23969 19.4159 5.23969C20.2754 5.22809 20.3046 5.26869 20.3046 6.10961C20.3046 6.32998 20.3105 6.55036 20.3046 6.77654C20.2988 6.89833 20.3397 6.93312 20.4684 6.94472C21.4565 7.03751 22.0237 7.65805 22.0237 8.63816C22.0237 11.2885 22.0295 13.933 22.0179 16.5834C22.0179 16.8038 22.0529 16.885 22.2927 16.9139C22.9826 17.0009 23.4504 17.5287 23.4621 18.1782C23.4796 18.7698 23.047 19.3265 22.4447 19.4541C22.0471 19.5353 21.6319 19.4715 21.2226 19.4831C20.9712 19.4889 20.6438 19.4019 20.4917 19.5295C20.3339 19.6629 20.445 19.9992 20.445 20.2428C20.4391 21.2171 20.445 22.1856 20.4391 23.1599C20.4391 23.3513 20.4567 23.4441 20.6905 23.4615C21.3864 23.5195 21.8951 24.0994 21.8775 24.7548C21.86 25.4275 21.3396 26.0017 20.6496 26.0133C19.3457 26.0365 18.0476 26.0365 16.7437 26.0133C16.0596 26.0017 15.5509 25.4391 15.5392 24.7722C15.5275 24.0763 15.9953 23.5253 16.6969 23.4557C16.9074 23.4325 16.9659 23.3745 16.9659 23.1599C16.9542 22.0117 16.9542 20.8692 16.9659 19.7209C16.9659 19.5237 16.925 19.4599 16.7145 19.4657C16.2175 19.4831 15.7263 19.4715 15.2293 19.4715C14.5919 19.4657 14.0365 18.9727 13.9721 18.3696C13.902 17.6621 14.3113 17.0647 14.9779 16.9255C15.3813 16.8386 15.3813 16.8386 15.3813 16.4152C15.3813 15.4409 15.3813 14.4724 15.3813 13.4981C15.3813 13.3705 15.3755 13.2429 15.4398 13.1327C15.5333 12.9703 15.6795 12.8717 15.8725 12.8949C16.0537 12.9181 16.2058 13.0109 16.2467 13.2081C16.2701 13.3183 16.2818 13.4343 16.2818 13.5503C16.2818 14.5594 16.2935 15.5743 16.2759 16.5834C16.2701 16.8502 16.3578 16.8966 16.5975 16.8908C17.3109 16.8734 18.0184 16.885 18.7259 16.885ZM17.8664 21.4433C17.8664 22.0407 17.8722 22.638 17.8664 23.2353C17.8664 23.3803 17.8956 23.4383 18.0593 23.4383C18.4979 23.4267 18.9305 23.4267 19.3691 23.4383C19.527 23.4441 19.562 23.3745 19.562 23.2353C19.5562 22.0407 19.5562 20.846 19.562 19.6571C19.562 19.5179 19.5153 19.4773 19.3808 19.4773C18.9539 19.4831 18.5271 19.4947 18.1002 19.4773C17.8956 19.4715 17.8664 19.5469 17.8664 19.7209C17.8722 20.2892 17.8664 20.8692 17.8664 21.4433ZM18.7084 17.7897C17.5798 17.7897 16.4572 17.7897 15.3287 17.7897C15.0246 17.7897 14.8551 17.9231 14.8434 18.1666C14.8258 18.4334 15.0305 18.6074 15.3696 18.6074C17.5915 18.6074 19.8193 18.6074 22.0412 18.6074C22.3745 18.6074 22.5499 18.4508 22.5499 18.184C22.5499 17.9115 22.3921 17.7897 22.0295 17.7897C20.9244 17.7839 19.8193 17.7897 18.7084 17.7897ZM18.6908 24.3256C18.1002 24.3256 17.5097 24.3256 16.9191 24.3256C16.6151 24.3256 16.4221 24.4822 16.4221 24.7258C16.4163 24.9694 16.6151 25.1375 16.9074 25.1375C18.1002 25.1375 19.2931 25.1375 20.4859 25.1375C20.8016 25.1375 20.9712 24.9926 20.9771 24.7316C20.9771 24.4706 20.8133 24.3198 20.4976 24.3198C19.8953 24.3256 19.2931 24.3256 18.6908 24.3256ZM18.6733 6.93312C18.8662 6.93312 19.0592 6.92733 19.2521 6.93312C19.486 6.93892 19.4042 6.75914 19.3866 6.67215C19.3457 6.48657 19.5562 6.185 19.2521 6.1328C18.8955 6.06901 18.5154 6.1212 18.147 6.1154C18.0125 6.1096 17.9892 6.1618 17.9833 6.27779C17.9482 6.93312 17.9482 6.93312 18.6089 6.93312C18.6382 6.93312 18.6557 6.93312 18.6733 6.93312Z" fill="#2273EC"/>
</g>
</g>
</svg>
