<svg width="17" height="18" viewBox="0 0 17 18" fill="none" xmlns="http://www.w3.org/2000/svg">
<g id="Timer">
<path id="Union" fill-rule="evenodd" clip-rule="evenodd" d="M11.2017 3.49812C10.5909 3.42216 9.72939 3.42119 8.51453 3.42119H6.71954C6.27964 3.42119 5.96826 3.42133 5.73605 3.43242C5.49414 3.44397 5.39852 3.46605 5.36244 3.48024C4.91375 3.65668 4.70104 4.17021 4.89355 4.61224C4.90903 4.64778 4.96103 4.73101 5.12392 4.91023C5.28028 5.08227 5.50036 5.30255 5.81141 5.6136L7.34353 7.14573C7.54298 7.34517 7.54298 7.66853 7.34353 7.86797C7.14409 8.06742 6.82073 8.06742 6.62128 7.86797L5.08916 6.33585L5.07921 6.3259C4.78035 6.02704 4.54282 5.78951 4.36805 5.59721C4.19786 5.40996 4.04468 5.22121 3.95709 5.02008C3.53357 4.04761 4.00153 2.91784 4.98865 2.52968C5.1928 2.4494 5.43459 2.42424 5.68733 2.41217C5.94688 2.39978 6.28279 2.39978 6.70543 2.39978H6.71954H8.51453L8.55379 2.39978C9.72071 2.39977 10.6463 2.39976 11.3278 2.48451C11.9966 2.56768 12.6164 2.75055 12.9486 3.28886C13.054 3.45949 13.1312 3.64592 13.1774 3.84103C13.3231 4.45661 13.0141 5.0242 12.6 5.55593C12.178 6.09775 11.5236 6.7522 10.6984 7.57732L10.6706 7.6051L7.08066 11.1951C6.22163 12.0541 5.6131 12.664 5.23492 13.1496C4.84415 13.6514 4.81633 13.8778 4.84564 14.0016C4.86663 14.0903 4.90173 14.1751 4.9496 14.2526C5.01644 14.3609 5.19622 14.5013 5.82733 14.5798C6.43812 14.6558 7.29967 14.6567 8.51453 14.6567H10.3095C10.7494 14.6567 11.0608 14.6566 11.293 14.6455C11.5349 14.634 11.6305 14.6119 11.6666 14.5977C12.1153 14.4213 12.328 13.9077 12.1355 13.4657C12.12 13.4302 12.068 13.3469 11.9051 13.1677C11.7488 12.9957 11.5287 12.7754 11.2176 12.4643L9.68552 10.9322C9.48608 10.7328 9.48608 10.4094 9.68552 10.21C9.88497 10.0105 10.2083 10.0105 10.4078 10.21L11.9399 11.7421L11.9498 11.752C12.2487 12.0509 12.4862 12.2884 12.661 12.4807C12.8312 12.668 12.9844 12.8567 13.072 13.0579C13.4955 14.0303 13.0275 15.1601 12.0404 15.5483C11.8363 15.6285 11.5945 15.6537 11.3417 15.6658C11.0822 15.6782 10.7463 15.6782 10.3236 15.6782H10.3095H8.51453H8.47528C7.30836 15.6782 6.38279 15.6782 5.70129 15.5934C5.03248 15.5103 4.41265 15.3274 4.08041 14.7891C3.9751 14.6185 3.89788 14.432 3.85169 14.2369C3.70598 13.6213 4.01496 13.0537 4.42906 12.522C4.85103 11.9802 5.5055 11.3257 6.33064 10.5006L6.35841 10.4728L9.9484 6.88285C10.8074 6.02382 11.416 5.41393 11.7941 4.92833C12.1849 4.42657 12.2127 4.20014 12.1834 4.07631C12.1624 3.98762 12.1273 3.90288 12.0795 3.82532C12.0126 3.71703 11.8328 3.5766 11.2017 3.49812Z" fill="white"/>
</g>
</svg>
