<svg width="16" height="16" viewBox="0 0 16 16" fill="none" xmlns="http://www.w3.org/2000/svg">
<g id="Eye">
<path id="Icon" fill-rule="evenodd" clip-rule="evenodd" d="M2.09375 7.73657C2.09375 7.5318 2.17645 7.183 2.39854 6.7566C2.61595 6.33916 2.95171 5.87747 3.41726 5.44772C4.3424 4.59376 5.78446 3.86157 7.84375 3.86157C9.90304 3.86157 11.3451 4.59376 12.2702 5.44772C12.7358 5.87747 13.0715 6.33916 13.289 6.7566C13.511 7.183 13.5938 7.5318 13.5938 7.73657C13.5938 7.94135 13.511 8.29014 13.289 8.71654C13.0715 9.13398 12.7358 9.59567 12.2702 10.0254C11.3451 10.8794 9.90304 11.6116 7.84375 11.6116C5.78446 11.6116 4.3424 10.8794 3.41726 10.0254C2.95171 9.59567 2.61595 9.13398 2.39854 8.71654C2.17645 8.29014 2.09375 7.94135 2.09375 7.73657ZM7.84375 2.86157C5.52804 2.86157 3.8451 3.69189 2.73898 4.71292C2.18892 5.22067 1.78248 5.77461 1.51162 6.29467C1.24542 6.80577 1.09375 7.31635 1.09375 7.73657C1.09375 8.1568 1.24542 8.66738 1.51162 9.17848C1.78248 9.69853 2.18892 10.2525 2.73898 10.7602C3.8451 11.7813 5.52804 12.6116 7.84375 12.6116C10.1595 12.6116 11.8424 11.7813 12.9485 10.7602C13.4986 10.2525 13.905 9.69853 14.1759 9.17848C14.4421 8.66738 14.5938 8.1568 14.5938 7.73657C14.5938 7.31635 14.4421 6.80577 14.1759 6.29467C13.905 5.77461 13.4986 5.22067 12.9485 4.71292C11.8424 3.69189 10.1595 2.86157 7.84375 2.86157ZM6.46869 7.73659C6.46869 6.9772 7.0843 6.36159 7.84369 6.36159C8.60308 6.36159 9.21869 6.9772 9.21869 7.73659C9.21869 8.49598 8.60308 9.11159 7.84369 9.11159C7.0843 9.11159 6.46869 8.49598 6.46869 7.73659ZM7.84369 5.36159C6.53201 5.36159 5.46869 6.42491 5.46869 7.73659C5.46869 9.04826 6.53201 10.1116 7.84369 10.1116C9.15536 10.1116 10.2187 9.04826 10.2187 7.73659C10.2187 6.42491 9.15536 5.36159 7.84369 5.36159Z" fill="#2273EC"/>
</g>
</svg>
