<svg width="21" height="21" viewBox="0 0 21 21" fill="none" xmlns="http://www.w3.org/2000/svg">
<g id="Layer_1" clip-path="url(#clip0_2031_2662)">
<g id="6CnegT.tif">
<path id="Vector" d="M0 18.253C0.0990082 18.1079 0.231293 18.0512 0.410822 18.0405C1.47239 17.976 2.22501 17.2005 2.2928 16.1109C2.30184 15.9613 2.34292 15.8257 2.48999 15.7875C2.59023 15.7612 2.72991 15.769 2.81167 15.8228C2.88644 15.8718 2.93902 16.0004 2.94642 16.0982C3.03392 17.2379 3.75738 17.9632 4.9044 18.0479C5.11884 18.0639 5.2462 18.186 5.2462 18.3767C5.2462 18.5674 5.11843 18.689 4.90357 18.7055C3.75697 18.7877 3.03187 19.5139 2.95135 20.6556C2.93615 20.8718 2.81619 20.9996 2.62639 21.0012C2.4296 21.0012 2.30964 20.8734 2.29444 20.6416C2.23323 19.7013 1.6856 19.008 0.815482 18.7753C0.684039 18.7362 0.547934 18.7149 0.410822 18.7121C0.329633 18.7162 0.248812 18.6986 0.176629 18.6612C0.104446 18.6238 0.0434906 18.5679 0 18.4992L0 18.253ZM1.70163 18.3763L2.64652 19.3236C2.77428 19.1691 2.90903 18.9784 3.07172 18.816C3.2344 18.6537 3.42297 18.5214 3.57005 18.4009L2.62515 17.4557L1.70163 18.3763Z" fill="#293880"/>
<path id="Vector_2" d="M19.148 0C19.2922 0.0994579 19.3473 0.231794 19.3612 0.410983C19.4146 1.10513 19.9236 1.58516 20.6385 1.63941C20.9355 1.66202 21.1011 1.93285 20.9326 2.14533C20.8564 2.2283 20.7522 2.28012 20.6401 2.29082C19.8974 2.35781 19.4077 2.83989 19.3534 3.58336C19.3366 3.8057 19.2236 3.93064 19.0346 3.93557C18.8354 3.94092 18.7142 3.81474 18.6965 3.58295C18.6394 2.83866 18.153 2.35329 17.4086 2.29616C17.1872 2.27931 17.0627 2.16588 17.0582 1.97642C17.0536 1.77668 17.1789 1.65708 17.4119 1.63941C18.1267 1.58598 18.6333 1.10965 18.6883 0.410983C18.7027 0.231794 18.7569 0.0986359 18.9019 0H19.148ZM19.0248 2.4248L19.4828 1.96779L19.0244 1.52064L18.5638 1.97272L19.0248 2.4248Z" fill="#293880"/>
<path id="Vector_3" d="M2.62556 4.47026C2.62556 4.42917 2.62556 4.38807 2.62556 4.34697C2.62556 4.03791 2.76483 3.91544 3.07048 3.94256C3.60044 3.98982 4.12999 4.05065 4.66118 4.06586C6.02224 4.10695 7.35946 3.96928 8.63383 3.44609C9.21865 3.2128 9.75395 2.87072 10.2114 2.43795C10.4168 2.2415 10.5672 2.23493 10.7639 2.42275C11.6468 3.26444 12.7314 3.67871 13.9034 3.89407C15.2308 4.14066 16.5648 4.12997 17.8991 3.94585C18.2253 3.90434 18.3806 4.03257 18.3637 4.36464C18.304 5.62612 18.156 6.88187 17.9209 8.12267C17.623 9.70783 17.2225 11.263 16.6013 12.7544C15.9707 14.2673 15.161 15.6659 13.9721 16.8162C13.0305 17.7257 11.9393 18.3718 10.6575 18.6734C10.5524 18.6975 10.4431 18.6975 10.3379 18.6734C8.56605 18.2476 7.20417 17.212 6.10892 15.7937C5.01367 14.3754 4.29843 12.7524 3.7775 11.0448C3.29452 9.47316 2.96258 7.85904 2.78619 6.22434C2.72416 5.64033 2.67034 5.05509 2.61241 4.47191L2.62556 4.47026ZM10.4386 3.13005C9.94826 3.54265 9.39297 3.8711 8.79529 4.10202C7.33974 4.67699 5.82011 4.8085 4.27254 4.73206C3.96114 4.71685 3.65015 4.69096 3.31861 4.66548C3.31861 4.73535 3.3141 4.78878 3.31861 4.84097C3.35641 5.23469 3.39256 5.62924 3.43529 6.02255C3.60895 7.66447 3.94065 9.28578 4.42578 10.8639C4.92205 12.4627 5.57362 13.9874 6.59122 15.3338C7.51804 16.556 8.65684 17.4869 10.1473 17.9374C10.3289 17.992 10.501 18.0401 10.7031 17.9834C11.9282 17.6394 12.9446 16.9674 13.8053 16.0452C14.8804 14.8944 15.5977 13.5263 16.1523 12.0685C17.0253 9.77564 17.4587 7.38619 17.6699 4.9507C17.6777 4.85864 17.6699 4.76535 17.6699 4.71603C16.78 4.71603 15.9132 4.74316 15.0488 4.70905C14.009 4.66836 12.9869 4.4678 12.0371 4.02764C11.4964 3.7757 10.994 3.44527 10.4386 3.13005Z" fill="#2273EC"/>
<path id="Vector_4" d="M19.6784 16.7398C19.6759 16.9358 19.551 17.0468 19.3119 17.0644C18.7257 17.108 18.2738 17.4495 18.1086 17.985C18.074 18.1094 18.0514 18.2369 18.0413 18.3656C18.0178 18.5797 17.8983 18.7055 17.7068 18.703C17.5249 18.7005 17.4024 18.5773 17.3839 18.3771C17.3104 17.5745 16.8778 17.1442 16.0615 17.062C15.8651 17.0422 15.7427 16.9136 15.7448 16.7299C15.7468 16.5462 15.8701 16.4249 16.0701 16.4069C16.8725 16.3341 17.3026 15.9009 17.3848 15.0839C17.4045 14.887 17.5327 14.765 17.7163 14.767C17.8999 14.7691 18.0215 14.8928 18.0396 15.0925C18.1127 15.8948 18.5466 16.3255 19.362 16.4077C19.5592 16.4278 19.6817 16.556 19.6784 16.7398ZM17.2599 16.734L17.6953 17.1906L18.1596 16.7311L17.7147 16.2823L17.2599 16.734Z" fill="#293880"/>
<path id="Vector_5" d="M4.58436 1.64393C4.61887 1.37186 4.49562 0.991699 4.9274 0.997042C5.34397 1.00238 5.22154 1.37186 5.25605 1.63201C5.51775 1.67311 5.91337 1.54324 5.89324 1.99285C5.87475 2.38904 5.5198 2.27438 5.25852 2.3015C5.21456 2.5596 5.34726 2.93072 4.90069 2.94716C4.67392 2.95538 4.6164 2.82797 4.58066 2.29493C4.47755 2.29493 4.37114 2.29863 4.26515 2.29493C4.06919 2.2863 3.94019 2.15848 3.93649 1.976C3.93362 1.78407 4.06713 1.65051 4.27255 1.64393C4.37196 1.63818 4.47303 1.64393 4.58436 1.64393Z" fill="#293880"/>
<path id="Vector_6" d="M2.6383 11.1639C2.58818 11.706 2.53066 11.8096 2.3006 11.8121C2.06109 11.8121 1.99372 11.6888 1.95962 11.1545C1.8565 11.1545 1.7501 11.1582 1.64411 11.1545C1.44815 11.1459 1.31874 11.0189 1.31545 10.836C1.31093 10.6436 1.4424 10.5097 1.64863 10.5014C1.74969 10.4973 1.85034 10.5014 1.9625 10.5014C1.99742 10.2306 1.87335 9.85003 2.3043 9.85496C2.72046 9.85989 2.60174 10.2277 2.63296 10.4883C2.89465 10.5331 3.29027 10.4012 3.27179 10.8504C3.25248 11.249 2.89547 11.1323 2.6383 11.1639Z" fill="#293880"/>
<path id="Vector_7" d="M5.16732 5.38387C6.43799 5.37853 7.68853 5.22359 8.87787 4.75671C9.35072 4.57054 9.79852 4.31655 10.2475 4.07448C10.425 3.97872 10.5688 3.96352 10.7405 4.07448C11.9689 4.86727 13.3394 5.22071 14.7777 5.33579C15.3549 5.38182 15.9366 5.37442 16.5167 5.38346C16.8265 5.3884 16.9628 5.5121 16.9329 5.82075C16.7963 7.1851 16.549 8.53608 16.1934 9.8603C15.7735 11.4434 15.2107 12.9686 14.3188 14.3536C13.5612 15.5302 12.6044 16.4812 11.3169 17.0883C10.7516 17.3546 10.2508 17.3554 9.68677 17.0883C8.4806 16.5203 7.55707 15.6498 6.81759 14.5619C5.9298 13.2558 5.35958 11.8063 4.92781 10.2988C4.52473 8.88105 4.23798 7.43273 4.07042 5.96829C4.06262 5.90048 4.05851 5.83226 4.05687 5.7628C4.0507 5.51621 4.18011 5.38429 4.42989 5.381C4.67967 5.37771 4.92165 5.38387 5.16732 5.38387ZM4.76553 6.06816C4.76063 6.09404 4.75816 6.12032 4.75814 6.14666C4.94958 7.63688 5.24127 9.10574 5.6903 10.5442C6.10728 11.8786 6.63519 13.1609 7.44697 14.3108C8.17454 15.3436 9.07383 16.1697 10.2849 16.6C10.4241 16.6448 10.5738 16.6448 10.713 16.6C11.3329 16.3816 11.9037 16.0432 12.3929 15.6042C13.4162 14.7058 14.0965 13.5698 14.6376 12.3402C15.3167 10.7961 15.7283 9.17314 16.0274 7.51934C16.1133 7.04507 16.1728 6.56627 16.2472 6.07104C14.2062 6.0583 12.2519 5.77883 10.4957 4.71192C8.72134 5.77883 6.77363 6.05706 4.76553 6.06816Z" fill="#2273EC"/>
<path id="Vector_8" d="M11.8078 9.18875C12.2446 9.18875 12.6476 9.18875 13.0502 9.18875C13.3377 9.18875 13.447 9.29931 13.4474 9.58371C13.4474 10.1988 13.4474 10.8139 13.4474 11.429C13.4474 11.6982 13.3312 11.8104 13.058 11.8116C12.6472 11.8116 12.2409 11.8116 11.8078 11.8116C11.8078 12.0365 11.8078 12.2456 11.8078 12.4552C11.8103 13.5481 11.9015 13.4543 10.8022 13.4523C10.3991 13.4523 9.99571 13.4523 9.59269 13.4523C9.29402 13.4523 9.18639 13.3442 9.18557 13.0467C9.18557 12.6443 9.18557 12.2419 9.18557 11.8116H8.03526C7.62444 11.8116 7.54639 11.7332 7.54639 11.3234C7.54639 10.748 7.54639 10.1739 7.54639 9.60097C7.54639 9.29109 7.65156 9.18999 7.96666 9.18999C8.36269 9.18999 8.75831 9.18999 9.18598 9.18999V8.86408C9.18598 8.5431 9.18351 8.22171 9.18598 7.90073C9.18844 7.6862 9.30265 7.55345 9.50313 7.55181C10.1657 7.5466 10.8283 7.5466 11.4911 7.55181C11.6908 7.55386 11.8041 7.68743 11.8066 7.9032C11.8099 8.2587 11.8066 8.6142 11.8066 8.96929L11.8078 9.18875ZM12.7856 9.84345C12.3489 9.84345 11.9327 9.84551 11.517 9.84345C11.273 9.84345 11.1583 9.72303 11.1538 9.47685C11.1538 9.39466 11.1538 9.31246 11.1538 9.23026V8.21966H9.83919C9.83919 8.64544 9.83919 9.05519 9.83919 9.46494C9.83919 9.72427 9.72251 9.84057 9.46698 9.84345C9.22788 9.84592 8.98878 9.84345 8.74968 9.84345H8.21069V11.1586C8.62151 11.1586 9.02411 11.1586 9.42508 11.1586C9.73607 11.1586 9.83919 11.2638 9.8396 11.5778C9.8396 11.9789 9.8396 12.3796 9.8396 12.7865H11.1542C11.1542 12.3788 11.1542 11.9839 11.1542 11.5885C11.1542 11.2597 11.2541 11.159 11.5778 11.1586H12.7864L12.7856 9.84345Z" fill="#293880"/>
</g>
</g>
<defs>
<clipPath id="clip0_2031_2662">
<rect width="21" height="21" fill="white"/>
</clipPath>
</defs>
</svg>
