<svg width="18" height="18" viewBox="0 0 18 18" fill="none" xmlns="http://www.w3.org/2000/svg">
<g id="Frame">
<path id="Vector" d="M9.00071 6.87484C7.82671 6.87484 6.87569 7.8262 6.87569 8.99984C6.87569 10.1738 7.82707 11.1248 9.00071 11.1248C10.1746 11.1248 11.1257 10.1735 11.1257 8.99984C11.1257 7.82592 10.1743 6.87484 9.00071 6.87484ZM9.00071 5.45817C10.956 5.45817 12.5424 7.04278 12.5424 8.99984C12.5424 10.9552 10.9578 12.5415 9.00071 12.5415C7.04536 12.5415 5.45902 10.9569 5.45902 8.99984C5.45902 7.0445 7.04364 5.45817 9.00071 5.45817ZM13.6049 5.28048C13.6049 5.76931 13.2076 6.16592 12.7195 6.16592C12.2306 6.16592 11.834 5.7687 11.834 5.28048C11.834 4.79227 12.2312 4.39567 12.7195 4.39567C13.207 4.39505 13.6049 4.79227 13.6049 5.28048ZM9.00071 3.33317C7.24794 3.33317 6.96225 3.33781 6.14702 3.37411C5.5916 3.40019 5.21929 3.47489 4.87336 3.60919C4.56594 3.72841 4.34419 3.87078 4.10791 4.10706C3.87072 4.34425 3.72861 4.56541 3.60986 4.87297C3.47525 5.21969 3.40057 5.59141 3.37497 6.14607C3.33831 6.9281 3.33403 7.20141 3.33403 8.99984C3.33403 10.7526 3.33866 11.0383 3.37496 11.8534C3.40105 12.4086 3.47585 12.7815 3.60982 13.1266C3.72936 13.4344 3.87202 13.6567 4.10716 13.8919C4.34528 14.1297 4.5671 14.2722 4.87174 14.3898C5.22188 14.5252 5.59396 14.6 6.14692 14.6256C6.92896 14.6622 7.20227 14.6665 9.00071 14.6665C10.7535 14.6665 11.0391 14.6618 11.8543 14.6256C12.4083 14.5996 12.7814 14.5246 13.1275 14.3907C13.4344 14.2715 13.6574 14.1283 13.8927 13.8934C14.1309 13.6549 14.2732 13.4336 14.3909 13.1282C14.5259 12.7794 14.6009 12.4068 14.6264 11.8536C14.6631 11.0716 14.6674 10.7982 14.6674 8.99984C14.6674 7.24708 14.6627 6.9614 14.6264 6.14622C14.6004 5.59209 14.5254 5.21839 14.3913 4.87251C14.2724 4.56594 14.1295 4.3435 13.8934 4.10706C13.6559 3.86949 13.4353 3.72766 13.1275 3.60901C12.7811 3.47451 12.4088 3.39973 11.8544 3.37412C11.0724 3.33746 10.7991 3.33317 9.00071 3.33317ZM9.00071 1.9165C10.925 1.9165 11.1652 1.92359 11.9208 1.959C12.6745 1.99383 13.1887 2.11307 13.6403 2.28838C14.1072 2.46842 14.5015 2.71161 14.8952 3.10532C15.2883 3.49904 15.5315 3.89452 15.7122 4.36025C15.8868 4.81123 16.0061 5.32595 16.0415 6.07973C16.0752 6.83529 16.084 7.07553 16.084 8.99984C16.084 10.9242 16.077 11.1644 16.0415 11.9199C16.0067 12.6737 15.8868 13.1879 15.7122 13.6394C15.5321 14.1064 15.2883 14.5006 14.8952 14.8944C14.5015 15.2875 14.1054 15.5307 13.6403 15.7113C13.1887 15.886 12.6745 16.0053 11.9208 16.0407C11.1652 16.0743 10.925 16.0832 9.00071 16.0832C7.07638 16.0832 6.83614 16.0761 6.08059 16.0407C5.3268 16.0058 4.81326 15.886 4.36111 15.7113C3.89478 15.5312 3.49989 15.2875 3.10618 14.8944C2.71246 14.5006 2.46986 14.1046 2.28923 13.6394C2.11392 13.1879 1.99528 12.6737 1.95986 11.9199C1.92621 11.1644 1.91736 10.9242 1.91736 8.99984C1.91736 7.07553 1.92444 6.83529 1.95986 6.07973C1.99468 5.32536 2.11392 4.81182 2.28923 4.36025C2.46926 3.89394 2.71246 3.49904 3.10618 3.10532C3.49989 2.71161 3.89538 2.469 4.36111 2.28838C4.81267 2.11307 5.32621 1.99442 6.08059 1.959C6.83614 1.92536 7.07638 1.9165 9.00071 1.9165Z" fill="#97B3DD"/>
</g>
</svg>
