<svg width="66" height="66" viewBox="0 0 66 66" fill="none" xmlns="http://www.w3.org/2000/svg">
<g id="Group 9787">
<g id="Vector">
<path d="M0.96875 48.3533C1.29305 47.9733 1.59455 47.5743 1.94672 47.2221C6.30536 42.8517 10.6699 38.4868 15.0404 34.1274C15.2589 33.9385 15.4877 33.7617 15.7257 33.5979C15.0923 33.0177 14.5704 32.5325 14.0396 32.0562C11.5161 29.7925 12.3244 25.9035 15.2823 24.7495C15.3325 24.7195 15.3796 24.6847 15.423 24.6456C14.8086 23.2395 14.7402 21.8156 15.5408 20.4399C16.3414 19.0642 17.6209 18.4131 19.1942 18.2674C19.4894 15.7212 20.8968 14.2986 23.4684 13.9743C23.5368 13.6284 23.585 13.2573 23.685 12.8988C24.5604 9.74576 28.3722 8.67787 30.8007 10.9264C31.6482 11.7131 32.4184 12.5821 33.2722 13.46C33.5002 13.2484 33.6687 13.1027 33.8258 12.9456C35.0782 11.6966 36.3303 10.4459 37.5819 9.19345C38.9057 7.86333 40.4664 7.38322 42.2513 8.02548C44.0362 8.66774 44.9584 10.0067 45.1054 11.8891C45.1155 11.928 45.1322 11.9649 45.1548 11.9981C47.8898 12.4833 49.1528 13.7437 49.4214 16.295C51.9803 16.5623 53.4232 17.9899 53.7285 20.5932C54.0237 20.64 54.3353 20.6666 54.6356 20.7414C57.9292 21.5534 59.082 25.4449 56.7549 27.9101C56.0328 28.6701 55.2487 29.377 54.4747 30.1307C55.4286 32.1576 55.9758 34.2136 55.9707 36.4266L64.2797 44.724C64.5774 45.0217 64.8776 45.3169 65.1728 45.6184C65.8163 46.2758 65.8822 47.0181 65.3501 47.5692C64.794 48.1443 64.0453 48.0924 63.3562 47.4096C62.0995 46.1631 60.8479 44.9119 59.6014 43.6561C59.4836 43.537 59.381 43.4028 59.1846 43.1735C58.7983 43.589 58.474 43.969 58.1167 44.3136C57.4833 44.9305 56.7625 44.9609 56.2165 44.42C55.6705 43.8791 55.7098 43.1329 56.3166 42.5198C56.6535 42.1727 57.0171 41.8522 57.33 41.5533C56.385 40.6095 55.4818 39.7063 54.6318 38.8588L44.377 49.1134L47.0727 51.8091C47.3856 51.4772 47.7175 51.101 48.076 50.7526C48.6803 50.1661 49.3935 50.1331 49.9332 50.6411C50.4728 51.1491 50.4589 51.932 49.8736 52.5514C49.543 52.9023 49.1781 53.2228 48.7778 53.6067C48.9704 53.8119 49.1174 53.9804 49.2732 54.1374L58.2561 63.1214C58.4096 63.2654 58.5546 63.4181 58.6906 63.5787C59.1263 64.1272 59.0972 64.8303 58.631 65.299C58.4061 65.5256 58.104 65.6589 57.785 65.6723C57.4661 65.6857 57.1538 65.5782 56.9107 65.3712C56.7505 65.2344 56.5982 65.0885 56.4547 64.9342C51.091 59.5723 45.7282 54.2096 40.3663 48.8461C40.2029 48.6827 40.0572 48.5028 39.8887 48.3141C38.0303 48.613 36.215 48.4762 34.558 47.6591C32.9441 46.8611 31.4429 45.8375 29.7809 44.8456C29.3755 45.1838 28.8815 45.536 28.4571 45.9591C22.1889 52.2111 15.9301 58.4681 9.68055 64.7302C9.49313 64.9301 9.29567 65.1204 9.08895 65.3003C8.84899 65.5105 8.53853 65.6225 8.21961 65.6138C7.90069 65.6051 7.59679 65.4764 7.36863 65.2534C7.14362 65.0276 7.01097 64.726 6.99668 64.4076C6.98239 64.0892 7.08748 63.7769 7.29136 63.5318C7.44055 63.3538 7.60002 63.1846 7.76895 63.0251C12.2534 58.5399 16.7387 54.0568 21.2249 49.5758C21.3961 49.426 21.5796 49.2908 21.7734 49.1717L12.7019 40.1028C12.6385 40.1611 12.4726 40.3055 12.3218 40.4613C9.37018 43.4104 6.4198 46.3598 3.47068 49.3097C2.45724 50.3232 1.67056 50.2206 0.973822 48.9842L0.96875 48.3533ZM28.4394 42.7301C29.8024 41.9219 31.353 41.7598 32.9555 41.7737C33.4822 41.7666 34.0075 41.717 34.5263 41.6255C38.461 41.0187 41.8218 39.2832 44.6316 36.4646C47.9633 33.122 51.2992 29.7836 54.6393 26.4495C54.8067 26.2892 54.9598 26.1146 55.0967 25.9276C55.3351 25.5898 55.4454 25.1781 55.4077 24.7663C55.3701 24.3546 55.187 23.9697 54.8913 23.6807C54.5956 23.3918 54.2066 23.2176 53.7941 23.1894C53.3816 23.1612 52.9726 23.2809 52.6403 23.527C52.4414 23.6818 52.2542 23.8512 52.0804 24.0337C50.8136 25.3005 49.5569 26.5749 48.28 27.8277C47.4642 28.6233 46.3165 28.3344 46.0492 27.2982C45.9123 26.7636 46.153 26.3608 46.5128 26.001C47.8387 24.676 49.1651 23.3501 50.4918 22.0234C50.9479 21.5686 51.2291 21.0429 51.1151 20.3766C51.0728 20.0504 50.9362 19.7437 50.7223 19.494C50.5083 19.2442 50.2262 19.0623 49.9104 18.9704C49.2136 18.7411 48.6182 18.935 48.1191 19.4277C46.7687 20.7604 45.45 22.1234 44.078 23.432C43.7594 23.7233 43.3594 23.9103 42.9316 23.9679C42.4185 24.0274 42.0207 23.6904 41.8206 23.1913C41.5963 22.6327 41.7699 22.1602 42.174 21.7561C43.5134 20.4116 44.8541 19.0705 46.1961 17.7328C46.6534 17.278 46.9448 16.7523 46.8295 16.0961C46.7872 15.7698 46.6513 15.4628 46.4382 15.2121C46.225 14.9614 45.9438 14.7779 45.6286 14.6837C45.3298 14.5734 45.0053 14.5533 44.6952 14.6258C44.3851 14.6983 44.1031 14.8603 43.8842 15.0916C42.9594 15.9783 42.0727 16.9157 41.1466 17.8063C40.3865 18.541 39.3301 18.3345 38.9842 17.406C38.7739 16.8422 38.969 16.3773 39.3706 15.9745C40.2329 15.1097 41.0968 14.2454 41.9625 13.3814C42.421 12.9216 42.6706 12.3794 42.5275 11.727C42.4717 11.4141 42.3295 11.123 42.1168 10.8868C41.9041 10.6505 41.6294 10.4786 41.324 10.3906C40.6222 10.1638 40.028 10.3652 39.5314 10.8542C38.1215 12.2476 36.728 13.6525 35.3295 15.0561C35.2773 15.1227 35.2327 15.1949 35.1965 15.2714C36.5532 16.6155 37.0739 18.1977 36.4341 20.0079C35.7855 21.8435 34.3553 22.7366 32.4424 22.9215C32.1435 25.5032 30.7031 26.922 28.1569 27.2197C27.8461 29.787 26.4104 31.2155 23.8497 31.5052C23.6977 33.3623 22.797 34.6899 21.1413 35.4525L28.4394 42.7301ZM42.2754 47.2487L53.4232 36.1011C53.3358 34.8254 53.1572 33.4788 52.5276 32.1551C50.4564 34.23 48.4447 36.2277 46.4431 38.2546C43.6334 41.0896 40.3017 42.986 36.405 43.8677C35.5828 44.0539 34.7442 44.1666 33.8195 44.33C35.6183 45.6754 37.5274 46.1213 39.6138 45.7526C40.341 45.626 40.9414 45.7058 41.4291 46.2986C41.7091 46.6343 42.0144 46.9523 42.2754 47.2487ZM14.7769 38.0848L23.6154 46.9345L26.1692 44.382L17.3181 35.531L14.7769 38.0848ZM19.3374 20.7541C18.5203 20.8807 17.9667 21.2164 17.6652 21.8942C17.3308 22.6542 17.503 23.3408 18.0756 23.921C19.5426 25.4006 21.0108 26.8802 22.4981 28.3395C23.2683 29.0996 24.3438 29.0996 25.0392 28.4067C25.7347 27.7137 25.7246 26.6332 24.9759 25.8655C23.5153 24.3796 22.0483 22.9 20.5421 21.4546C20.2254 21.1354 19.7478 20.9795 19.3399 20.7503L19.3374 20.7541ZM34.2071 18.5334C34.0475 18.1787 33.9689 17.7455 33.7143 17.482C32.1485 15.8643 30.5638 14.2644 28.9423 12.7024C28.2873 12.069 27.2283 12.1666 26.5949 12.7962C25.9615 13.4258 25.8665 14.4886 26.4961 15.1422C28.0568 16.7637 29.6542 18.351 31.2694 19.9192C31.8027 20.4374 32.4957 20.4614 33.1544 20.1473C33.8131 19.8331 34.1209 19.2922 34.2096 18.5296L34.2071 18.5334ZM27.8477 24.6266C28.8612 24.5899 29.4135 24.2466 29.6909 23.5574C29.9861 22.8278 29.8468 22.1526 29.283 21.5876C27.7958 20.0979 26.3149 18.6018 24.8138 17.1273C24.0803 16.4065 23.006 16.4039 22.3194 17.0715C21.6126 17.7581 21.6075 18.8526 22.3524 19.6114C23.8282 21.1126 25.3091 22.6074 26.8267 24.0654C27.1536 24.372 27.6413 24.5113 27.8503 24.6228L27.8477 24.6266ZM15.0264 28.8196C15.1531 29.1427 15.2063 29.5417 15.4293 29.7773C16.4212 30.8313 17.427 31.8776 18.5 32.848C19.16 33.4446 20.1747 33.2964 20.7803 32.663C21.3643 32.0499 21.477 31.0454 20.9069 30.4196C19.9442 29.3681 18.9282 28.3598 17.8818 27.3907C17.3675 26.9131 16.6974 26.884 16.0576 27.2146C15.4179 27.5452 15.0949 28.0621 15.029 28.8158L15.0264 28.8196Z" fill="#293880" style="mix-blend-mode:multiply"/>
</g>
<g id="Vector_2">
<path d="M0.96875 15.9871C1.30699 15.2979 1.85551 15.0648 2.61559 15.0927C3.89886 15.1371 5.18467 15.1003 6.47048 15.1067C7.2787 15.1067 7.85128 15.6134 7.87282 16.3329C7.89436 17.0664 7.30277 17.6212 6.47175 17.6263C5.18594 17.6339 3.90013 17.5959 2.61686 17.6402C1.85678 17.6668 1.30572 17.4325 0.970018 16.7459L0.96875 15.9871Z" fill="#2273EC" style="mix-blend-mode:multiply"/>
</g>
<g id="Vector_3">
<path d="M16.7724 0.94165C17.4603 1.28115 17.6946 1.82839 17.668 2.58846C17.6224 3.87171 17.6604 5.15748 17.6528 6.442C17.6528 7.273 17.0929 7.86712 16.3619 7.84432C15.631 7.82152 15.1369 7.24893 15.1331 6.442C15.1331 5.15748 15.1648 3.87171 15.1192 2.58846C15.0926 1.82839 15.327 1.27735 16.0136 0.94165H16.7724Z" fill="#2273EC" style="mix-blend-mode:multiply"/>
</g>
<g id="Vector_4">
<path d="M50.6526 0.941514C51.3392 1.28228 51.5748 1.82826 51.5469 2.58832C51.5026 3.87157 51.5406 5.15861 51.533 6.44313C51.533 7.25006 51.0174 7.82265 50.3029 7.84418C49.5884 7.86572 49.0171 7.2716 49.0133 6.44059C49.0057 5.15608 49.0437 3.8703 48.9981 2.58706C48.9715 1.82699 49.2059 1.27594 49.8937 0.940247L50.6526 0.941514Z" fill="#2273EC" style="mix-blend-mode:multiply"/>
</g>
<g id="Vector_5">
<path d="M4.34136 2.98499C4.80121 3.24594 5.17872 3.36502 5.43081 3.61837C7.36817 5.52023 9.29118 7.43813 11.1998 9.37207C11.8244 10.0055 11.8434 10.7288 11.3037 11.2722C10.764 11.8157 10.0369 11.798 9.4035 11.1747C7.47543 9.26313 5.56129 7.33763 3.64082 5.41846C3.21391 4.99156 3.00743 4.45698 3.31526 3.93507C3.53061 3.5601 3.96892 3.31561 4.34136 2.98499Z" fill="#2273EC" style="mix-blend-mode:multiply"/>
</g>
<g id="Vector_6">
<path d="M63.6558 4.34038C63.3873 4.80022 63.258 5.17265 63.0072 5.42728C61.1028 7.36122 59.1844 9.28208 57.2521 11.1898C56.6352 11.8017 55.884 11.808 55.3519 11.2545C54.8199 10.7009 54.8452 9.99654 55.4431 9.39989C57.3704 7.4575 59.3043 5.52186 61.2451 3.59298C61.6745 3.16354 62.218 2.97733 62.7323 3.29656C63.101 3.52458 63.3366 3.96541 63.6558 4.34038Z" fill="#2273EC" style="mix-blend-mode:multiply"/>
</g>
<g id="Vector_7">
<path d="M62.2425 17.6276C61.528 17.6276 60.8135 17.639 60.099 17.6276C59.3592 17.6124 58.7968 17.0601 58.793 16.3735C58.7939 16.2049 58.8284 16.0381 58.8943 15.8828C58.9602 15.7276 59.0563 15.587 59.177 15.4692C59.2976 15.3513 59.4405 15.2586 59.5972 15.1964C59.754 15.1342 59.9215 15.1037 60.0902 15.1067C61.5394 15.0941 62.9899 15.0915 64.4391 15.1067C64.7657 15.1159 65.076 15.2518 65.3042 15.4856C65.5324 15.7195 65.6607 16.033 65.6618 16.3597C65.663 16.6865 65.5369 17.0008 65.3104 17.2363C65.0838 17.4718 64.7745 17.6098 64.448 17.6213C63.7132 17.6415 62.9772 17.6276 62.2425 17.6276Z" fill="#2273EC" style="mix-blend-mode:multiply"/>
</g>
<g id="Vector_8">
<path d="M54.332 47.5589C54.3283 47.8963 54.1916 48.2187 53.9515 48.4559C53.7114 48.6931 53.3875 48.826 53.05 48.8256C52.7123 48.8065 52.3949 48.6585 52.1632 48.4122C51.9315 48.1659 51.8032 47.84 51.8047 47.5019C51.8196 47.175 51.9593 46.8664 52.1949 46.6394C52.4306 46.4125 52.7443 46.2845 53.0715 46.282C53.2392 46.2793 53.4056 46.3107 53.5608 46.3741C53.716 46.4376 53.8567 46.5318 53.9745 46.6511C54.0923 46.7705 54.1847 46.9124 54.2462 47.0684C54.3076 47.2244 54.3368 47.3913 54.332 47.5589Z" fill="#293880" style="mix-blend-mode:multiply"/>
</g>
</g>
</svg>
