<svg width="19" height="19" viewBox="0 0 19 19" fill="none" xmlns="http://www.w3.org/2000/svg">
<g id="Frame" clip-path="url(#clip0_2493_4469)">
<path id="Vector" d="M5.79688 3.82814C5.79668 4.22597 5.63845 4.60742 5.35701 4.88858C5.07556 5.16975 4.69395 5.32759 4.29613 5.32739C3.8983 5.32719 3.51685 5.16897 3.23568 4.88752C2.95452 4.60608 2.79668 4.22447 2.79688 3.82664C2.79707 3.42882 2.9553 3.04737 3.23675 2.7662C3.51819 2.48504 3.8998 2.32719 4.29763 2.32739C4.69545 2.32759 5.0769 2.48582 5.35807 2.76726C5.63923 3.04871 5.79707 3.43032 5.79688 3.82814ZM5.84188 6.43814H2.84188V15.8281H5.84188V6.43814ZM10.5819 6.43814H7.59688V15.8281H10.5519V10.9006C10.5519 8.15564 14.1294 7.90064 14.1294 10.9006V15.8281H17.0919V9.88064C17.0919 5.25314 11.7969 5.42564 10.5519 7.69814L10.5819 6.43814Z" fill="#4D7ABD"/>
</g>
<defs>
<clipPath id="clip0_2493_4469">
<rect width="18" height="18" fill="white" transform="translate(0.591797 0.0773926)"/>
</clipPath>
</defs>
</svg>
