<svg width="145" height="41" viewBox="0 0 145 41" fill="none" xmlns="http://www.w3.org/2000/svg">
<g id="Component 1">
<rect id="Rectangle 5" x="0.444785" y="0.444785" width="144.11" height="39.1411" rx="19.5706" fill="#E8EEF8" stroke="#BECFEA" stroke-width="0.889571"/>
<g id="Group 9600">
<path id="Load more" d="M42.0502 24.0092C41.5717 24.0092 41.2846 23.7084 41.2846 23.2162V14.8285C41.2846 14.3363 41.5717 14.0356 42.0502 14.0356C42.5219 14.0356 42.8158 14.3363 42.8158 14.8285V22.683H46.808C47.2318 22.683 47.519 22.9428 47.519 23.3461C47.519 23.7494 47.2318 24.0092 46.808 24.0092H42.0502ZM51.4453 24.1459C49.3876 24.1459 48.0341 22.7309 48.0341 20.4135C48.0341 18.1029 49.3945 16.6879 51.4453 16.6879C53.496 16.6879 54.8564 18.1029 54.8564 20.4135C54.8564 22.7309 53.5029 24.1459 51.4453 24.1459ZM51.4453 22.9291C52.6074 22.9291 53.3525 22.0131 53.3525 20.4135C53.3525 18.8207 52.6005 17.9047 51.4453 17.9047C50.29 17.9047 49.538 18.8207 49.538 20.4135C49.538 22.0131 50.29 22.9291 51.4453 22.9291ZM58.0923 24.1322C56.6841 24.1322 55.6928 23.2572 55.6928 21.9652C55.6928 20.7074 56.6635 19.935 58.3657 19.8393L60.3413 19.7231V19.1693C60.3413 18.3695 59.8012 17.891 58.8989 17.891C58.188 17.891 57.7163 18.144 57.3061 18.8002C57.1557 19.019 56.9643 19.1147 56.7046 19.1147C56.3354 19.1147 56.0688 18.8686 56.0688 18.4994C56.0688 18.349 56.1098 18.185 56.1987 18.0209C56.5747 17.2074 57.6616 16.6879 58.9536 16.6879C60.6967 16.6879 61.811 17.6107 61.811 19.0531V23.394C61.811 23.8588 61.5171 24.1391 61.1001 24.1391C60.6899 24.1391 60.4096 23.8725 60.396 23.435V22.8266H60.3618C59.9448 23.6264 59.0288 24.1322 58.0923 24.1322ZM58.4956 22.9633C59.5278 22.9633 60.3413 22.2523 60.3413 21.3158V20.7484L58.5639 20.8578C57.6821 20.9193 57.1831 21.309 57.1831 21.9242C57.1831 22.5531 57.7094 22.9633 58.4956 22.9633ZM65.9355 24.1322C64.1172 24.1322 62.9141 22.683 62.9141 20.4135C62.9141 18.144 64.1172 16.7016 65.9219 16.7016C66.9541 16.7016 67.7744 17.2211 68.1777 18.0141H68.2051V14.7943C68.2051 14.309 68.5127 14.015 68.9502 14.015C69.3809 14.015 69.6885 14.309 69.6885 14.7943V23.4008C69.6885 23.8656 69.3877 24.1391 68.957 24.1391C68.54 24.1391 68.2051 23.8656 68.2051 23.4008V22.7309H68.1846C67.8154 23.5717 67.0566 24.1322 65.9355 24.1322ZM66.3252 22.8813C67.46 22.8813 68.2188 21.9174 68.2188 20.4135C68.2188 18.9232 67.46 17.9457 66.3252 17.9457C65.1562 17.9457 64.4248 18.9027 64.4248 20.4135C64.4248 21.9311 65.1562 22.8813 66.3252 22.8813ZM74.7657 24.1391C74.3214 24.1391 74.0274 23.8315 74.0274 23.3598V17.4398C74.0274 16.975 74.3145 16.6879 74.7315 16.6879C75.1417 16.6879 75.4356 16.9682 75.4356 17.4398V18.0277H75.4698C75.7911 17.2279 76.543 16.6947 77.5137 16.6947C78.5118 16.6947 79.2364 17.2074 79.5235 18.1029H79.5577C79.9268 17.2279 80.7745 16.6947 81.7999 16.6947C83.2217 16.6947 84.1514 17.6381 84.1514 19.0668V23.3598C84.1514 23.8315 83.8506 24.1391 83.4063 24.1391C82.962 24.1391 82.668 23.8315 82.668 23.3598V19.4223C82.668 18.4926 82.169 17.9594 81.294 17.9594C80.419 17.9594 79.8106 18.6088 79.8106 19.518V23.3598C79.8106 23.8315 79.5303 24.1391 79.086 24.1391C78.6417 24.1391 78.3614 23.8315 78.3614 23.3598V19.3129C78.3614 18.4857 77.835 17.9594 77.001 17.9594C76.126 17.9594 75.504 18.643 75.504 19.5658V23.3598C75.504 23.8315 75.21 24.1391 74.7657 24.1391ZM88.6588 24.1459C86.6012 24.1459 85.2477 22.7309 85.2477 20.4135C85.2477 18.1029 86.608 16.6879 88.6588 16.6879C90.7096 16.6879 92.0699 18.1029 92.0699 20.4135C92.0699 22.7309 90.7164 24.1459 88.6588 24.1459ZM88.6588 22.9291C89.8209 22.9291 90.566 22.0131 90.566 20.4135C90.566 18.8207 89.8141 17.9047 88.6588 17.9047C87.5035 17.9047 86.7516 18.8207 86.7516 20.4135C86.7516 22.0131 87.5035 22.9291 88.6588 22.9291ZM93.9386 24.1391C93.4943 24.1391 93.2003 23.8383 93.2003 23.3598V17.433C93.2003 16.9818 93.4874 16.6879 93.9044 16.6879C94.3146 16.6879 94.6017 16.9818 94.6017 17.433V18.0482H94.6359C94.8341 17.2416 95.4972 16.7016 96.215 16.7016C96.4747 16.7016 96.673 16.7631 96.796 16.8793C96.9327 16.9887 96.9943 17.1664 96.9943 17.3988C96.9943 17.6313 96.9191 17.8022 96.7755 17.9184C96.6251 18.0482 96.4064 18.1098 96.0988 18.1098C95.087 18.1166 94.6769 18.7934 94.6769 19.6889V23.3598C94.6769 23.8383 94.3761 24.1391 93.9386 24.1391ZM100.586 24.1459C98.4186 24.1459 97.1471 22.7719 97.1471 20.4477C97.1471 18.1645 98.446 16.6879 100.483 16.6879C102.397 16.6879 103.716 18.0688 103.716 20.0307C103.716 20.5092 103.443 20.7826 102.985 20.7826H98.6374V20.8168C98.6374 22.1293 99.3756 22.9496 100.551 22.9496C101.358 22.9496 101.864 22.6693 102.411 21.9242C102.568 21.7397 102.718 21.6645 102.93 21.6645C103.286 21.6645 103.546 21.8969 103.546 22.266C103.546 22.3822 103.505 22.519 103.443 22.6625C102.971 23.6059 101.925 24.1459 100.586 24.1459ZM98.6442 19.7504H102.24C102.206 18.6225 101.502 17.8773 100.476 17.8773C99.4577 17.8773 98.7194 18.6293 98.6442 19.7504Z" fill="#202054"/>
<path id="Vector" d="M113.42 15.664C114.22 15.724 114.961 15.921 115.636 16.2699C116.451 16.6917 117.093 17.2756 117.56 18.0183C118.028 18.7621 118.261 19.5759 118.261 20.4606C118.261 21.3453 118.027 22.1901 117.56 22.9329C117.093 23.6767 116.451 24.2595 115.636 24.6814C114.962 25.0303 114.22 25.2262 113.42 25.2872L113.42 28.4662C114.848 28.3973 116.142 28.0364 117.299 27.3806C118.593 26.6468 119.604 25.6671 120.333 24.4404C121.062 23.2148 121.426 21.8882 121.426 20.4606C121.426 19.033 121.063 17.7064 120.333 16.4808C119.605 15.2552 118.594 14.2754 117.299 13.5407C116.142 12.8838 114.848 12.524 113.42 12.454L113.42 15.663L113.42 15.664Z" fill="#9FB3DC"/>
<path id="Vector_2" d="M32.4691 15.664C31.6689 15.724 30.9281 15.921 30.2532 16.2699C29.4378 16.6917 28.7965 17.2756 28.3293 18.0183C27.861 18.7621 27.6285 19.5759 27.6285 20.4606C27.6285 21.3453 27.8621 22.1901 28.3293 22.9329C28.7965 23.6767 29.4378 24.2595 30.2532 24.6814C30.927 25.0303 31.6689 25.2262 32.4691 25.2872L32.4691 28.4662C31.0416 28.3973 29.7471 28.0364 28.5899 27.3806C27.2965 26.6468 26.2853 25.6671 25.5564 24.4404C24.8275 23.2148 24.463 21.8882 24.463 20.4606C24.463 19.033 24.8264 17.7064 25.5564 16.4808C26.2842 15.2552 27.2954 14.2754 28.5899 13.5407C29.7471 12.8838 31.0416 12.524 32.4691 12.454L32.4691 15.663L32.4691 15.664Z" fill="#202054"/>
</g>
</g>
</svg>
