<svg width="19" height="18" viewBox="0 0 19 18" fill="none" xmlns="http://www.w3.org/2000/svg">
<g id="Layer_1" clip-path="url(#clip0_2031_2710)">
<g id="zezzYQ.tif">
<path id="Vector" d="M3.72725 0.5C3.75815 0.515662 3.79025 0.528997 3.82326 0.539888C4.18614 0.634037 4.49046 0.816944 4.71583 1.11017C5.35041 1.93272 5.99315 2.74987 6.61624 3.58176C7.32347 4.52864 7.12331 5.70191 6.15402 6.39581C5.84191 6.61932 5.52388 6.83601 5.21252 7.05917C4.91228 7.27477 4.86076 7.55147 5.06425 7.85476C6.56521 10.0849 8.49911 11.8755 10.8659 13.2266C11.1888 13.4117 11.4909 13.3413 11.6936 13.0348C11.8964 12.7282 12.0858 12.4278 12.2867 12.1267C12.9502 11.127 14.1949 10.869 15.2176 11.5262C16.0642 12.0707 16.9066 12.6217 17.7448 13.1792C18.6604 13.7865 18.7567 14.8469 17.9776 15.608C17.0909 16.4744 16.0642 17.1026 14.8225 17.3688C13.706 17.6082 12.6073 17.509 11.5235 17.1964C10.2632 16.8338 9.12418 16.2373 8.06036 15.5045C5.94014 14.0445 4.08013 12.32 2.53482 10.2879C1.71898 9.21776 1.06289 8.06713 0.722621 6.76917C0.129552 4.51966 0.743749 2.58853 2.3758 0.928701C2.60413 0.694766 2.89918 0.584806 3.20943 0.5H3.72725Z" fill="#293881"/>
</g>
</g>
<defs>
<clipPath id="clip0_2031_2710">
<rect width="18" height="17" fill="white" transform="translate(0.5 0.5)"/>
</clipPath>
</defs>
</svg>
