<svg width="10" height="18" viewBox="0 0 10 18" fill="none" xmlns="http://www.w3.org/2000/svg">
<path id="Vector" d="M0.499999 3.60854C1.39963 3.67597 2.2324 3.89736 2.99102 4.28957C3.90767 4.76382 4.6286 5.42012 5.15379 6.25511C5.6802 7.09122 5.94158 8.00599 5.94158 9.00056C5.94158 9.99512 5.67898 10.9448 5.15379 11.7797C4.6286 12.6158 3.90767 13.271 2.99102 13.7453C2.23362 14.1375 1.39964 14.3577 0.5 14.4263L0.5 18C2.10476 17.9225 3.55998 17.5168 4.8608 16.7795C6.3148 15.9547 7.45151 14.8533 8.27091 13.4744C9.0903 12.0966 9.5 10.6053 9.5 9.00056C9.5 7.39576 9.09152 5.90448 8.27091 4.52669C7.45272 3.14891 6.31602 2.04757 4.8608 1.22158C3.55997 0.483236 2.10475 0.0786666 0.499999 0L0.499999 3.60741L0.499999 3.60854Z" fill="#9FB3DC"/>
</svg>
