<svg width="67" height="48" viewBox="0 0 67 48" fill="none" xmlns="http://www.w3.org/2000/svg">
<g id="Layer_1" clip-path="url(#clip0_2031_2586)">
<g id="thN0Ny.tif">
<path id="Vector" d="M67.0039 32.9978C66.4794 34.9569 65.9549 36.9169 65.4304 38.8778C65.319 39.288 65.2246 39.7119 65.1157 40.1276C64.5152 42.4304 63.3207 43.4669 61.0116 43.6611C60.2694 45.3226 59.1142 46.6052 57.4857 47.3874C56.4773 47.8728 55.4166 48.1272 54.3086 47.9344C52.1398 47.5679 50.9335 46.1198 50.7525 43.6761H28.733C27.8977 44.6675 27.2172 45.6822 26.3452 46.4657C25.034 47.6472 23.4396 48.2229 21.6733 47.9002C19.675 47.5364 18.5565 46.2593 18.2851 44.1479C18.2654 43.992 18.2313 43.8389 18.1933 43.6201C16.9463 43.6201 15.702 43.6201 14.4707 43.6201C12.8304 43.6201 12.062 42.6 12.4803 40.9645C13.1018 38.5346 13.7391 36.1101 14.3632 33.6801C14.4943 33.1564 14.8077 32.7612 15.3139 32.8474C15.6587 32.9048 16.0114 33.222 16.254 33.5188C16.3746 33.6665 16.3038 34.0398 16.2409 34.2914C15.6994 36.4615 15.1408 38.6275 14.5874 40.7949C14.5324 41.0124 14.4825 41.2312 14.417 41.5074H18.6772C19.5793 39.5191 21.0098 38.0997 23.0659 37.4392C24.246 37.0618 25.4261 37.0495 26.5813 37.576C28.0079 38.2242 28.6543 39.3031 28.9743 41.5265H43.8109L50.5729 15.2374C50.266 15.221 50.0379 15.1978 49.8097 15.1978C48.0645 15.1978 46.3192 15.1978 44.5753 15.1978C44.3786 15.1978 44.1819 15.1978 43.9866 15.1868C43.4044 15.139 43.0543 14.8258 43.0176 14.2036C43.006 14.0661 43.0222 13.9276 43.0653 13.7971C43.1083 13.6665 43.1772 13.5469 43.2675 13.4459C43.3577 13.345 43.4674 13.2649 43.5892 13.211C43.711 13.1571 43.8424 13.1305 43.9748 13.1329C46.3087 13.1083 48.6427 13.0851 50.9754 13.1452C52.0244 13.1726 52.5489 13.9192 52.6315 15.3031H53.3133C55.4987 15.3031 57.6797 15.3031 59.8564 15.3031C61.8337 15.3031 62.804 16.3054 62.8054 18.3402C62.8054 21.4757 62.8054 24.6113 62.8054 27.8056C63.638 28.4264 64.4523 29.0705 65.2967 29.6571C66.0362 30.1685 66.663 30.7606 66.9934 31.6399L67.0039 32.9978ZM60.7572 17.4404H52.0624C50.7512 22.5519 49.44 27.6374 48.1117 32.805H58.7969C59.0159 32.805 59.2336 32.805 59.4525 32.8214C60.0151 32.8665 60.3258 33.2097 60.3888 33.7786C60.4478 34.301 60.0557 34.7768 59.5102 34.8725C59.2926 34.8978 59.0734 34.9052 58.8546 34.8944H47.578L45.8734 41.5293H51.1813C51.2993 41.3036 51.4029 41.0821 51.5261 40.8715C52.9685 38.4101 54.997 37.0263 57.8463 37.2382C58.7321 37.3122 59.5667 37.7014 60.21 38.3408C60.8534 38.9801 61.2665 39.8306 61.38 40.7498C61.4102 40.9891 61.4522 41.2284 61.4941 41.5046C62.2953 41.3529 62.8172 40.9084 63.0178 40.1946C63.5082 38.4607 63.9356 36.7049 64.4011 34.8808C64.1284 34.8808 63.9133 34.8931 63.7009 34.8808C63.0558 34.8384 62.6192 34.4186 62.61 33.8456C62.6008 33.2726 63.0204 32.8419 63.6773 32.8091C64.0851 32.7872 64.4942 32.8091 64.8732 32.8091C65.1577 32.2744 64.9859 31.9613 64.6201 31.6932C63.7665 31.0642 62.9352 30.3983 62.0579 29.8089C61.7196 29.5821 61.3295 29.4533 60.9277 29.4356C58.8297 29.4 56.7409 29.4356 54.6482 29.4151C52.6905 29.3973 51.5563 27.8589 52.0349 25.8898C52.2971 24.8136 52.5594 23.7388 52.8688 22.6763C53.3409 21.019 54.4174 20.0125 56.0486 19.7418C56.7737 19.6228 57.5263 19.6803 58.2659 19.672C59.1077 19.6625 59.9482 19.672 60.8674 19.672C60.8293 18.883 60.7952 18.202 60.7572 17.4404ZM53.9663 27.2627H60.8018V21.7724C59.3962 21.7724 58.0482 21.7656 56.6963 21.7724C55.6788 21.7806 55.0219 22.2989 54.74 23.3286C54.4672 24.3309 54.2155 25.3374 53.9755 26.3493C53.9152 26.6132 53.9663 26.9017 53.9663 27.2627ZM24.7088 39.2579C22.742 39.2579 20.6296 41.0972 20.2887 43.1114C20.0028 44.7961 21.0138 46.0254 22.5991 45.9201C24.5869 45.7902 26.4593 44.0878 26.8697 42.0407C27.1936 40.4271 26.2862 39.2579 24.7088 39.2579ZM59.4381 41.5183C59.4552 40.1345 58.6448 39.2757 57.3034 39.2579C55.1412 39.2279 52.9606 41.264 52.7535 43.5066C52.6874 44.0409 52.8209 44.5811 53.1262 45.0156C53.4316 45.4501 53.8854 45.7456 54.3938 45.8408C56.6531 46.3222 59.4079 43.9619 59.4381 41.5183Z" fill="#4D7ABD"/>
<path id="Vector_2" d="M26.4318 0C27.3025 0.180503 28.1823 0.324084 29.0438 0.546977C35.3849 2.18791 40.1892 8.10894 40.7059 14.912C41.3457 23.3272 36.1231 30.5993 28.1705 32.366C19.717 34.2435 11.0786 28.101 9.68212 19.2167C8.28566 10.3324 13.5188 2.2809 21.9605 0.345963C22.5728 0.209219 23.197 0.1176 23.8172 0.00410233L26.4318 0ZM38.7836 16.2972C38.7377 8.41251 32.6077 2.05117 25.0734 2.07578C17.539 2.10039 11.388 8.53285 11.3998 16.3601C11.4116 24.2352 17.6347 30.6718 25.1678 30.602C32.7624 30.5309 38.8295 24.1586 38.7836 16.2972Z" fill="#4D7ABD"/>
<path id="Vector_3" d="M6.248 29.5135C7.90277 29.5135 9.55754 29.5053 11.2123 29.5135C11.9833 29.5135 12.3832 29.8417 12.4331 30.4475C12.4921 31.1586 12.0489 31.5989 11.2241 31.603C9.15631 31.6126 7.08718 31.603 5.01937 31.603C3.75666 31.603 2.49263 31.6098 1.22991 31.603C0.430062 31.603 -0.0131346 31.1928 -2.22865e-05 30.5282C0.0144013 29.8855 0.430062 29.5204 1.21811 29.5149C2.89518 29.5053 4.57224 29.5135 6.248 29.5135Z" fill="#4D7ABD"/>
<path id="Vector_4" d="M7.27207 35.9788C6.28995 35.9788 5.30522 35.987 4.32704 35.9788C3.5757 35.9692 3.13775 35.5686 3.14693 34.9204C3.15349 34.3009 3.56521 33.9099 4.29557 33.9044C6.2799 33.8907 8.26423 33.8907 10.2486 33.9044C11.0012 33.9044 11.3841 34.275 11.392 34.9149C11.3998 35.5549 10.9776 35.9692 10.2197 35.9788C9.23498 35.9884 8.25287 35.9788 7.27207 35.9788Z" fill="#4D7ABD"/>
<path id="Vector_5" d="M8.29617 40.3396C7.94869 40.3396 7.59728 40.3628 7.24718 40.3396C6.6545 40.2876 6.26376 39.835 6.28211 39.2675C6.29916 38.7274 6.67548 38.3103 7.25898 38.2939C7.97623 38.2665 8.70134 38.2665 9.41334 38.2939C9.96536 38.3185 10.2932 38.6508 10.3312 39.2402C10.3666 39.8049 10.0204 40.2316 9.4671 40.3341C9.42379 40.3419 9.37991 40.3455 9.33597 40.3451C8.99374 40.3396 8.64495 40.3396 8.29617 40.3396Z" fill="#4D7ABD"/>
<path id="Vector_6" d="M23.5641 43.6215C23.4339 43.6157 23.3062 43.5831 23.1881 43.5256C23.0701 43.468 22.9641 43.3867 22.8764 43.2863C22.7886 43.1859 22.7208 43.0683 22.6768 42.9405C22.6328 42.8126 22.6135 42.6769 22.62 42.5412C22.6214 42.4053 22.6501 42.2713 22.7042 42.1477C22.7583 42.0241 22.8365 41.9137 22.934 41.8236C23.0314 41.7334 23.1459 41.6655 23.27 41.6243C23.3941 41.583 23.5251 41.5693 23.6546 41.584C23.9064 41.5973 24.1437 41.7113 24.317 41.9023C24.4904 42.0933 24.5865 42.3466 24.5855 42.6095C24.574 42.8833 24.4611 43.1417 24.2706 43.3304C24.0801 43.5192 23.8268 43.6235 23.5641 43.6215Z" fill="#4D7ABD"/>
<path id="Vector_7" d="M57.0871 42.5877C57.0862 42.7238 57.0597 42.8584 57.0089 42.9838C56.9582 43.1092 56.8842 43.223 56.7913 43.3186C56.6984 43.4142 56.5884 43.4898 56.4675 43.5411C56.3465 43.5923 56.2171 43.6183 56.0866 43.6174C55.8234 43.603 55.5755 43.4837 55.3942 43.2842C55.2129 43.0847 55.112 42.8202 55.1124 42.5453C55.1264 42.2829 55.2358 42.0361 55.4182 41.8549C55.6007 41.6738 55.8425 41.572 56.0945 41.5703C56.2251 41.5634 56.3557 41.5849 56.478 41.6333C56.6003 41.6818 56.7116 41.7562 56.8049 41.8518C56.8982 41.9474 56.9714 42.0622 57.02 42.1889C57.0686 42.3155 57.0914 42.4513 57.0871 42.5877Z" fill="#4D7ABD"/>
<path id="Vector_8" d="M27.8899 14.8887C28.4012 16.2821 28.2937 17.5457 27.2998 18.5945C26.2875 19.6638 25.0589 19.7951 23.6756 19.2276C23.0449 19.9113 22.4181 20.5951 21.773 21.2788C21.2223 21.8531 20.6689 21.9051 20.2244 21.4524C19.7799 20.9998 19.7996 20.4241 20.3555 19.8471C21.002 19.1757 21.6733 18.5289 22.3001 17.9039C21.1488 14.9366 23.6821 12.2591 26.6573 13.4803C26.9458 13.1192 27.267 12.6598 27.646 12.2496C28.9441 10.8712 30.2579 9.51467 31.5731 8.14722C32.1579 7.54008 32.7139 7.49359 33.1636 7.98997C33.5911 8.46037 33.5321 9.01692 32.9761 9.60355C32.1334 10.4924 31.286 11.3767 30.4337 12.2564C29.5971 13.1275 28.7605 13.9876 27.8899 14.8887ZM25.0943 15.2196C24.8791 15.2223 24.6695 15.2918 24.4924 15.4193C24.3152 15.5469 24.1786 15.7266 24.1 15.9356C24.0213 16.1446 24.0043 16.3733 24.051 16.5924C24.0977 16.8115 24.206 17.0112 24.3621 17.1658C24.5182 17.3203 24.7149 17.4228 24.9272 17.4602C25.1394 17.4975 25.3575 17.4679 25.5536 17.3752C25.7496 17.2825 25.9147 17.131 26.0277 16.9399C26.1407 16.7488 26.1965 16.527 26.1879 16.3027C26.1857 16.1562 26.1555 16.0117 26.0991 15.8775C26.0427 15.7434 25.9612 15.6224 25.8593 15.5215C25.7575 15.4206 25.6374 15.342 25.506 15.2902C25.3746 15.2383 25.2347 15.2143 25.0943 15.2196Z" fill="#4D7ABD"/>
<path id="Vector_9" d="M35.1121 15.3017C35.2642 15.3017 35.419 15.2894 35.5698 15.3017C36.1637 15.3591 36.586 15.7899 36.5912 16.3355C36.5965 16.8811 36.1978 17.32 35.5842 17.3734C35.2154 17.4076 34.8442 17.4034 34.4762 17.3611C33.9084 17.2927 33.5151 16.8442 33.5583 16.3191C33.6095 15.7201 33.9517 15.3796 34.5247 15.3072C34.7203 15.2948 34.9165 15.2948 35.1121 15.3072V15.3017Z" fill="#4D7ABD"/>
<path id="Vector_10" d="M24.0978 26.7445C24.0978 26.6761 24.0978 26.6077 24.0978 26.5393C24.1057 25.6628 24.4781 25.1514 25.1075 25.1528C25.7368 25.1541 26.0922 25.6464 26.1027 26.5489C26.1027 26.7978 26.1027 27.048 26.0869 27.2969C26.0397 27.9054 25.7014 28.2541 25.1311 28.3088C24.6157 28.3594 24.1699 27.8986 24.107 27.2873C24.097 27.1052 24.097 26.9225 24.107 26.7404L24.0978 26.7445Z" fill="#4D7ABD"/>
<path id="Vector_11" d="M15.1697 15.2798C15.408 15.2826 15.6458 15.3064 15.8803 15.3509C16.3799 15.4877 16.6553 15.8391 16.6304 16.3957C16.6054 16.9522 16.3052 17.2831 15.7872 17.3529C15.3987 17.4021 15.0064 17.4103 14.6163 17.3775C14.0066 17.3255 13.6119 16.8852 13.6224 16.3327C13.6329 15.7803 14.0433 15.3619 14.6465 15.3072C14.8196 15.2921 14.9939 15.3072 15.171 15.3072L15.1697 15.2798Z" fill="#4D7ABD"/>
<path id="Vector_12" d="M26.1158 5.96889C26.1013 6.19589 26.1027 6.42425 26.0686 6.65261C25.986 7.19959 25.6752 7.49906 25.1441 7.52368C24.6131 7.54829 24.2355 7.25702 24.1555 6.73466C24.0801 6.221 24.0827 5.69815 24.1633 5.18535C24.246 4.66025 24.6406 4.36488 25.1586 4.39907C25.6765 4.43325 25.9951 4.75323 26.0764 5.29748C26.1027 5.51353 26.1013 5.74326 26.1158 5.96889Z" fill="#4D7ABD"/>
</g>
</g>
<defs>
<clipPath id="clip0_2031_2586">
<rect width="67" height="48" fill="white"/>
</clipPath>
</defs>
</svg>
