<svg width="34" height="35" viewBox="0 0 34 35" fill="none" xmlns="http://www.w3.org/2000/svg">
<g id="play">
<path id="Icon" fill-rule="evenodd" clip-rule="evenodd" d="M10.2596 3.34346C11.6626 3.80556 13.2755 4.65387 15.1958 5.77335C15.6729 6.0515 15.8342 6.66378 15.5561 7.1409C15.2779 7.61803 14.6656 7.77932 14.1885 7.50117C12.275 6.3856 10.8197 5.63362 9.63397 5.24308C8.4679 4.85901 7.67051 4.8607 7.00652 5.1225C6.57866 5.2912 6.17732 5.52693 5.81676 5.82221C5.29866 6.2465 4.90922 6.8852 4.63585 7.93969C4.35787 9.01197 4.22042 10.4337 4.15758 12.3369C4.13936 12.8889 3.67712 13.3216 3.12513 13.3034C2.57315 13.2852 2.14045 12.8229 2.15867 12.2709C2.22245 10.3392 2.36381 8.73403 2.69985 7.4378C3.0405 6.12379 3.60027 5.0523 4.54958 4.27487L5.18317 5.04854L4.54958 4.27487C5.06938 3.84918 5.65049 3.50732 6.27292 3.2619C7.52507 2.7682 8.83699 2.87489 10.2596 3.34346ZM18.752 9.07902C19.0397 8.60764 19.6552 8.4588 20.1265 8.74658C22.7719 10.3616 24.844 11.6587 26.2958 12.8788C27.7577 14.1075 28.7353 15.3755 28.9711 16.9732C29.0686 17.6344 29.0686 18.307 28.9711 18.9682C28.7196 20.6729 27.6235 22.0032 25.9905 23.3131C24.375 24.6089 22.0565 26.0205 19.0814 27.8317L19.0146 27.8724L18.9461 27.9141C15.8787 29.7816 13.4898 31.236 11.5576 32.0917C9.61172 32.9533 7.89374 33.3186 6.27292 32.6795C5.65049 32.4341 5.06938 32.0922 4.54958 31.6665L5.16614 30.9137L4.54958 31.6665C3.23392 30.5891 2.65068 29.1157 2.37434 27.088C2.10544 25.1148 2.10545 22.4319 2.10547 18.7715L2.10547 18.6789C2.10547 18.1266 2.55318 17.6789 3.10547 17.6789C3.65775 17.6789 4.10547 18.1266 4.10547 18.6789C4.10547 22.4516 4.10777 24.9963 4.35602 26.818C4.59912 28.6017 5.05472 29.4951 5.81676 30.1192L5.18317 30.8929L5.81676 30.1192C6.17731 30.4145 6.57866 30.6502 7.00652 30.8189C7.86449 31.1572 8.94857 31.0597 10.7478 30.2629C12.5462 29.4665 14.8242 28.0821 17.9745 26.1641C21.0306 24.3035 23.2369 22.9579 24.7391 21.753C26.2358 20.5525 26.8517 19.6304 26.9925 18.6763C27.0615 18.2086 27.0615 17.7328 26.9925 17.2651C26.8607 16.3716 26.3123 15.5053 25.009 14.4099C23.6955 13.3059 21.7633 12.0891 19.0844 10.4536C18.613 10.1658 18.4642 9.5504 18.752 9.07902Z" fill="#293880"/>
</g>
</svg>
