<svg width="18" height="19" viewBox="0 0 18 19" fill="none" xmlns="http://www.w3.org/2000/svg">
<g id="Frame">
<path id="Vector" d="M5.44021 14.3708L5.98375 14.6877C6.89182 15.2172 7.92382 15.5 9.00075 15.5C12.3145 15.5 15.0007 12.8137 15.0007 9.5C15.0007 6.18629 12.3145 3.5 9.00075 3.5C5.68702 3.5 3.00073 6.18629 3.00073 9.5C3.00073 10.5772 3.28366 11.6096 3.81349 12.5178L4.13028 13.0609L3.64016 14.8621L5.44021 14.3708ZM1.50387 17L2.51784 13.2736C1.8712 12.1652 1.50073 10.8759 1.50073 9.5C1.50073 5.35786 4.8586 2 9.00075 2C13.1428 2 16.5007 5.35786 16.5007 9.5C16.5007 13.6421 13.1428 17 9.00075 17C7.62532 17 6.33638 16.6298 5.22814 15.9835L1.50387 17ZM6.29424 5.98125C6.39465 5.97419 6.4954 5.97311 6.59594 5.97801C6.63656 5.98068 6.67698 5.98538 6.71744 5.99005C6.83688 6.00384 6.96823 6.07659 7.01239 6.17671C7.23613 6.68402 7.45323 7.19424 7.66365 7.70722C7.71007 7.82046 7.6821 7.96725 7.59375 8.10928C7.5489 8.1821 7.47846 8.28425 7.39686 8.38873C7.31204 8.49725 7.12949 8.69683 7.12949 8.69683C7.12949 8.69683 7.05553 8.78547 7.08341 8.8958C7.09427 8.9375 7.1289 8.99825 7.16031 9.04932C7.1777 9.0776 7.19385 9.10288 7.20433 9.12035C7.39627 9.44082 7.65427 9.76572 7.96942 10.0712C8.05972 10.1587 8.14732 10.248 8.24152 10.331C8.59275 10.6407 8.9901 10.8937 9.41925 11.0812L9.42307 11.0829C9.48645 11.1102 9.519 11.1251 9.61177 11.1645C9.65857 11.1843 9.70642 11.2014 9.75555 11.2143C9.77332 11.219 9.79155 11.2216 9.80985 11.2229C9.93112 11.2302 10.0012 11.1524 10.0312 11.1166C10.5738 10.4593 10.6234 10.4164 10.6272 10.4167V10.4178C10.6985 10.3427 10.8106 10.3166 10.9107 10.3228C10.9564 10.3255 11.0018 10.3343 11.0434 10.3533C11.4422 10.5352 12.0943 10.819 12.0943 10.819L12.5305 11.0151C12.6035 11.0503 12.6702 11.1334 12.6734 11.2141C12.6754 11.2642 12.6808 11.3452 12.6628 11.4934C12.6394 11.6874 12.5803 11.9211 12.5217 12.0435C12.4804 12.1293 12.427 12.2056 12.3649 12.2701C12.2807 12.3575 12.2182 12.4106 12.1169 12.486C12.0553 12.5319 12.0233 12.5535 12.0233 12.5535C11.9191 12.6192 11.8604 12.6521 11.7363 12.7182C11.5432 12.821 11.3299 12.8801 11.1115 12.8913C10.9722 12.8985 10.8333 12.9085 10.6942 12.901C10.688 12.9007 10.268 12.8362 10.268 12.8362C9.2016 12.5556 8.21535 12.0302 7.38775 11.3015C7.21854 11.1526 7.06162 10.9914 6.90145 10.8319C6.23466 10.1681 5.72986 9.4523 5.42376 8.7752C5.27282 8.4413 5.17724 8.0837 5.17573 7.71574C5.17297 7.26054 5.32199 6.8174 5.59927 6.4564C5.65392 6.38523 5.7058 6.31141 5.79531 6.22689C5.89011 6.13738 5.95044 6.08933 6.01542 6.05608C6.10205 6.01177 6.19719 5.98807 6.29424 5.98125Z" fill="#97B3DD"/>
</g>
</svg>
