<svg width="19" height="19" viewBox="0 0 19 19" fill="none" xmlns="http://www.w3.org/2000/svg">
<g id="Frame">
<path id="Vector" d="M5.77932 14.4771L6.32286 14.794C7.23093 15.3235 8.26293 15.6063 9.33986 15.6063C12.6536 15.6063 15.3399 12.92 15.3399 9.60629C15.3399 6.29258 12.6536 3.60629 9.33986 3.60629C6.02613 3.60629 3.33984 6.29258 3.33984 9.60629C3.33984 10.6835 3.62277 11.7159 4.1526 12.6241L4.46939 13.1671L3.97927 14.9683L5.77932 14.4771ZM1.84298 17.1063L2.85695 13.3799C2.21031 12.2715 1.83984 10.9822 1.83984 9.60629C1.83984 5.46416 5.19771 2.10629 9.33986 2.10629C13.482 2.10629 16.8399 5.46416 16.8399 9.60629C16.8399 13.7484 13.482 17.1063 9.33986 17.1063C7.96443 17.1063 6.67549 16.7361 5.56725 16.0898L1.84298 17.1063ZM6.63335 6.08754C6.73376 6.08048 6.83451 6.0794 6.93505 6.08431C6.97567 6.08698 7.0161 6.09167 7.05655 6.09634C7.176 6.11014 7.30734 6.18288 7.3515 6.283C7.57524 6.79031 7.79234 7.30053 8.00276 7.81351C8.04918 7.92676 8.02121 8.07354 7.93286 8.21557C7.88801 8.28839 7.81757 8.39054 7.73597 8.49502C7.65115 8.60354 7.4686 8.80312 7.4686 8.80312C7.4686 8.80312 7.39464 8.89177 7.42252 9.00209C7.43338 9.04379 7.46802 9.10454 7.49942 9.15562C7.51681 9.18389 7.53296 9.20917 7.54344 9.22664C7.73538 9.54712 7.99338 9.87202 8.30853 10.1775C8.39883 10.265 8.48643 10.3543 8.58063 10.4373C8.93186 10.747 9.32921 11 9.75836 11.1874L9.76218 11.1892C9.82556 11.2165 9.85811 11.2314 9.95088 11.2708C9.99768 11.2906 10.0455 11.3077 10.0947 11.3206C10.1124 11.3253 10.1307 11.3279 10.149 11.3292C10.2702 11.3365 10.3404 11.2587 10.3703 11.2229C10.9129 10.5655 10.9626 10.5226 10.9663 10.5229V10.5241C11.0376 10.449 11.1498 10.4229 11.2498 10.429C11.2955 10.4318 11.3409 10.4406 11.3825 10.4596C11.7813 10.6415 12.4335 10.9253 12.4335 10.9253L12.8696 11.1214C12.9426 11.1566 13.0093 11.2396 13.0125 11.3203C13.0145 11.3705 13.0199 11.4515 13.002 11.5997C12.9785 11.7937 12.9195 12.0274 12.8608 12.1498C12.8196 12.2356 12.7662 12.3118 12.7041 12.3763C12.6198 12.4638 12.5573 12.5169 12.456 12.5923C12.3944 12.6382 12.3624 12.6598 12.3624 12.6598C12.2583 12.7255 12.1995 12.7584 12.0754 12.8245C11.8824 12.9273 11.6691 12.9864 11.4506 12.9976C11.3113 13.0048 11.1724 13.0148 11.0333 13.0073C11.0271 13.0069 10.6071 12.9424 10.6071 12.9424C9.54071 12.6619 8.55446 12.1365 7.72686 11.4078C7.55766 11.2588 7.40073 11.0977 7.24056 10.9382C6.57377 10.2744 6.06897 9.55859 5.76288 8.88149C5.61193 8.54759 5.51635 8.18999 5.51484 7.82203C5.51208 7.36683 5.6611 6.92369 5.93838 6.56269C5.99304 6.49152 6.04491 6.41771 6.13443 6.33319C6.22922 6.24368 6.28955 6.19562 6.35454 6.16238C6.44116 6.11806 6.53631 6.09436 6.63335 6.08754Z" fill="#293881"/>
</g>
</svg>
