<svg width="18" height="20" viewBox="0 0 18 20" fill="none" xmlns="http://www.w3.org/2000/svg">
<g id="Layer_1" clip-path="url(#clip0_2031_2641)">
<g id="xkDHQt.tif">
<path id="Vector" d="M18 0.488699C17.4595 1.03657 16.9198 1.58431 16.3809 2.13191C16.286 2.22802 16.1842 2.31639 16.08 2.41331C16.1328 2.84865 16.1822 3.27055 16.2349 3.69245C16.363 4.72562 16.5118 5.75716 16.6148 6.79277C16.6796 7.44436 16.6995 8.10205 16.7011 8.75689C16.7098 11.9201 16.7106 15.083 16.7036 18.2456C16.7036 18.7823 16.4514 19.1822 15.9738 19.4164C15.4963 19.6506 15.028 19.5923 14.6072 19.2653C14.2922 19.021 14.1207 18.6878 14.1207 18.2839C14.1183 12.8719 14.1199 7.4601 14.1256 2.04843C14.133 1.9174 14.1902 1.79423 14.2853 1.70431C14.8934 1.17816 15.5105 0.66422 16.1328 0.156799C16.2225 0.0898908 16.3304 0.051843 16.4421 0.0476586C16.8126 0.034627 17.184 0.0509165 17.5545 0.0391066C17.7446 0.0317763 17.8946 0.0814595 18 0.244355V0.488699ZM14.7819 14.3536C14.7747 14.3713 14.7694 14.3897 14.7661 14.4086C14.7661 15.6868 14.7661 16.9653 14.7661 18.2444C14.7642 18.3466 14.7875 18.4478 14.8341 18.5388C14.8806 18.6298 14.9489 18.7077 15.0329 18.7656C15.2417 18.9147 15.4667 18.942 15.6982 18.8222C15.9438 18.6956 16.0582 18.4826 16.0586 18.2114C16.0605 16.953 16.0605 15.6946 16.0586 14.4363C16.0562 14.4088 16.0519 14.3816 16.0456 14.3548L14.7819 14.3536ZM16.0087 7.18617C15.9532 6.72558 15.9017 6.2825 15.8465 5.83983C15.7046 4.70635 15.5615 3.573 15.4172 2.43979C15.4043 2.36318 15.4109 2.28454 15.4364 2.21119C15.462 2.13784 15.5056 2.07218 15.5632 2.02033C15.9491 1.64241 16.3278 1.25635 16.7084 0.872726C16.7583 0.822636 16.8049 0.76888 16.8706 0.697206H16.4964L14.7799 2.13639V7.18617H16.0087ZM16.0423 8.48933V7.85648H14.7791V8.49015L16.0423 8.48933ZM14.7755 9.15232V9.78028H16.0436V9.15313L14.7755 9.15232ZM14.7722 11.0802H16.0428V10.4547H14.7722V11.0802ZM14.7771 11.753V12.3801H16.0492V11.7538L14.7771 11.753ZM14.7714 13.68H16.0488V13.0565H14.7714V13.68Z" fill="#2273EC"/>
<path id="Vector_2" d="M2.79943 4.90073V6.54395C2.90281 6.54395 3.00741 6.54395 3.112 6.54395C3.48822 6.55046 3.76065 6.82046 3.76065 7.20082C3.76065 10.8988 3.76065 14.597 3.76065 18.2953C3.76065 18.992 3.16876 19.5492 2.4593 19.5467C1.76322 19.5443 1.17578 18.9823 1.17578 18.2949C1.172 14.596 1.172 10.8979 1.17578 7.20042C1.17578 6.81843 1.44538 6.54883 1.82443 6.54395C1.92416 6.54395 2.02389 6.54395 2.13497 6.54395V4.90033C1.36714 4.76472 0.766731 4.37947 0.369839 3.70589C0.0595748 3.18951 -0.0419781 2.57336 0.0860549 1.98408C0.320785 0.842996 1.35822 -0.0456015 2.67943 0.0407333C3.79268 0.113222 4.79362 1.09671 4.88849 2.24227C4.99389 3.51082 4.15957 4.66779 2.79943 4.90073ZM4.24714 2.47399C4.24714 1.50476 3.43632 0.689466 2.46822 0.690281C1.99852 0.694616 1.54922 0.883666 1.21667 1.21689C0.884118 1.55011 0.694793 2.00096 0.689298 2.47277C0.684839 3.44485 1.4916 4.26463 2.45727 4.26748C2.93048 4.26513 3.38371 4.07556 3.71875 3.73985C4.05378 3.40414 4.24362 2.94934 4.24714 2.47399ZM3.10105 15.3122V10.7853H1.83051V15.3122H3.10105ZM3.09862 10.115V7.20815H1.83497V10.1175L3.09862 10.115ZM1.83822 15.9793C1.83108 15.9972 1.82578 16.0157 1.82241 16.0347C1.82241 16.7445 1.81916 17.4547 1.81997 18.1645C1.81997 18.5925 2.08876 18.8947 2.46416 18.8976C2.83957 18.9004 3.11281 18.597 3.11281 18.1715C3.11281 17.4885 3.11281 16.8056 3.11281 16.1226C3.11281 16.0774 3.10714 16.0322 3.10349 15.9797L1.83822 15.9793Z" fill="#293880"/>
<path id="Vector_3" d="M8.61604 3.94291C8.61604 3.43956 8.61888 2.96024 8.61239 2.48091C8.61239 2.42024 8.56902 2.35589 8.53334 2.30091C8.37118 2.05128 8.20375 1.80653 8.04402 1.55567C7.90942 1.34431 7.94834 1.1696 8.15915 1.04091C8.67104 0.728154 9.18456 0.418245 9.69969 0.111186C9.90239 -0.0109859 10.0877 0.0321815 10.1862 0.210553C10.2802 0.377928 10.2267 0.554263 10.0325 0.673177C9.61375 0.929738 9.19212 1.18141 8.7551 1.44693C8.88807 1.64811 9.0255 1.83218 9.13537 2.03132C9.20534 2.15123 9.24695 2.28568 9.25699 2.42431C9.27077 2.92318 9.26266 3.42286 9.26266 3.94453C9.40334 3.94453 9.49577 3.94453 9.58699 3.94453C9.95672 3.95024 10.2296 4.21331 10.2296 4.58105C10.2317 8.05481 10.2317 11.5283 10.2296 15.0015C10.2296 15.3729 9.96158 15.6401 9.59469 15.6466C9.49375 15.6486 9.39199 15.6466 9.27564 15.6466V16.9782C9.33523 17.0043 9.40821 17.0348 9.47834 17.0682C10.0196 17.3211 10.3264 17.9234 10.2044 18.4936C10.069 19.124 9.57037 19.5447 8.94766 19.5496C8.63104 19.552 8.31402 19.5524 7.99739 19.5496C7.77483 19.5496 7.64064 19.4217 7.64185 19.2238C7.64307 19.0258 7.77726 18.9041 8.00104 18.902C8.2905 18.8992 8.58037 18.902 8.87023 18.902C9.25496 18.8976 9.51604 18.6862 9.57523 18.3368C9.62591 18.0383 9.43658 17.7561 9.09929 17.6278C8.75469 17.4967 8.6128 17.2914 8.6128 16.9204C8.6128 16.5079 8.6128 16.0949 8.6128 15.6498C8.49483 15.6498 8.38375 15.6519 8.27266 15.6498C7.91631 15.6425 7.64348 15.3762 7.64307 15.0202C7.64145 11.54 7.64145 8.05969 7.64307 4.57942C7.64307 4.22227 7.91469 3.95553 8.27023 3.9482C8.38091 3.94128 8.48834 3.94291 8.61604 3.94291ZM9.5728 12.7116V6.88236H8.30023V12.7116H9.5728ZM9.57483 6.21123V4.60182H8.30064V6.21123H9.57483ZM9.5728 15.0007V13.3864H8.30185V14.9885C8.32996 14.9942 8.35839 14.9981 8.38699 15.0003C8.77739 15.0011 9.1678 15.0007 9.5728 15.0007Z" fill="#2273EC"/>
<path id="Vector_4" d="M3.59891 2.42227C3.60174 2.64869 3.48945 2.79082 3.2981 2.80263C3.10674 2.81444 2.98553 2.69879 2.95188 2.46625C2.91134 2.18118 2.76337 2.03295 2.48323 1.99222C2.24283 1.95761 2.12445 1.82933 2.14634 1.62571C2.16661 1.43797 2.3085 1.33494 2.5408 1.34064C3.09458 1.35815 3.5912 1.86517 3.59891 2.42227Z" fill="#293880"/>
</g>
</g>
<defs>
<clipPath id="clip0_2031_2641">
<rect width="18" height="19.5882" fill="white"/>
</clipPath>
</defs>
</svg>
