<svg width="25" height="25" viewBox="0 0 25 25" fill="none" xmlns="http://www.w3.org/2000/svg">
<g id="Email">
<path id="Subtract" fill-rule="evenodd" clip-rule="evenodd" d="M3.5622 6.12421C2.39062 7.29578 2.39062 9.1814 2.39062 12.9526C2.39062 16.7239 2.39062 18.6095 3.5622 19.7811C4.73377 20.9526 6.61939 20.9526 10.3906 20.9526H14.3906C18.1619 20.9526 20.0475 20.9526 21.2191 19.7811C22.3906 18.6095 22.3906 16.7239 22.3906 12.9526C22.3906 9.1814 22.3906 7.29578 21.2191 6.12421C20.0475 4.95264 18.1619 4.95264 14.3906 4.95264H10.3906C6.61939 4.95264 4.73377 4.95264 3.5622 6.12421ZM6.80665 8.3286C6.462 8.09883 5.99635 8.19197 5.76659 8.53661C5.53682 8.88126 5.62995 9.34691 5.9746 9.57667L11.9746 13.5767C12.2265 13.7446 12.5547 13.7446 12.8067 13.5767L18.8067 9.57667C19.1513 9.34691 19.2444 8.88126 19.0147 8.53661C18.7849 8.19197 18.3192 8.09883 17.9746 8.3286L12.3906 12.0512L6.80665 8.3286Z" fill="#293881"/>
</g>
</svg>
