<svg width="25" height="25" viewBox="0 0 25 25" fill="none" xmlns="http://www.w3.org/2000/svg">
<g id="Frame" clip-path="url(#clip0_2493_3903)">
<path id="Vector" d="M2.34385 22.9299L3.6924 17.9746C2.80381 16.4513 2.33696 14.7189 2.33986 12.9554C2.33986 7.4465 6.80543 2.98093 12.3143 2.98093C17.8232 2.98093 22.2888 7.4465 22.2888 12.9554C22.2888 18.4643 17.8232 22.9299 12.3143 22.9299C10.5516 22.9327 8.81993 22.4662 7.29717 21.5783L2.34385 22.9299ZM8.71455 8.27538C8.58574 8.28338 8.45987 8.31731 8.3445 8.37513C8.23629 8.4364 8.13752 8.513 8.05125 8.60254C7.93155 8.71526 7.86373 8.81301 7.79091 8.90776C7.42227 9.38753 7.22397 9.97645 7.22735 10.5815C7.22935 11.0702 7.35702 11.546 7.55651 11.9909C7.96447 12.8906 8.63575 13.8431 9.52248 14.7259C9.73594 14.9383 9.9444 15.1518 10.1688 15.3503C11.2694 16.3193 12.5809 17.0181 13.999 17.3911L14.5666 17.4778C14.7511 17.4878 14.9356 17.4738 15.1212 17.4649C15.4117 17.4499 15.6953 17.3712 15.952 17.2345C16.1176 17.1467 16.1954 17.1028 16.3341 17.015C16.3341 17.015 16.3769 16.9871 16.4587 16.9253C16.5934 16.8255 16.6762 16.7547 16.7879 16.638C16.8707 16.5522 16.9425 16.4515 16.9974 16.3368C17.0752 16.1742 17.153 15.864 17.1849 15.6056C17.2088 15.4081 17.2018 15.3004 17.1988 15.2336C17.1949 15.1269 17.1061 15.0161 17.0093 14.9693L16.4288 14.7089C16.4288 14.7089 15.561 14.3309 15.0314 14.0895C14.9755 14.0652 14.9157 14.0513 14.8548 14.0486C14.7866 14.0416 14.7176 14.0493 14.6526 14.0711C14.5876 14.093 14.528 14.1285 14.4778 14.1753V14.1733C14.4728 14.1733 14.406 14.2301 13.6848 15.1039C13.6434 15.1595 13.5864 15.2016 13.5211 15.2247C13.4557 15.2478 13.3849 15.2509 13.3178 15.2336C13.2528 15.2162 13.1891 15.1942 13.1273 15.1677C13.0036 15.1159 12.9607 15.0959 12.8759 15.059L12.8709 15.057C12.3003 14.8079 11.7719 14.4714 11.3049 14.0596C11.1792 13.9499 11.0625 13.8302 10.9428 13.7145C10.5504 13.3387 10.2084 12.9135 9.92545 12.4497L9.8666 12.3549C9.82433 12.2913 9.79016 12.2226 9.76486 12.1505C9.72696 12.0038 9.82571 11.8861 9.82571 11.8861C9.82571 11.8861 10.0681 11.6208 10.1808 11.4772C10.2746 11.3578 10.3622 11.2336 10.4431 11.1051C10.5608 10.9156 10.5977 10.7211 10.5359 10.5705C10.2566 9.88826 9.96734 9.20899 9.6701 8.53472C9.61125 8.40106 9.4367 8.3053 9.27811 8.28635C9.22424 8.28037 9.17038 8.27438 9.11652 8.27039C8.98257 8.26374 8.84834 8.26507 8.71455 8.27438V8.27538Z" fill="#293881"/>
</g>
<defs>
<clipPath id="clip0_2493_3903">
<rect width="23.9388" height="23.9388" fill="white" transform="translate(0.34375 0.983276)"/>
</clipPath>
</defs>
</svg>
