<svg width="21" height="23" viewBox="0 0 21 23" fill="none" xmlns="http://www.w3.org/2000/svg">
<path id="Union" fill-rule="evenodd" clip-rule="evenodd" d="M7.1286 1.20405C7.1286 0.788179 6.79147 0.45105 6.37559 0.45105C5.95972 0.45105 5.62259 0.78818 5.62259 1.20405V2.46815C4.89992 2.48662 4.3455 2.54187 3.85507 2.70624C2.43705 3.18151 1.32411 4.29446 0.848834 5.71248C0.601035 6.45181 0.60125 7.33658 0.601587 8.72397L0.601612 8.88167V13.252L0.601612 13.3087C0.601596 15.1538 0.601583 16.6152 0.755359 17.759C0.913618 18.9361 1.24706 19.8889 1.99842 20.6402C2.74978 21.3916 3.70252 21.725 4.87964 21.8833C6.02339 22.0371 7.48482 22.037 9.32989 22.037H9.32994H9.38662H11.3946H11.4513H11.4513C13.2964 22.037 14.7578 22.0371 15.9016 21.8833C17.0787 21.725 18.0315 21.3916 18.7828 20.6402C19.5342 19.8889 19.8676 18.9361 20.0259 17.759C20.1796 16.6152 20.1796 15.1538 20.1796 13.3087V13.3086V13.252V11.244V11.1874V11.1874C20.1796 9.34226 20.1796 7.88081 20.0259 6.73704C19.8676 5.55993 19.5342 4.60718 18.7828 3.85583C18.0315 3.10447 17.0787 2.77103 15.9016 2.61277C15.6674 2.58129 15.42 2.55625 15.1586 2.53634V1.20405C15.1586 0.788179 14.8215 0.45105 14.4056 0.45105C13.9898 0.45105 13.6526 0.78818 13.6526 1.20405V2.47177C12.9882 2.45901 12.2563 2.45901 11.4513 2.45902H11.4513L11.3946 2.45902H7.1286V1.20405ZM13.6526 4.21605V3.97814C12.9975 3.96534 12.2516 3.96502 11.3946 3.96502H7.1286V4.21605C7.1286 4.63192 6.79147 4.96905 6.37559 4.96905C5.95972 4.96905 5.62259 4.63192 5.62259 4.21605V3.9758C4.99303 3.99222 4.63512 4.03313 4.33366 4.13417C3.36344 4.45936 2.60195 5.22085 2.27676 6.19107C2.11745 6.66639 2.10761 7.28208 2.10761 8.88167V13.252C2.10761 15.1665 2.10921 16.5266 2.24793 17.5583C2.38374 18.5684 2.63842 19.1504 3.06332 19.5753C3.48823 20.0002 4.07019 20.2549 5.08031 20.3907C6.11208 20.5294 7.47217 20.531 9.38662 20.531H11.3946C13.3091 20.531 14.6691 20.5294 15.7009 20.3907C16.711 20.2549 17.293 20.0002 17.7179 19.5753C18.1428 19.1504 18.3975 18.5684 18.5333 17.5583C18.672 16.5266 18.6736 15.1665 18.6736 13.252V11.244C18.6736 9.32957 18.672 7.96949 18.5333 6.93771C18.3975 5.9276 18.1428 5.34563 17.7179 4.92073C17.293 4.49583 16.711 4.24114 15.7009 4.10534C15.5296 4.0823 15.3491 4.06304 15.1586 4.04695V4.21605C15.1586 4.63192 14.8215 4.96905 14.4056 4.96905C13.9898 4.96905 13.6526 4.63192 13.6526 4.21605ZM5.36963 7.47899C4.95376 7.47899 4.61663 7.81612 4.61663 8.23199C4.61663 8.64786 4.95376 8.98499 5.36963 8.98499H15.4096C15.8255 8.98499 16.1626 8.64786 16.1626 8.23199C16.1626 7.81612 15.8255 7.47899 15.4096 7.47899H5.36963ZM7.37763 12.248C7.37763 12.8025 6.92813 13.252 6.37363 13.252C5.81914 13.252 5.36963 12.8025 5.36963 12.248C5.36963 11.6935 5.81914 11.244 6.37363 11.244C6.92813 11.244 7.37763 11.6935 7.37763 12.248ZM6.37363 17.268C6.92813 17.268 7.37763 16.8185 7.37763 16.264C7.37763 15.7095 6.92813 15.26 6.37363 15.26C5.81914 15.26 5.36963 15.7095 5.36963 16.264C5.36963 16.8185 5.81914 17.268 6.37363 17.268ZM11.3956 16.264C11.3956 16.8185 10.9461 17.268 10.3916 17.268C9.8371 17.268 9.3876 16.8185 9.3876 16.264C9.3876 15.7095 9.8371 15.26 10.3916 15.26C10.9461 15.26 11.3956 15.7095 11.3956 16.264ZM14.4066 17.268C14.9611 17.268 15.4106 16.8185 15.4106 16.264C15.4106 15.7095 14.9611 15.26 14.4066 15.26C13.8521 15.26 13.4026 15.7095 13.4026 16.264C13.4026 16.8185 13.8521 17.268 14.4066 17.268ZM11.3956 12.248C11.3956 12.8025 10.9461 13.252 10.3916 13.252C9.8371 13.252 9.3876 12.8025 9.3876 12.248C9.3876 11.6935 9.8371 11.244 10.3916 11.244C10.9461 11.244 11.3956 11.6935 11.3956 12.248ZM14.4066 13.252C14.9611 13.252 15.4106 12.8025 15.4106 12.248C15.4106 11.6935 14.9611 11.244 14.4066 11.244C13.8521 11.244 13.4026 11.6935 13.4026 12.248C13.4026 12.8025 13.8521 13.252 14.4066 13.252Z" fill="#293881"/>
</svg>
