<svg width="19" height="19" viewBox="0 0 19 19" fill="none" xmlns="http://www.w3.org/2000/svg">
<g id="import-2">
<path id="Icon" fill-rule="evenodd" clip-rule="evenodd" d="M9.92191 1.95264C9.92191 1.64198 9.67007 1.39014 9.35941 1.39014C9.04875 1.39014 8.79691 1.64198 8.79691 1.95264V11.8446L6.75715 9.80489C6.53748 9.58522 6.18133 9.58522 5.96166 9.80489C5.74199 10.0246 5.74199 10.3807 5.96166 10.6004L8.96166 13.6004C9.06715 13.7059 9.21022 13.7651 9.35941 13.7651C9.50859 13.7651 9.65166 13.7059 9.75715 13.6004L12.7572 10.6004C12.9768 10.3807 12.9768 10.0246 12.7572 9.80489C12.5375 9.58522 12.1813 9.58522 11.9617 9.80489L9.92191 11.8446V1.95264ZM5.9844 5.89014L5.87715 5.89012C4.93355 5.88991 4.33212 5.88978 3.82525 6.04355C2.68668 6.38894 1.79569 7.27992 1.45031 8.41849C1.29655 8.92537 1.29668 9.5268 1.29689 10.4704L1.29691 10.5777V12.1526V12.1774C1.2969 12.9965 1.2969 13.6456 1.33965 14.1688C1.38336 14.7039 1.47457 15.1566 1.6852 15.57C2.02674 16.2403 2.57174 16.7853 3.24206 17.1269C3.65545 17.3375 4.10816 17.4287 4.64321 17.4724C5.16642 17.5152 5.81554 17.5152 6.63464 17.5151H6.65941L12.0594 17.5152H12.0842C12.9033 17.5152 13.5524 17.5152 14.0756 17.4724C14.6106 17.4287 15.0634 17.3375 15.4767 17.1269C16.1471 16.7853 16.6921 16.2403 17.0336 15.57C17.2442 15.1566 17.3354 14.7039 17.3792 14.1688C17.4219 13.6456 17.4219 12.9965 17.4219 12.1775V12.1774V12.1526V10.5777L17.4219 10.4704C17.4221 9.5268 17.4223 8.92537 17.2685 8.41849C16.9231 7.27992 16.0321 6.38894 14.8936 6.04355C14.3867 5.88978 13.7853 5.88992 12.8417 5.89012L12.7344 5.89014L12.7344 6.45264L12.7344 5.89014L12.3594 5.89015C12.0487 5.89016 11.7969 6.14201 11.7969 6.45267C11.7969 6.76333 12.0488 7.01516 12.3594 7.01515L12.7344 7.01514H12.7344C13.822 7.01514 14.2411 7.02125 14.567 7.1201C15.346 7.35642 15.9556 7.96604 16.1919 8.74506C16.2908 9.07094 16.2969 9.49004 16.2969 10.5777V12.1526C16.2969 13.002 16.2965 13.6052 16.2579 14.0772C16.2199 14.5427 16.1476 14.8309 16.0312 15.0593C15.7975 15.5179 15.4247 15.8908 14.966 16.1245C14.7377 16.2408 14.4495 16.3131 13.984 16.3511C13.512 16.3897 12.9088 16.3902 12.0594 16.3902L6.65941 16.3901C5.81005 16.3901 5.20685 16.3897 4.73482 16.3511C4.26935 16.3131 3.98116 16.2408 3.7528 16.1245C3.29416 15.8908 2.92127 15.5179 2.68758 15.0593C2.57122 14.8309 2.49894 14.5427 2.46091 14.0772C2.42234 13.6052 2.42191 13.002 2.42191 12.1526L2.42191 10.5777C2.42191 9.49004 2.42801 9.07094 2.52687 8.74506C2.76318 7.96604 3.3728 7.35642 4.15182 7.1201C4.4777 7.02125 4.8968 7.01514 5.98439 7.01514H5.98441L6.35939 7.01515C6.67005 7.01516 6.92189 6.76333 6.92191 6.45267C6.92192 6.14201 6.67009 5.89016 6.35943 5.89015L5.98443 5.89014L5.98441 6.45264L5.9844 5.89014Z" fill="white"/>
</g>
</svg>
