<svg width="20" height="30" viewBox="0 0 20 30" fill="none" xmlns="http://www.w3.org/2000/svg">
<g id="Layer_1" clip-path="url(#clip0_2521_14494)">
<g id="TuowQf.tif">
<path id="Vector" d="M5.57855 29.6854C5.51902 29.6638 5.45474 29.6375 5.39105 29.6211C4.66488 29.4388 4.13157 29.0368 3.86253 28.3315C3.44389 27.2333 3.02604 26.1354 2.60899 25.0376C2.57042 24.9495 2.54747 24.8557 2.54114 24.76C2.54114 24.5029 2.68816 24.3311 2.93815 24.2867C3.18814 24.2423 3.37921 24.3843 3.47385 24.6093C3.61075 24.9312 3.72682 25.2614 3.85122 25.588C4.13871 26.3407 4.42322 27.095 4.7131 27.8471C4.93749 28.4314 5.39641 28.7236 6.01484 28.6961C6.5934 28.6692 7.03505 28.3034 7.18445 27.7138C7.52492 26.3695 7.86221 25.0245 8.19633 23.679C8.46775 22.5939 9.23082 21.9196 10.2385 21.8804C11.2825 21.8395 12.1813 22.4759 12.4408 23.4733C12.8123 24.9003 13.1664 26.3307 13.5194 27.7623C13.6753 28.3923 13.9533 28.6657 14.5128 28.6973C15.183 28.7353 15.6348 28.4735 15.833 27.8927C16.0776 27.1768 16.2991 26.4528 16.5288 25.7306C17.2014 23.613 17.9068 21.5047 18.5299 19.3736C18.7924 18.4784 18.8811 17.5341 19.0549 16.5817H0.960232C1.03997 17.6579 1.26474 18.7189 1.62866 19.7371C1.79473 20.1993 1.72747 20.4757 1.42034 20.582C1.1132 20.6884 0.878092 20.5154 0.714406 20.0596C0.272125 18.8117 0.0311316 17.5035 0.000141497 16.1826C-0.0117629 15.7911 0.144185 15.6368 0.545959 15.6362C1.70188 15.6362 2.85779 15.6362 4.02085 15.6362C4.46727 14.9385 5.04106 14.3729 5.82437 14.0877C6.28805 13.9194 6.79577 13.7956 7.28683 13.785C9.0463 13.7488 10.807 13.771 12.567 13.7704C13.9694 13.7704 15.0562 14.3548 15.8509 15.4784C15.8848 15.5258 15.9205 15.5719 15.9699 15.6362H19.0466C19.8531 15.6362 19.8597 15.6362 19.8597 16.4099C19.8597 17.8912 19.5174 19.3099 19.0668 20.7141C18.2835 23.1504 17.5165 25.5931 16.7657 28.0422C16.5062 28.8854 16.014 29.4569 15.1158 29.6474C15.0997 29.6503 15.0878 29.6725 15.0741 29.6854H14.2408C14.2182 29.6685 14.1973 29.6416 14.1723 29.6357C13.2658 29.4242 12.7224 28.8627 12.5016 27.9809C12.1551 26.5995 11.82 25.2152 11.4433 23.8426C11.3613 23.546 11.1891 23.281 10.9498 23.083C10.2748 22.5682 9.36117 22.9755 9.13737 23.8566C8.78024 25.2649 8.43025 26.6755 8.06597 28.0826C7.86062 28.8825 7.35468 29.4049 6.53328 29.6176C6.469 29.634 6.40769 29.6609 6.34519 29.6831L5.57855 29.6854ZM5.20832 15.614H14.7836C14.1604 15.0414 13.4771 14.7147 12.6795 14.7059C10.8804 14.6869 9.08102 14.6869 7.28147 14.7059C6.49102 14.7135 5.80175 15.0057 5.20832 15.614Z" fill="#293880"/>
<path id="Vector_2" d="M19.9999 7.81384C19.8707 8.08439 19.6565 8.17671 19.3535 8.16795C18.7309 8.15042 18.1077 8.16795 17.4845 8.1621C17.1274 8.1621 16.9417 7.9868 16.9488 7.6847C16.9559 7.39253 17.1363 7.23476 17.4803 7.23301C17.9732 7.23301 18.466 7.23301 18.9797 7.23301C18.9281 6.27914 18.7684 5.33389 18.5035 4.41476C18.3702 3.95956 18.2309 3.49852 18.0273 3.07079C17.8532 2.70258 17.6207 2.36376 17.3387 2.0669C16.725 1.43991 15.881 1.33531 15.1554 1.83316C14.6292 2.19524 14.1457 2.61366 13.7138 3.08072C12.3216 4.5848 10.5359 4.70576 8.97641 3.3577C8.46333 2.91477 7.90502 2.56767 7.21992 2.44555C6.16697 2.25856 5.28247 2.63955 4.45631 3.22388C4.37655 3.28232 4.30453 3.34776 4.22358 3.40327C3.99382 3.56104 3.73431 3.52423 3.56883 3.31445C3.40336 3.10468 3.41467 2.86802 3.63133 2.69331C3.89859 2.48061 4.19203 2.29771 4.47476 2.10371C4.54559 2.05521 4.62118 2.01372 4.70094 1.96464C3.88192 1.38615 2.87005 1.51996 2.27661 2.32108C2.00092 2.6995 1.77755 3.11213 1.61235 3.54819C1.15998 4.72037 1.01712 5.95332 0.957603 7.23769H15.5524C15.9738 7.23769 16.1691 7.40481 16.1429 7.7443C16.1244 7.99265 15.9833 8.13406 15.7339 8.16444C15.645 8.17088 15.5558 8.17205 15.4667 8.16795H0.690349C0.122508 8.16444 0.000488281 8.04757 0.000488281 7.48018C0.00465482 5.88553 0.229648 4.32243 0.914152 2.86101C1.11868 2.42008 1.394 2.01426 1.7296 1.65903C2.87362 0.473998 4.27953 0.422577 5.55449 1.47088L5.75806 1.64033H7.89252C10.0871 0.440107 11.5109 0.37583 14.1667 1.41829C14.6661 1.00925 15.2417 0.749221 15.9042 0.706564C16.9756 0.636444 17.7607 1.13079 18.3898 1.92607C19.0678 2.78271 19.3725 3.80062 19.6231 4.82905C19.7761 5.4578 19.8374 6.10875 19.9416 6.74918C19.9553 6.83391 19.9791 6.9163 19.9981 6.99986L19.9999 7.81384ZM13.4114 2.10546C11.8638 1.46269 10.3573 1.50301 8.83118 2.14345C10.3823 3.5926 11.596 4.03436 13.4114 2.10546Z" fill="#2273EC"/>
<path id="Vector_3" d="M10.444 11.1918C10.5583 11.124 10.6374 11.0749 10.7208 11.0288C10.9345 10.9166 11.1249 10.9551 11.2785 11.1334C11.4321 11.3116 11.4571 11.5249 11.3035 11.6926C10.9731 12.0526 10.6232 12.3949 10.2553 12.7181C10.0422 12.9027 9.79282 12.8501 9.58985 12.6521C9.30891 12.3792 9.02856 12.1057 8.75119 11.8287C8.51905 11.595 8.48274 11.3572 8.64048 11.1562C8.79821 10.9551 9.02975 10.9359 9.32915 11.1042C9.37022 11.1275 9.40891 11.155 9.497 11.2111C9.497 10.6437 9.49402 10.1166 9.497 9.59014C9.497 9.30206 9.64581 9.13085 9.89818 9.1028C10.2166 9.06774 10.4339 9.24655 10.4404 9.56676C10.4494 10.0973 10.444 10.6279 10.444 11.1918Z" fill="#293880"/>
<path id="Vector_4" d="M17.86 5.82757C17.8633 5.93992 17.825 6.04964 17.7521 6.13628C17.6791 6.22293 17.5766 6.2806 17.4636 6.29855C17.213 6.33302 17.0023 6.17759 16.9374 5.89419C16.8547 5.53541 16.8077 5.16728 16.6993 4.81609C16.5338 4.26974 16.335 3.73273 16.1416 3.19456C16.0321 2.88778 16.1101 2.67917 16.4011 2.55529C16.66 2.44602 16.9196 2.54244 17.01 2.83928C17.3029 3.80285 17.5719 4.77285 17.8499 5.74109C17.856 5.76955 17.8594 5.7985 17.86 5.82757Z" fill="#2273EC"/>
<path id="Vector_5" d="M2.17249 23.3267C2.10345 23.2612 1.93441 23.1631 1.86179 23.0199C1.72191 22.7552 1.62906 22.4665 1.52727 22.1837C1.47925 22.0657 1.48057 21.9339 1.53094 21.8168C1.58131 21.6998 1.67666 21.6069 1.79631 21.5585C1.91251 21.5132 2.04218 21.5146 2.15732 21.5624C2.27247 21.6102 2.36386 21.7005 2.41177 21.8138C2.54654 22.1043 2.66438 22.402 2.76474 22.7055C2.86235 23.007 2.60343 23.3214 2.17249 23.3267Z" fill="#293880"/>
</g>
</g>
<defs>
<clipPath id="clip0_2521_14494">
<rect width="20" height="29" fill="white" transform="translate(0 0.685425)"/>
</clipPath>
</defs>
</svg>
