<svg width="35" height="33" viewBox="0 0 35 33" fill="none" xmlns="http://www.w3.org/2000/svg">
<g id="J9TWJA.tif_1_">
<g id="Group">
<path id="Vector" d="M34.7443 4.76617C34.5673 5.0351 34.3338 5.14126 34.0083 5.1271C32.8901 5.08464 31.7719 5.18372 30.6608 5.06341C29.67 4.95725 28.7429 4.66002 27.8512 4.22124C26.5561 3.59138 25.261 2.9686 23.9659 2.34582C23.0954 1.92827 22.1683 1.73719 21.2058 1.73719C19.3941 1.73011 17.5824 1.73719 15.7707 1.73011C15.6008 1.73011 15.4451 1.75842 15.2965 1.82211C13.8174 2.43074 12.3383 3.04645 10.8521 3.648C10.6327 3.74 10.5478 3.84615 10.569 4.09385C10.6256 4.70248 10.9866 5.07756 11.6093 5.13418C12.5011 5.21203 13.322 4.92187 14.15 4.68125C14.3623 4.61756 14.5676 4.53971 14.7869 4.47601C15.1125 4.39109 15.3743 4.53263 15.4876 4.83694C15.5937 5.1271 15.4734 5.42434 15.1479 5.54465C14.2916 5.86312 13.4211 6.12497 12.5081 6.25943C11.949 6.34436 11.4041 6.33021 10.8804 6.13912C9.81177 5.76404 9.20314 4.62463 9.48623 3.53476C9.59238 3.11722 9.84716 2.81998 10.2647 2.65013C11.8146 2.02735 13.3574 1.38334 14.9002 0.739323C14.978 0.711014 15.0842 0.711014 15.1125 0.604858C17.4408 0.604858 19.7692 0.604858 22.1046 0.604858C22.1259 0.62609 22.1471 0.661475 22.1754 0.668552C23.0388 0.725169 23.8385 1.00825 24.617 1.38334C25.8555 1.98489 27.094 2.58644 28.3325 3.18799C29.1605 3.59138 30.0239 3.85323 30.9439 3.94523C31.9559 4.04431 32.9609 3.9877 33.9729 3.9877C34.3055 3.9877 34.5673 4.05847 34.7443 4.34863C34.7443 4.48309 34.7443 4.62463 34.7443 4.76617Z" fill="#293881"/>
<path id="Vector_2" d="M34.7441 11.5389C34.5672 11.8078 34.3337 11.9069 34.0081 11.8998C33.3004 11.8786 32.5998 11.8928 31.8921 11.8928C30.7244 11.8928 29.5779 11.9352 28.4173 12.2466C26.2021 12.8411 23.8596 11.9565 22.6494 10.1872C22.3593 9.76257 22.0125 9.52195 21.5596 9.33795C20.5334 8.91332 19.4789 8.55239 18.5023 8.02161C17.5044 7.47668 16.7472 6.71943 16.5561 5.54464C16.4429 4.86524 16.5844 4.21415 16.8746 3.59845C17.0232 3.2729 17.3133 3.21629 17.7238 3.38614C19.1604 3.98061 20.59 4.58216 22.0267 5.17663C22.6848 5.45264 23.343 5.72157 24.0012 5.9905C24.2489 6.09665 24.4116 6.27358 24.4116 6.54958C24.4116 6.7902 24.2842 6.98129 24.0578 7.07329C23.8525 7.15821 23.6473 7.09452 23.4492 7.00959C22.147 6.46466 20.8377 5.91973 19.5285 5.38187C18.934 5.13417 18.3466 4.89355 17.738 4.63878C17.5752 5.41725 17.8087 6.04004 18.3678 6.55666C18.8349 6.98129 19.4081 7.22191 19.9814 7.46253C20.9439 7.85884 21.8993 8.26223 22.8618 8.65147C23.0599 8.72932 23.1944 8.85671 23.2864 9.04779C23.9162 10.357 25.0132 11.0011 26.4074 11.2063C27.384 11.3478 28.3252 11.1992 29.2382 10.8524C29.3939 10.7887 29.5567 10.7817 29.7194 10.7817C31.1419 10.7817 32.5644 10.7887 33.9869 10.7746C34.3124 10.7675 34.5531 10.8666 34.7229 11.1355C34.7441 11.2558 34.7441 11.3974 34.7441 11.5389Z" fill="#293881"/>
<path id="Vector_3" d="M12.1543 16.4079C12.1543 15.8913 12.1543 15.3747 12.1543 14.8581C12.1543 14.3414 12.3312 14.1574 12.8408 14.1574C13.6546 14.1574 14.4614 14.1504 15.2753 14.1645C15.4947 14.1716 15.5513 14.1079 15.5442 13.8885C15.5301 13.0676 15.5371 12.2395 15.5371 11.4186C15.5371 10.9728 15.7353 10.7675 16.1741 10.7675C17.2569 10.7675 18.3397 10.7675 19.4224 10.7675C19.8612 10.7675 20.0523 10.9728 20.0594 11.4186C20.0594 12.2395 20.0665 13.0676 20.0523 13.8885C20.0452 14.1079 20.1089 14.1645 20.3212 14.1574C21.1422 14.1433 21.9702 14.1504 22.7911 14.1504C23.237 14.1504 23.4422 14.3485 23.4422 14.7873C23.4422 15.8701 23.4422 16.9529 23.4422 18.0357C23.4422 18.4744 23.237 18.6655 22.7911 18.6726C21.9702 18.6726 21.1422 18.6797 20.3212 18.6655C20.1018 18.6584 20.0452 18.7221 20.0523 18.9415C20.0665 19.7625 20.0594 20.5905 20.0594 21.4114C20.0594 21.8573 19.8612 22.0625 19.4224 22.0625C18.3397 22.0625 17.2569 22.0625 16.1741 22.0625C15.7353 22.0625 15.5442 21.8573 15.5442 21.4114C15.5442 20.5905 15.5371 19.7625 15.5513 18.9415C15.5584 18.7221 15.4947 18.6726 15.2753 18.6726C14.4543 18.6868 13.6263 18.6797 12.8054 18.6797C12.3595 18.6797 12.1614 18.4815 12.1543 18.0427C12.1543 17.4907 12.1543 16.9458 12.1543 16.4079ZM16.6695 19.3732C16.6695 19.8049 16.6765 20.2437 16.6624 20.6754C16.6553 20.8736 16.7119 20.9302 16.9172 20.9302C17.5046 20.916 18.092 20.916 18.6794 20.9302C18.8775 20.9373 18.9341 20.8806 18.9341 20.6754C18.92 19.8899 18.927 19.0972 18.927 18.3117C18.927 17.6818 19.0827 17.5332 19.7197 17.5332C20.5052 17.5332 21.2979 17.5261 22.0834 17.5403C22.2674 17.5403 22.324 17.4907 22.317 17.3067C22.3028 16.7193 22.3028 16.1319 22.317 15.5445C22.324 15.3251 22.2674 15.2685 22.048 15.2756C21.2483 15.2898 20.4486 15.2827 19.6489 15.2827C19.0898 15.2827 18.927 15.1128 18.927 14.5396C18.927 13.7399 18.92 12.9402 18.9341 12.1405C18.9341 11.9423 18.8846 11.8857 18.6794 11.8857C18.092 11.8998 17.5046 11.8998 16.9172 11.8857C16.719 11.8786 16.6624 11.9352 16.6624 12.1405C16.6765 12.926 16.6695 13.7187 16.6695 14.5042C16.6695 15.1341 16.5138 15.2827 15.8768 15.2827C15.0913 15.2827 14.2986 15.2898 13.5131 15.2756C13.3291 15.2756 13.2725 15.3251 13.2796 15.5092C13.2937 16.0965 13.2937 16.6839 13.2796 17.2713C13.2725 17.4907 13.3291 17.5473 13.5485 17.5403C14.327 17.5261 15.0984 17.5332 15.8768 17.5332C16.5208 17.5332 16.6695 17.6818 16.6695 18.3117C16.6695 18.6655 16.6695 19.0194 16.6695 19.3732Z" fill="#2273EC"/>
<path id="Vector_4" d="M16.9662 32.2181C16.1099 32.2181 15.2465 32.204 14.3901 32.2181C13.1658 32.2394 12.0264 31.9421 10.9295 31.4184C9.65558 30.8027 8.38171 30.1799 7.10784 29.5642C6.07459 29.0688 4.98472 28.8424 3.84531 28.8353C3.06684 28.8282 2.29544 28.8353 1.51696 28.8353C1.09941 28.8353 0.858791 28.6301 0.851714 28.2762C0.844637 27.9153 1.08526 27.6959 1.49573 27.703C2.67052 27.7313 3.84531 27.6322 5.02011 27.7667C5.97551 27.8799 6.86722 28.1701 7.73062 28.5876C9.08942 29.2387 10.4482 29.9039 11.807 30.548C12.6138 30.9301 13.4772 31.0858 14.3689 31.0858C16.1948 31.0929 18.0136 31.0858 19.8395 31.0929C20.0093 31.0929 20.165 31.0575 20.3136 30.9938C21.7857 30.3852 23.2506 29.7766 24.7227 29.1821C24.9562 29.0901 25.0482 28.9698 25.0199 28.715C24.9562 28.1134 24.5953 27.7454 23.9654 27.6959C23.0737 27.618 22.2528 27.9082 21.4247 28.1559C21.2124 28.2196 21.0072 28.2974 20.7878 28.3541C20.4835 28.4319 20.2287 28.2974 20.1084 28.0073C19.9881 27.703 20.0943 27.4199 20.3632 27.3208C21.6158 26.875 22.8755 26.3796 24.2556 26.5706C25.5719 26.7546 26.4212 27.9861 26.1098 29.267C26.0107 29.6704 25.7842 29.9818 25.3737 30.1516C23.7531 30.8169 22.1325 31.4821 20.5118 32.1544C20.3632 32.2181 20.2146 32.2181 20.0659 32.2181C19.0398 32.2181 17.9994 32.2181 16.9662 32.2181Z" fill="#293881"/>
<path id="Vector_5" d="M17.8585 28.1913C18.0496 27.2005 17.632 26.5211 16.8748 26.0044C16.1812 25.5303 15.3744 25.2967 14.6172 24.957C13.9873 24.681 13.3433 24.4263 12.7064 24.1715C12.5224 24.0936 12.395 23.9733 12.3101 23.7964C11.6802 22.4659 10.5762 21.8219 9.16077 21.6237C8.18414 21.4822 7.24289 21.645 6.32995 21.9847C6.19548 22.0342 6.06102 22.0554 5.91948 22.0554C4.4616 22.0554 3.00373 22.0554 1.54585 22.0554C1.09292 22.0554 0.859375 21.8573 0.859375 21.4893C0.859375 21.1213 1.1 20.9302 1.55293 20.9302C2.42341 20.9302 3.29389 20.9019 4.16436 20.9373C5.19054 20.9797 6.17425 20.817 7.17212 20.5693C9.40139 20.0172 11.751 20.8665 12.947 22.6287C13.2372 23.0533 13.5627 23.3081 14.0298 23.485C14.879 23.8106 15.7141 24.1715 16.5563 24.5324C17.2215 24.8155 17.8231 25.1977 18.3043 25.7426C19.2173 26.7758 19.2597 28.0002 18.7502 29.1891C18.5945 29.5501 18.2973 29.6279 17.8585 29.4439C15.9901 28.6725 14.1218 27.894 12.2534 27.1155C12.0482 27.0306 11.843 26.9457 11.6377 26.8537C11.2414 26.6838 11.0999 26.4149 11.2202 26.0894C11.3547 25.7426 11.659 25.6294 12.0624 25.7921C13.2867 26.2946 14.504 26.7971 15.7212 27.3066C16.4289 27.5968 17.1295 27.8869 17.8585 28.1913Z" fill="#293881"/>
<path id="Vector_6" d="M5.93372 16.7264C5.95495 13.8248 6.70512 11.5035 8.21253 9.42288C8.50977 9.01241 8.90608 8.95579 9.18209 9.28133C9.42271 9.56442 9.33779 9.83334 9.13963 10.1094C8.33992 11.1992 7.77375 12.3952 7.43406 13.7045C7.00943 15.3251 6.99528 16.9529 7.30667 18.5877C7.38452 18.9911 7.20051 19.2671 6.85374 19.3166C6.50696 19.3732 6.24511 19.168 6.17434 18.7646C6.02572 17.979 5.91249 17.1864 5.93372 16.7264Z" fill="#2273EC"/>
<path id="Vector_7" d="M29.677 16.047C29.6558 18.9698 28.9127 21.2911 27.4123 23.3718C27.1293 23.761 26.7825 23.8671 26.4994 23.6478C26.2163 23.4354 26.2376 23.0321 26.4711 22.7136C27.9219 20.732 28.5871 18.5027 28.5305 16.0611C28.5164 15.4525 28.4173 14.851 28.3253 14.2423C28.2687 13.8602 28.4527 13.5913 28.7853 13.5346C29.0896 13.478 29.3939 13.7116 29.4505 14.0654C29.5779 14.8368 29.6912 15.6153 29.677 16.047Z" fill="#2273EC"/>
<path id="Vector_8" d="M10.491 8.55953C10.1937 8.56661 9.90356 8.28352 9.89648 7.97921C9.89648 7.66782 10.2503 7.31396 10.5547 7.31396C10.8519 7.31396 11.1137 7.57582 11.1279 7.87305C11.142 8.1986 10.8094 8.55245 10.491 8.55953Z" fill="#2273EC"/>
<path id="Vector_9" d="M25.1615 25.4949C24.8572 25.4949 24.5741 25.2119 24.5812 24.9075C24.5883 24.5961 24.8713 24.3201 25.204 24.3131C25.5224 24.306 25.7843 24.5678 25.7772 24.8863C25.7772 25.1906 25.4658 25.4949 25.1615 25.4949Z" fill="#2273EC"/>
</g>
</g>
</svg>
