<svg width="24" height="26" viewBox="0 0 24 26" fill="none" xmlns="http://www.w3.org/2000/svg">
<g id="Frame" clip-path="url(#clip0_2528_14612)">
<g id="kaur59.tif_1_">
<g id="Group">
<path id="Vector" d="M5.87581 25.031C5.66764 24.8848 5.58758 24.6865 5.60893 24.4307C5.63028 24.1279 5.60893 23.8251 5.61427 23.5223C5.6196 23.3971 5.58224 23.3605 5.45414 23.3605C5.10185 23.371 4.74423 23.3657 4.39194 23.3605C4.08236 23.3553 3.91689 23.1987 3.91155 22.8959C3.90621 22.0868 3.91155 21.2828 3.91155 20.4737C3.91155 20.3588 3.94892 20.2544 4.00229 20.1553C5.28333 17.5399 6.57505 14.9193 7.86142 12.2987C8.01088 12.0012 8.22972 11.9072 8.47526 12.022C8.72079 12.1369 8.7795 12.3822 8.63005 12.6902C7.47711 15.0394 6.31884 17.3885 5.16057 19.7376C5.11786 19.8212 5.07516 19.9099 5.03246 20.0039C5.10719 20.0561 5.18725 20.03 5.26198 20.03C5.93453 20.03 6.61241 20.03 7.28496 20.0352C7.56251 20.0352 7.73332 20.197 7.73866 20.4372C7.744 20.6929 7.56785 20.8652 7.28496 20.8704C6.51099 20.8757 5.74237 20.8757 4.96841 20.8704C4.79227 20.8704 4.74423 20.9122 4.74957 21.0845C4.76024 21.4916 4.76558 21.8988 4.74957 22.306C4.73889 22.5096 4.81362 22.5409 5.00044 22.5409C9.43604 22.5357 13.8716 22.5357 18.3072 22.5357C18.8197 22.5357 19.3374 22.5253 19.8498 22.5409C20.058 22.5462 20.1007 22.4835 20.09 22.2956C20.074 21.9145 20.074 21.5334 20.09 21.1523C20.1007 20.9331 20.0527 20.8652 19.8071 20.8652C17.6187 20.8757 15.4249 20.8704 13.2365 20.8704C11.8593 20.8704 10.4876 20.8704 9.11044 20.8704C8.90227 20.8704 8.72613 20.8287 8.63005 20.6251C8.50728 20.3693 8.66207 20.0717 8.94497 20.0352C9.04105 20.0247 9.14246 20.03 9.23854 20.03C12.66 20.03 16.0868 20.03 19.5082 20.03C19.6043 20.03 19.7004 20.03 19.8231 20.03C19.4708 19.3096 19.1292 18.61 18.7823 17.9105C17.9336 16.1826 17.0849 14.4599 16.2362 12.732C16.1882 12.638 16.1348 12.5493 16.1241 12.4449C16.1081 12.2413 16.1935 12.0951 16.391 12.0116C16.5832 11.9333 16.7433 11.9855 16.8661 12.1264C16.9408 12.21 16.9888 12.3144 17.0369 12.4188C18.2912 14.9663 19.5456 17.519 20.8053 20.0717C20.9013 20.2649 20.944 20.458 20.9387 20.6721C20.9334 21.3925 20.9387 22.1129 20.9334 22.8333C20.9334 23.2404 20.7946 23.371 20.3729 23.371C20.0633 23.371 19.7537 23.3814 19.4442 23.3657C19.2627 23.3553 19.22 23.4232 19.2307 23.585C19.2413 23.8773 19.22 24.1749 19.236 24.4672C19.252 24.7178 19.1719 24.9005 18.9584 25.031C18.1418 25.031 17.3251 25.031 16.5084 25.031C16.3376 24.8796 16.1668 24.723 16.2736 24.462C16.3803 24.201 16.6045 24.1853 16.8447 24.1905C17.165 24.1958 17.4852 24.1905 17.8002 24.1905C18.3713 24.1905 18.3606 24.1905 18.3766 23.6268C18.382 23.4179 18.3393 23.3553 18.1097 23.3553C14.4001 23.3657 10.6957 23.3605 6.98605 23.3605C6.45762 23.3605 6.47363 23.3605 6.45228 23.8878C6.44161 24.1436 6.52167 24.1958 6.77254 24.1958C9.46806 24.1853 12.1636 24.1905 14.8644 24.1853C15.0726 24.1853 15.2541 24.2166 15.3608 24.415C15.4729 24.6186 15.3929 24.8222 15.1313 25.0258C12.0515 25.031 8.96098 25.031 5.87581 25.031Z" fill="#293880"/>
<path id="Vector_2" d="M23.9221 12.2726C23.8047 12.5441 23.8207 12.8364 23.7727 13.1235C23.4631 14.9663 22.7158 16.6263 21.5575 18.1089C21.3547 18.3699 21.1145 18.4221 20.901 18.2551C20.6822 18.088 20.6715 17.8635 20.8797 17.5921C21.8511 16.3444 22.529 14.9558 22.8386 13.4158C23.4151 10.5499 22.8866 7.88233 21.2266 5.44445C21.1732 5.36615 21.1092 5.29306 21.0611 5.20954C20.9063 4.97463 20.9437 4.73449 21.1519 4.59355C21.3654 4.44738 21.5949 4.49436 21.7711 4.72927C22.1447 5.23564 22.4756 5.76811 22.7532 6.32668C23.3724 7.57433 23.7673 8.88463 23.8741 10.268C23.8794 10.3045 23.8848 10.3359 23.9275 10.3463C23.9221 10.9884 23.9221 11.6305 23.9221 12.2726Z" fill="#2273EC"/>
<path id="Vector_3" d="M12.4408 0.0310083C14.3784 0.0310083 16.1986 0.485174 17.9066 1.38829C18.339 1.61798 18.3817 1.87899 18.04 2.22875C16.3694 3.93579 14.3144 4.75016 11.9124 4.60399C9.8574 4.4787 8.128 3.63301 6.74021 2.15045C6.50001 1.89465 6.54271 1.61276 6.85764 1.44049C8.09597 0.76185 9.41972 0.333785 10.8235 0.135414C11.3573 0.06233 11.8964 0.025788 12.4408 0.0310083ZM17.0899 1.93642C14.1169 0.500835 10.4445 0.605241 7.76504 1.93642C10.2364 4.35341 14.5279 4.41606 17.0899 1.93642Z" fill="#2273EC"/>
<path id="Vector_4" d="M0.922363 10.7378C1.00243 7.7205 2.40623 4.7867 5.21918 2.52109C5.50742 2.28617 5.75829 2.29139 5.93443 2.51587C6.10524 2.7299 6.04652 2.95437 5.75829 3.17884C3.78869 4.73971 2.50765 6.72864 2.00591 9.1613C1.39208 12.1839 2.01658 14.9663 3.87409 17.4668C3.91146 17.5138 3.94882 17.5608 3.98618 17.613C4.17834 17.8792 4.15699 18.1141 3.93281 18.2707C3.71396 18.4221 3.49512 18.3699 3.29229 18.1193C2.90797 17.6338 2.56636 17.117 2.26746 16.5741C1.37073 14.9193 0.922363 13.1496 0.922363 10.7378Z" fill="#2273EC"/>
<path id="Vector_5" d="M12.4306 9.62069C13.1298 9.62069 13.8344 9.62069 14.5336 9.62069C15.0407 9.62069 15.4037 9.97045 15.4037 10.4664C15.4037 10.884 15.409 11.3016 15.4037 11.714C15.3983 12.1786 15.0354 12.5336 14.5603 12.5336C13.1298 12.5388 11.7047 12.5388 10.2742 12.5336C9.81514 12.5336 9.44684 12.1734 9.4415 11.7297C9.43617 11.2964 9.43617 10.8631 9.4415 10.4298C9.44684 9.98611 9.81514 9.62591 10.2742 9.62591C10.9948 9.61547 11.71 9.62069 12.4306 9.62069ZM12.3986 11.7036C13.0551 11.7036 13.7116 11.6984 14.3682 11.7088C14.5176 11.7088 14.5657 11.6723 14.5603 11.5209C14.5496 11.2181 14.5496 10.9153 14.5603 10.6125C14.5657 10.4873 14.523 10.4507 14.3949 10.4559C13.0818 10.4612 11.7687 10.4612 10.4557 10.4559C10.3276 10.4559 10.2902 10.4873 10.2902 10.6125C10.3009 10.9153 10.3009 11.2181 10.2902 11.5209C10.2849 11.667 10.3329 11.7088 10.4823 11.7088C11.1175 11.6984 11.758 11.7036 12.3986 11.7036Z" fill="#293880"/>
<path id="Vector_6" d="M4.7497 11.2755C4.85112 8.52443 6.05209 6.37367 8.43803 4.88067C8.49674 4.84412 8.56079 4.80758 8.61951 4.77626C8.85437 4.66141 9.0999 4.72406 9.21733 4.92765C9.33475 5.13124 9.28672 5.35571 9.06787 5.49144C8.59282 5.78378 8.13378 6.08656 7.73346 6.47286C6.20155 7.96064 5.4863 9.74598 5.65177 11.8654C5.69447 12.4553 5.83325 13.0243 6.03608 13.5777C6.05743 13.6351 6.07878 13.6925 6.08945 13.75C6.14817 14.0057 6.03074 14.2093 5.79055 14.2824C5.58238 14.3451 5.37954 14.2459 5.28347 14.0162C5.04327 13.4472 4.89382 12.8521 4.81375 12.2413C4.77105 11.9228 4.74436 11.6044 4.7497 11.2755Z" fill="#2273EC"/>
<path id="Vector_7" d="M20.0953 11.2807C20.1007 12.1734 19.9405 13.0348 19.6203 13.87C19.4815 14.2354 19.2947 14.3607 19.0278 14.2615C18.7449 14.1571 18.6808 13.9431 18.8143 13.5672C19.5989 11.3173 19.284 9.22394 17.8642 7.29765C17.3731 6.62946 16.7539 6.08655 16.0387 5.64804C15.9586 5.59584 15.8732 5.54886 15.7932 5.49665C15.5636 5.34004 15.5103 5.12079 15.6384 4.91198C15.7611 4.71361 16.012 4.65096 16.2415 4.78147C16.9674 5.18343 17.6026 5.6898 18.1524 6.30058C19.4228 7.72572 20.074 9.38577 20.0953 11.2807Z" fill="#2273EC"/>
<path id="Vector_8" d="M19.2517 2.33838C19.3585 2.35404 19.4599 2.39058 19.5453 2.45845C19.8976 2.73512 20.2392 3.01702 20.5541 3.33546C20.7623 3.54949 20.773 3.76874 20.5968 3.95145C20.4153 4.13416 20.1805 4.13938 19.967 3.94101C19.652 3.64867 19.3318 3.36678 18.9955 3.10054C18.8407 2.97526 18.7713 2.81865 18.8514 2.62027C18.9261 2.44278 19.0702 2.36448 19.2517 2.33838Z" fill="#2273EC"/>
<path id="Vector_9" d="M3.26566 10.8683C2.8173 10.8683 2.63582 10.7535 2.63048 10.4612C2.62514 10.1584 2.81196 10.0331 3.271 10.0331C3.7247 10.0331 3.90085 10.1479 3.90618 10.4403C3.91152 10.7431 3.7247 10.8683 3.26566 10.8683Z" fill="#2273EC"/>
<path id="Vector_10" d="M21.5738 10.8683C21.5044 10.8683 21.4297 10.8736 21.3603 10.8683C21.1094 10.8579 20.944 10.6908 20.944 10.4559C20.9386 10.221 21.1041 10.0488 21.3496 10.0331C21.4938 10.0279 21.6325 10.0279 21.7766 10.0331C22.0489 10.0383 22.2197 10.2001 22.2197 10.4455C22.225 10.6908 22.0489 10.8579 21.7873 10.8683C21.7126 10.8683 21.6432 10.8683 21.5738 10.8683Z" fill="#2273EC"/>
<path id="Vector_11" d="M3.25488 12.5336C3.17481 12.5336 3.09475 12.5388 3.01468 12.5336C2.78516 12.5127 2.63037 12.3457 2.63037 12.116C2.63037 11.8915 2.78516 11.7192 3.01468 11.7036C3.17481 11.6931 3.33494 11.6931 3.49507 11.7036C3.74061 11.714 3.90607 11.8863 3.90607 12.116C3.90607 12.3509 3.74061 12.518 3.49507 12.5336C3.41501 12.5388 3.33494 12.5336 3.25488 12.5336Z" fill="#2273EC"/>
<path id="Vector_12" d="M21.5684 12.5336C21.4883 12.5336 21.4082 12.5388 21.3282 12.5336C21.0986 12.5127 20.9438 12.3457 20.9438 12.1212C20.9438 11.8968 21.0986 11.7193 21.3282 11.7088C21.4883 11.6984 21.6484 11.6984 21.8085 11.7088C22.0541 11.7193 22.2195 11.8915 22.2249 12.1212C22.2249 12.3561 22.0594 12.5232 21.8139 12.5388C21.7285 12.5388 21.6484 12.5336 21.5684 12.5336Z" fill="#2273EC"/>
</g>
</g>
</g>
<defs>
<clipPath id="clip0_2528_14612">
<rect width="23" height="25" fill="white" transform="translate(0.922363 0.0310059)"/>
</clipPath>
</defs>
</svg>
