<svg width="21" height="22" viewBox="0 0 21 22" fill="none" xmlns="http://www.w3.org/2000/svg">
<g id="Email">
<path id="Union" fill-rule="evenodd" clip-rule="evenodd" d="M8.75 3.25H8.70841H8.70841C7.3392 3.24999 6.2543 3.24998 5.38794 3.33812C4.5003 3.42841 3.75926 3.61739 3.11104 4.05052C2.59239 4.39707 2.14707 4.84239 1.80052 5.36104C1.36739 6.00926 1.17841 6.7503 1.08812 7.63794C0.999985 8.5043 0.999991 9.5892 1 10.9584V10.9584V11V11.0416V11.0416C0.999991 12.4108 0.999985 13.4957 1.08812 14.3621C1.17841 15.2497 1.36739 15.9907 1.80052 16.639C2.14707 17.1576 2.59239 17.6029 3.11104 17.9495C3.75926 18.3826 4.5003 18.5716 5.38794 18.6619C6.2543 18.75 7.3392 18.75 8.7084 18.75H8.75H12.25H12.2916C13.6608 18.75 14.7457 18.75 15.6121 18.6619C16.4997 18.5716 17.2407 18.3826 17.889 17.9495C18.4076 17.6029 18.8529 17.1576 19.1995 16.639C19.6326 15.9907 19.8216 15.2497 19.9119 14.3621C20 13.4957 20 12.4108 20 11.0416V11V10.9584C20 9.58922 20 8.50431 19.9119 7.63794C19.8216 6.7503 19.6326 6.00926 19.1995 5.36104C18.8529 4.84239 18.4076 4.39707 17.889 4.05052C17.2407 3.61739 16.4997 3.42841 15.6121 3.33812C14.7457 3.24998 13.6608 3.24999 12.2916 3.25H12.2916H12.25H8.75ZM3.9444 5.29772C4.30507 5.05673 4.77071 4.90865 5.53975 4.83041C6.32133 4.75091 7.32993 4.75 8.75 4.75H12.25C13.6701 4.75 14.6787 4.75091 15.4602 4.83041C16.2293 4.90865 16.6949 5.05673 17.0556 5.29772C17.4105 5.53484 17.7152 5.83953 17.9523 6.1944C18.1933 6.55507 18.3414 7.02071 18.4196 7.78975C18.4991 8.57133 18.5 9.57993 18.5 11C18.5 12.4201 18.4991 13.4287 18.4196 14.2102C18.3414 14.9793 18.1933 15.4449 17.9523 15.8056C17.7152 16.1605 17.4105 16.4652 17.0556 16.7023C16.6949 16.9433 16.2293 17.0914 15.4602 17.1696C14.6787 17.2491 13.6701 17.25 12.25 17.25H8.75C7.32993 17.25 6.32133 17.2491 5.53975 17.1696C4.77071 17.0914 4.30507 16.9433 3.9444 16.7023C3.58953 16.4652 3.28484 16.1605 3.04772 15.8056C2.80673 15.4449 2.65865 14.9793 2.58041 14.2102C2.50091 13.4287 2.5 12.4201 2.5 11C2.5 9.57993 2.50091 8.57133 2.58041 7.78975C2.65865 7.02071 2.80673 6.55507 3.04772 6.1944C3.28484 5.83953 3.58953 5.53484 3.9444 5.29772ZM5.66603 6.87596C5.32138 6.6462 4.85573 6.73933 4.62596 7.08398C4.3962 7.42862 4.48933 7.89427 4.83398 8.12404L10.084 11.624C10.3359 11.792 10.6641 11.792 10.916 11.624L16.166 8.12404C16.5107 7.89427 16.6038 7.42862 16.374 7.08398C16.1443 6.73933 15.6786 6.6462 15.334 6.87596L10.5 10.0986L5.66603 6.87596Z" fill="#98B4DE"/>
</g>
</svg>
