<svg width="18" height="18" viewBox="0 0 18 18" fill="none" xmlns="http://www.w3.org/2000/svg">
<g id="Frame">
<path id="Vector" d="M9.29883 6.48131H12.4863L12.1322 7.89798H9.29883V14.273H7.88216V7.89798H5.04883V6.48131H7.88216V5.15515C7.88216 3.89216 8.0137 3.43418 8.26062 2.97245C8.50755 2.51072 8.86993 2.14835 9.33162 1.90142C9.79339 1.65448 10.2513 1.52298 11.5144 1.52298C11.8841 1.52298 12.2081 1.5584 12.4863 1.62923V2.93965H11.5144C10.5767 2.93965 10.2912 2.99478 9.99972 3.15065C9.78489 3.26556 9.62473 3.4257 9.50984 3.64055C9.35394 3.93199 9.29883 4.21753 9.29883 5.15515V6.48131Z" fill="#293881"/>
</g>
</svg>
