<svg width="17" height="18" viewBox="0 0 17 18" fill="none" xmlns="http://www.w3.org/2000/svg">
<g id="Frame">
<path id="Vector" d="M9.20834 6.87484H12.3958L12.0417 8.2915H9.20834V14.6665H7.79168V8.2915H4.95834V6.87484H7.79168V5.54867C7.79168 4.28569 7.92321 3.8277 8.17014 3.36597C8.41706 2.90425 8.77945 2.54188 9.24114 2.29495C9.7029 2.04801 10.1608 1.9165 11.4239 1.9165C11.7936 1.9165 12.1176 1.95192 12.3958 2.02275V3.33317H11.4239C10.4862 3.33317 10.2007 3.38831 9.90924 3.54418C9.6944 3.65908 9.53425 3.81922 9.41936 4.03407C9.26345 4.32552 9.20834 4.61105 9.20834 5.54867V6.87484Z" fill="#97B3DD"/>
</g>
</svg>
