<svg width="18" height="18" viewBox="0 0 18 18" fill="none" xmlns="http://www.w3.org/2000/svg">
<g id="Frame">
<path id="Vector" d="M9.34116 6.98128C8.16717 6.98128 7.21615 7.93264 7.21615 9.10628C7.21615 10.2802 8.16752 11.2313 9.34116 11.2313C10.5151 11.2313 11.4662 10.2799 11.4662 9.10628C11.4662 7.93236 10.5148 6.98128 9.34116 6.98128ZM9.34116 5.56462C11.2964 5.56462 12.8828 7.14923 12.8828 9.10628C12.8828 11.0616 11.2982 12.6479 9.34116 12.6479C7.38581 12.6479 5.79948 11.0633 5.79948 9.10628C5.79948 7.15095 7.38409 5.56462 9.34116 5.56462ZM13.9453 5.38693C13.9453 5.87576 13.5481 6.27236 13.0599 6.27236C12.5711 6.27236 12.1745 5.87515 12.1745 5.38693C12.1745 4.89871 12.5717 4.50212 13.0599 4.50212C13.5475 4.5015 13.9453 4.89871 13.9453 5.38693ZM9.34116 3.43962C7.58839 3.43962 7.3027 3.44426 6.48748 3.48056C5.93206 3.50663 5.55974 3.58133 5.21381 3.71563C4.9064 3.83486 4.68464 3.97723 4.44836 4.21351C4.21118 4.45069 4.06906 4.67185 3.95032 4.97941C3.81571 5.32613 3.74103 5.69786 3.71542 6.25251C3.67876 7.03455 3.67448 7.30786 3.67448 9.10628C3.67448 10.8591 3.67912 11.1447 3.71541 11.9599C3.7415 12.5151 3.8163 12.8879 3.95028 13.233C4.06981 13.5409 4.21247 13.7631 4.44761 13.9983C4.68573 14.2361 4.90755 14.3787 5.21219 14.4963C5.56234 14.6316 5.93442 14.7064 6.48737 14.732C7.26941 14.7686 7.54272 14.7729 9.34116 14.7729C11.0939 14.7729 11.3796 14.7683 12.1948 14.732C12.7487 14.706 13.1219 14.631 13.4679 14.4971C13.7749 14.3779 13.9979 14.2348 14.2332 13.9998C14.4713 13.7613 14.6136 13.54 14.7314 13.2347C14.8664 12.8858 14.9413 12.5132 14.9669 11.9601C15.0035 11.178 15.0078 10.9047 15.0078 9.10628C15.0078 7.35353 15.0031 7.06785 14.9669 6.25267C14.9408 5.69853 14.8658 5.32484 14.7318 4.97895C14.6129 4.67238 14.47 4.44995 14.2339 4.21351C13.9963 3.97593 13.7758 3.83411 13.468 3.71546C13.1215 3.58096 12.7492 3.50617 12.1949 3.48056C11.4129 3.4439 11.1395 3.43962 9.34116 3.43962ZM9.34116 2.02295C11.2654 2.02295 11.5057 2.03003 12.2613 2.06545C13.015 2.10028 13.5292 2.21951 13.9807 2.39482C14.4476 2.57486 14.8419 2.81805 15.2356 3.21177C15.6288 3.60549 15.872 4.00097 16.0526 4.4667C16.2273 4.91767 16.3466 5.43239 16.382 6.18618C16.4156 6.94174 16.4245 7.18197 16.4245 9.10628C16.4245 11.0306 16.4174 11.2708 16.382 12.0264C16.3471 12.7802 16.2273 13.2943 16.0526 13.7459C15.8726 14.2128 15.6288 14.6071 15.2356 15.0008C14.8419 15.3939 14.4458 15.6371 13.9807 15.8177C13.5292 15.9925 13.015 16.1117 12.2613 16.1471C11.5057 16.1808 11.2654 16.1896 9.34116 16.1896C7.41684 16.1896 7.17659 16.1825 6.42104 16.1471C5.66725 16.1123 5.15371 15.9925 4.70156 15.8177C4.23524 15.6377 3.84034 15.3939 3.44663 15.0008C3.05292 14.6071 2.81031 14.211 2.62969 13.7459C2.45438 13.2943 2.33573 12.7802 2.30031 12.0264C2.26667 11.2708 2.25781 11.0306 2.25781 9.10628C2.25781 7.18197 2.2649 6.94174 2.30031 6.18618C2.33513 5.4318 2.45438 4.91826 2.62969 4.4667C2.80972 4.00038 3.05292 3.60549 3.44663 3.21177C3.84034 2.81805 4.23583 2.57545 4.70156 2.39482C5.15313 2.21951 5.66667 2.10087 6.42104 2.06545C7.17659 2.0318 7.41684 2.02295 9.34116 2.02295Z" fill="#293881"/>
</g>
</svg>
