<svg width="10" height="18" viewBox="0 0 10 18" fill="none" xmlns="http://www.w3.org/2000/svg">
<path id="Vector" d="M9.5 3.60854C8.60037 3.67597 7.7676 3.89736 7.00898 4.28957C6.09233 4.76382 5.3714 5.42012 4.84621 6.25511C4.3198 7.09122 4.05842 8.00599 4.05842 9.00056C4.05842 9.99512 4.32102 10.9448 4.84621 11.7797C5.3714 12.6158 6.09233 13.271 7.00898 13.7453C7.76638 14.1375 8.60036 14.3577 9.5 14.4263L9.5 18C7.89524 17.9225 6.44002 17.5168 5.1392 16.7795C3.6852 15.9547 2.54849 14.8533 1.72909 13.4744C0.909696 12.0966 0.499999 10.6053 0.499999 9.00056C0.5 7.39576 0.908481 5.90448 1.72909 4.52669C2.54728 3.14891 3.68398 2.04757 5.1392 1.22158C6.44003 0.483236 7.89525 0.0786666 9.5 0L9.5 3.60741L9.5 3.60854Z" fill="#202054"/>
</svg>
