<svg width="19" height="19" viewBox="0 0 19 19" fill="none" xmlns="http://www.w3.org/2000/svg">
<g id="Frame">
<path id="Vector" d="M9.50075 7.66254C10.1886 6.95995 11.0841 6.5 12.1257 6.5C14.4039 6.5 16.2507 8.3468 16.2507 10.625V16.25H14.7507V10.625C14.7507 9.17525 13.5755 8 12.1257 8C10.676 8 9.50075 9.17525 9.50075 10.625V16.25H8.00075V6.875H9.50075V7.66254ZM4.25073 5.375C3.62941 5.375 3.12573 4.87132 3.12573 4.25C3.12573 3.62868 3.62941 3.125 4.25073 3.125C4.87205 3.125 5.37573 3.62868 5.37573 4.25C5.37573 4.87132 4.87205 5.375 4.25073 5.375ZM3.50073 6.875H5.00073V16.25H3.50073V6.875Z" fill="#97B3DD"/>
</g>
</svg>
