<svg width="12" height="11" viewBox="0 0 12 11" fill="none" xmlns="http://www.w3.org/2000/svg">
<g id="Frame 19">
<path id="Vector" d="M2.85062 1.19447C2.85047 1.50774 2.72783 1.80812 2.50969 2.02953C2.29155 2.25093 1.99577 2.37523 1.68742 2.37507C1.37908 2.37491 1.08343 2.25032 0.865502 2.02869C0.647578 1.80707 0.525237 1.50656 0.525391 1.19329C0.525545 0.880022 0.648182 0.579645 0.866324 0.35824C1.08447 0.136835 1.38024 0.0125388 1.68859 0.0126955C1.99693 0.0128521 2.29259 0.137449 2.51051 0.359075C2.72843 0.580701 2.85078 0.881203 2.85062 1.19447ZM2.8855 3.24974H0.560269V10.644H2.8855V3.24974ZM6.55936 3.24974H4.24576V10.644H6.53611V6.76378C6.53611 4.6022 9.30895 4.4014 9.30895 6.76378V10.644H11.6051V5.96057C11.6051 2.3166 7.50108 2.45244 6.53611 4.24194L6.55936 3.24974Z" fill="#293881"/>
</g>
</svg>
