<svg width="19" height="19" viewBox="0 0 19 19" fill="none" xmlns="http://www.w3.org/2000/svg">
<g id="Frame">
<path id="Vector" d="M9.83986 7.76883C10.5277 7.06625 11.4232 6.60629 12.4649 6.60629C14.743 6.60629 16.5899 8.45309 16.5899 10.7313V16.3563H15.0899V10.7313C15.0899 9.28154 13.9146 8.10629 12.4649 8.10629C11.0151 8.10629 9.83986 9.28154 9.83986 10.7313V16.3563H8.33986V6.98129H9.83986V7.76883ZM4.58984 5.48129C3.96852 5.48129 3.46484 4.97762 3.46484 4.35629C3.46484 3.73497 3.96852 3.23129 4.58984 3.23129C5.21116 3.23129 5.71484 3.73497 5.71484 4.35629C5.71484 4.97762 5.21116 5.48129 4.58984 5.48129ZM3.83984 6.98129H5.33984V16.3563H3.83984V6.98129Z" fill="#293881"/>
</g>
</svg>
