<svg width="44" height="44" viewBox="0 0 44 44" fill="none" xmlns="http://www.w3.org/2000/svg">
<circle cx="22" cy="22" r="21.5" stroke="#9FB3DC"/>
<g clip-path="url(#clip0_53_2423)">
<path d="M31.8506 16.3554C31.7701 16.6029 31.7001 16.8596 31.6079 17.1052C31.018 18.6851 29.4303 19.6285 27.7113 19.4306C26.1582 19.2518 24.8119 17.9236 24.5816 16.3424C24.2925 14.3474 25.6327 12.5546 27.6896 12.1921C29.5287 11.8679 31.395 13.1949 31.7862 15.1052C31.8029 15.1736 31.8236 15.2409 31.8481 15.3069L31.8506 16.3554Z" fill="#1D2D79"/>
<path d="M27.6496 32C27.3148 31.8843 26.9687 31.7958 26.6469 31.6474C25.9339 31.3159 25.3473 30.7631 24.9744 30.0712C24.6016 29.3793 24.4626 28.5855 24.5782 27.8082C24.7018 27.0381 25.0655 26.3267 25.6173 25.7752C26.1691 25.2238 26.881 24.8603 27.6515 24.7367C29.563 24.4435 31.3587 25.708 31.7809 27.6443C31.7978 27.7003 31.8195 27.7547 31.8459 27.807V28.8555C31.8208 28.9105 31.8001 28.9674 31.784 29.0256C31.6115 29.939 31.0976 30.7525 30.3466 31.3009C29.8514 31.6721 29.2813 31.8447 28.6982 31.9981L27.6496 32Z" fill="#1D2D79"/>
<path d="M15.1532 32.0002C14.5478 31.8406 13.9592 31.6513 13.4497 31.2578C12.1894 30.2915 11.6806 28.6411 12.2037 27.1564C12.457 26.4288 12.9346 25.8002 13.5677 25.3607C14.2008 24.9212 14.957 24.6936 15.7277 24.7103C17.5426 24.7505 19.1155 26.1598 19.2814 27.8944C19.4671 29.8529 18.2866 31.5046 16.3956 31.9315C16.3297 31.9505 16.265 31.9734 16.2018 32.0002H15.1532Z" fill="#1D2D79"/>
<path d="M19.3043 15.7929C19.3077 16.2713 19.2166 16.7456 19.0362 17.1887C18.8558 17.6318 18.5896 18.035 18.253 18.375C17.9163 18.7151 17.5158 18.9854 17.0744 19.1705C16.6329 19.3555 16.1593 19.4516 15.6806 19.4533C13.6769 19.4669 12.0174 17.8467 12.0075 15.8696C12 13.8177 13.602 12.169 15.6156 12.1629C17.6627 12.1567 19.2913 13.7608 19.3043 15.7929Z" fill="#1D2D79"/>
</g>
<defs>
<clipPath id="clip0_53_2423">
<rect width="20" height="20" fill="white" transform="translate(12 12)"/>
</clipPath>
</defs>
</svg>
