<svg width="49" height="48" viewBox="0 0 49 48" fill="none" xmlns="http://www.w3.org/2000/svg">
<g id="Layer_1" clip-path="url(#clip0_2031_2560)">
<g id="RPQDq4.tif">
<path id="Vector" d="M49 29.5552C48.8808 30.0296 48.7774 30.509 48.6403 30.9785C48.1136 32.7772 46.9877 34.1074 45.361 35.0088C44.5718 35.4547 43.7572 35.8545 42.9215 36.2063C41.0334 36.9779 39.997 38.3596 39.667 40.3435C39.5118 41.1996 39.3128 42.0473 39.0708 42.8831C37.9867 46.8293 33.3669 49.0856 29.5858 47.4523C28.6488 47.0481 27.7256 46.6084 26.8144 46.1488C25.2542 45.3613 23.7339 45.402 22.1628 46.1607C20.8918 46.7738 19.605 47.4136 18.2565 47.797C15.2754 48.6448 11.0471 46.8065 9.95006 42.8881C9.67679 41.9085 9.4532 40.9121 9.25446 39.9166C8.91063 38.2695 7.98847 37.0987 6.46212 36.3776C5.41972 35.8824 4.35048 35.4268 3.37168 34.8265C2.57389 34.3407 1.8814 33.701 1.33477 32.945C0.788148 32.189 0.398381 31.3319 0.188305 30.4238C-0.0217711 29.5158 -0.0479316 28.575 0.111356 27.6568C0.270644 26.7385 0.612177 25.8612 1.11595 25.0762C1.69125 24.1942 2.3313 23.356 3.03083 22.5683C4.29384 21.1162 4.66251 19.5047 4.15174 17.6554C3.74829 16.1984 3.38161 14.7335 3.47105 13.1923C3.64495 10.1773 6.25344 7.25532 9.25346 6.8413C10.3152 6.6865 11.3901 6.6407 12.4612 6.70461C14.6911 6.85912 16.3893 6.0915 17.6881 4.2591C18.3837 3.26861 19.2383 2.37717 20.1227 1.54516C21.0836 0.643817 22.3019 0.208002 23.6245 0.0931058C23.7547 0.0722948 23.883 0.0411606 24.0081 0L25.0018 0C25.1268 0.0402797 25.2547 0.0707477 25.3844 0.0911248C26.7438 0.205031 27.984 0.669569 28.9618 1.60063C29.8502 2.43495 30.6592 3.34944 31.3785 4.33239C32.6445 6.09051 34.2921 6.83634 36.4464 6.70956C37.5488 6.64702 38.6547 6.69147 39.7485 6.84229C42.7505 7.25037 45.367 10.1842 45.5369 13.1814C45.6224 14.7058 45.2776 16.1598 44.8721 17.598C44.3405 19.4859 44.7221 21.1073 45.999 22.599C46.8129 23.5487 47.5496 24.5615 48.2021 25.6279C48.5926 26.2667 48.7416 27.0522 48.997 27.7723L49 29.5552ZM12.0875 9.0897C11.4913 9.0897 10.8951 9.06692 10.2989 9.0897C7.85034 9.20163 5.77149 11.3223 5.87782 13.7678C5.9285 14.9346 6.24549 16.0984 6.51976 17.2454C7.11599 19.7592 6.63602 21.9997 4.9636 23.9807C4.29682 24.7731 3.65886 25.5962 3.0676 26.447C2.54829 27.2025 2.31514 28.1173 2.40976 29.0282C2.57869 30.9815 3.53763 32.3959 5.33426 33.2219C6.11234 33.5805 6.89538 33.9301 7.66154 34.3115C9.68474 35.3208 10.9776 36.9194 11.5161 39.1173C11.8043 40.297 12.013 41.5074 12.4174 42.6444C13.2025 44.8235 15.7861 46.1052 17.9822 45.4089C18.9958 45.088 19.9697 44.6026 20.9147 44.1123C23.3473 42.8534 25.7431 42.8703 28.1589 44.15C28.968 44.5939 29.8078 44.9798 30.672 45.3049C31.2588 45.5194 31.8829 45.6139 32.5072 45.5827C33.1314 45.5516 33.743 45.3955 34.3054 45.1238C34.8679 44.852 35.3696 44.4702 35.7808 44.001C36.192 43.5318 36.5042 42.9849 36.6988 42.3929C36.9595 41.597 37.1588 40.7824 37.2951 39.9563C37.7859 37.1165 39.3173 35.1237 41.9983 34.0054C42.7416 33.6944 43.4541 33.3121 44.1745 32.9456C46.5396 31.7521 47.3991 28.3042 45.7436 26.1281C45.1653 25.3674 44.569 24.6196 43.9619 23.8826C42.526 22.1404 41.9466 20.1673 42.358 17.9397C42.5697 16.7947 42.8907 15.6685 43.1003 14.5225C43.5475 12.079 41.7648 9.53344 39.3063 9.19866C38.1695 9.04414 36.9999 9.08871 35.8462 9.09961C33.3033 9.11545 31.2801 8.122 29.7418 6.10734C29.1628 5.34731 28.5606 4.60511 27.9353 3.88073C26.246 1.93244 22.7511 1.94136 21.0836 3.86884C20.4367 4.61567 19.8226 5.39221 19.2154 6.17272C18.3012 7.34644 17.1753 8.21708 15.7573 8.71035C14.5619 9.1214 13.3277 9.11248 12.0875 9.0897Z" fill="#4D7ABD"/>
<path id="Vector_2" d="M11.3164 18.33C11.3123 17.728 11.428 17.1313 11.6566 16.5742C11.8853 16.0171 12.2224 15.5106 12.6485 15.0841C13.0747 14.6576 13.5813 14.3195 14.1393 14.0893C14.6973 13.8591 15.2955 13.7414 15.8994 13.743C18.4354 13.743 20.5142 15.8102 20.5023 18.325C20.4904 20.8399 18.3837 22.9268 15.8776 22.904C14.6669 22.8918 13.5096 22.4051 12.6561 21.5491C11.8026 20.6932 11.3213 19.5368 11.3164 18.33ZM15.9163 20.4902C16.2058 20.4929 16.4929 20.4372 16.7603 20.3267C17.0277 20.2161 17.2699 20.0528 17.4725 19.8466C17.6751 19.6405 17.8338 19.3956 17.9391 19.1269C18.0445 18.8581 18.0943 18.5709 18.0856 18.2824C18.0822 17.7086 17.8519 17.1593 17.4446 16.7537C17.0374 16.3482 16.486 16.1191 15.9104 16.1162C15.3249 16.1229 14.7653 16.3576 14.3512 16.7702C13.9371 17.1828 13.7013 17.7405 13.6944 18.324C13.697 18.6118 13.7566 18.8963 13.8697 19.1612C13.9829 19.426 14.1475 19.6659 14.3539 19.8672C14.5604 20.0684 14.8047 20.2271 15.0728 20.334C15.3409 20.4409 15.6276 20.494 15.9163 20.4902Z" fill="#4D7ABD"/>
<path id="Vector_3" d="M31.3735 36.0943C30.4682 36.0869 29.5854 35.8124 28.8365 35.3054C28.0875 34.7984 27.506 34.0817 27.1653 33.2457C26.8245 32.4096 26.7399 31.4917 26.9219 30.6078C27.104 29.7238 27.5446 28.9134 28.1882 28.2788C28.8318 27.6442 29.6496 27.2138 30.5383 27.0419C31.4271 26.87 32.347 26.9643 33.182 27.313C34.017 27.6616 34.7298 28.249 35.2303 29.0009C35.7308 29.7529 35.9966 30.6357 35.9943 31.5381C35.9916 32.1398 35.8698 32.7351 35.636 33.2899C35.4022 33.8447 35.061 34.3481 34.6318 34.7713C34.2026 35.1945 33.6939 35.5292 33.1348 35.7562C32.5757 35.9832 31.9772 36.0981 31.3735 36.0943ZM31.4302 29.3481C30.9965 29.342 30.5709 29.4646 30.2073 29.7003C29.8438 29.9361 29.5588 30.2742 29.3886 30.6718C29.2184 31.0694 29.1707 31.5085 29.2515 31.9332C29.3324 32.3579 29.5381 32.749 29.8426 33.0569C30.1471 33.3647 30.5365 33.5753 30.9614 33.6619C31.3863 33.7485 31.8274 33.7072 32.2287 33.5432C32.63 33.3792 32.9732 33.0999 33.2148 32.741C33.4565 32.382 33.5855 31.9595 33.5855 31.5272C33.5823 30.9556 33.3551 30.4078 32.9525 30.0007C32.5498 29.5937 32.0036 29.3595 31.4302 29.3481Z" fill="#4D7ABD"/>
<path id="Vector_4" d="M17.1436 32.4276C17.1942 32.3087 17.2618 32.0314 17.4119 31.8085C20.8839 26.6778 24.3619 21.5513 27.8458 16.4292C28.293 15.7725 28.9677 15.6239 29.561 16.0132C30.1334 16.3886 30.2636 17.1186 29.8333 17.7535C26.3493 22.8954 22.8607 28.0344 19.3675 33.1704C19.0008 33.7092 18.503 33.8846 17.9584 33.7053C17.4675 33.5428 17.1485 33.1041 17.1436 32.4276Z" fill="#4D7ABD"/>
</g>
</g>
<defs>
<clipPath id="clip0_2031_2560">
<rect width="49" height="48" fill="white"/>
</clipPath>
</defs>
</svg>
