<svg width="13" height="13" viewBox="0 0 13 13" fill="none" xmlns="http://www.w3.org/2000/svg">
<path d="M6.24365 12.8208C5.64551 12.8208 5.25488 12.3691 5.25488 11.771V7.48633H1.20215C0.604004 7.48633 0.152344 7.0957 0.152344 6.49756C0.152344 5.89941 0.604004 5.50879 1.20215 5.50879H5.25488V1.21191C5.25488 0.61377 5.64551 0.162109 6.24365 0.162109C6.8418 0.162109 7.23242 0.61377 7.23242 1.21191V5.50879H11.2729C11.8711 5.50879 12.3228 5.89941 12.3228 6.49756C12.3228 7.0957 11.8711 7.48633 11.2729 7.48633H7.23242V11.771C7.23242 12.3691 6.8418 12.8208 6.24365 12.8208Z" fill="#435090"/>
</svg>
