<svg width="26" height="25" viewBox="0 0 26 25" fill="none" xmlns="http://www.w3.org/2000/svg">
<g id="Layer_1" clip-path="url(#clip0_2031_2713)">
<g id="bc9RIy.tif">
<path id="Vector" d="M13.3553 0C13.8118 0.0650991 14.2708 0.115514 14.7239 0.195787C19.4651 1.05137 23.391 4.6421 24.3593 9.61264C24.7254 11.4912 24.6101 13.3502 24.0421 15.1788C23.8578 15.7711 23.3158 16.077 22.7532 15.9072C22.2038 15.7417 21.9222 15.1984 22.0987 14.6037C22.4736 13.3571 22.6153 12.0884 22.4707 10.7952C22.2673 8.97633 21.6143 7.33172 20.4818 5.89269C18.8331 3.79679 16.6692 2.55208 14.0454 2.16344C9.01092 1.41798 4.17193 4.5168 2.90108 9.4565C1.92351 13.2582 3.45781 17.404 6.69212 19.6731C8.63749 21.0383 10.7979 21.6682 13.1641 21.5287C15.5216 21.3902 17.5896 20.5189 19.3517 18.9345C19.7809 18.5488 20.3044 18.5053 20.7027 18.8288C20.8264 18.9296 20.9148 19.0735 21.0302 19.1861C21.865 20.0074 22.7017 20.8271 23.5401 21.6452C23.9879 22.0833 24.4498 22.5076 24.8789 22.9628C25.114 23.212 25.2944 23.512 25.4997 23.7891V24.2785C25.1086 25.2188 24.1658 25.163 23.5807 24.5507C22.4746 23.3931 21.302 22.2991 20.1562 21.1782C20.1 21.1234 20.0404 21.072 19.9905 21.027C19.9578 21.0417 19.9495 21.0436 19.9417 21.048C19.9021 21.0759 19.862 21.1038 19.8229 21.1322C17.1746 23.0617 14.217 23.8307 10.9758 23.4327C8.71179 23.1557 6.64519 22.3197 4.89925 20.839C1.23334 17.7241 -0.272611 13.754 0.880438 9.06003C2.09067 4.13893 5.43056 1.26331 10.3497 0.20215C10.8072 0.104256 11.2784 0.066078 11.7432 0H13.3553Z" fill="#293880"/>
</g>
</g>
<defs>
<clipPath id="clip0_2031_2713">
<rect width="25" height="25" fill="white" transform="translate(0.5)"/>
</clipPath>
</defs>
</svg>
