<svg width="56" height="50" viewBox="0 0 56 50" fill="none" xmlns="http://www.w3.org/2000/svg">
<g id="Layer_1" clip-path="url(#clip0_2031_2618)">
<g id="6D6cL4.tif">
<path id="Vector" d="M25.4581 39.5533V37.8732C25.6833 37.8621 25.8994 37.8431 26.1144 37.8431C28.8668 37.8431 31.618 37.8431 34.3704 37.8431C35.5468 37.8431 36.2762 37.1474 36.2458 36.1062C36.236 35.7233 36.0893 35.3563 35.8318 35.0704C35.5743 34.7846 35.2228 34.5986 34.8398 34.5454C34.6158 34.5173 34.3901 34.5051 34.1644 34.5086C32.1246 34.5086 30.0837 34.4941 28.0428 34.5086C27.1632 34.5248 26.2916 34.3405 25.4953 33.9701C23.7707 33.1685 22.0247 32.4093 20.2945 31.6289C19.3758 31.2075 18.3733 30.9957 17.3609 31.0091C15.8851 31.0213 14.4093 31.0091 12.8963 31.0091V29.2587C13.144 29.2587 13.3804 29.2587 13.6179 29.2587C15.2817 29.2855 16.9511 29.2587 18.6093 29.3702C19.3534 29.4193 20.111 29.6768 20.8067 29.9689C22.7137 30.7727 24.5835 31.659 26.4848 32.4773C26.9119 32.6596 27.3706 32.7584 27.8356 32.7683C29.8619 32.7995 31.8882 32.8653 33.8999 32.7605C36.4372 32.6301 38.038 34.192 38.0537 36.5008C38.432 36.3492 38.7899 36.2098 39.1434 36.0627C41.9656 34.8832 44.781 33.6892 47.6088 32.5264C50.9172 31.1663 54.2696 32.6724 55.4392 36.0014C55.563 36.3548 55.5068 36.512 55.1724 36.687C47.6722 40.6083 40.1749 44.5359 32.6807 48.4699C30.4518 49.636 28.1261 49.8077 25.7294 49.0451C22.5122 48.0251 19.305 46.9682 16.0697 46.0072C15.2885 45.7753 14.4127 45.8544 13.5796 45.7987C13.3613 45.7842 13.1406 45.7987 12.8918 45.7987V44.0183C14.1695 44.1298 15.4247 43.9068 16.6765 44.3226C19.8285 45.3661 22.9973 46.3427 26.1561 47.3573C28.2251 48.0206 30.194 47.8244 32.1133 46.8099C37.2233 44.1052 42.3393 41.4151 47.4613 38.7395L52.8073 35.9267C52.9705 35.8397 53.1326 35.7505 53.2925 35.6625C52.4651 34.0247 50.2981 33.299 48.4317 34.0638C45.6883 35.1864 42.9607 36.347 40.2275 37.4942C38.7832 38.0995 37.349 38.7283 35.8946 39.308C35.4798 39.4745 35.0375 39.5637 34.5899 39.5711C31.6507 39.5957 28.7114 39.5867 25.7722 39.5867C25.6833 39.5823 25.5932 39.5667 25.4581 39.5533Z" fill="#4D7ABD"/>
<path id="Vector_2" d="M28.8128 0.545718C29.3205 0.379605 29.5152 0.689534 29.6908 1.10983C30.4991 3.03964 31.3445 4.95942 32.1415 6.89034C32.2777 7.2248 32.4612 7.30395 32.7967 7.33629C34.9355 7.57709 37.062 7.86584 39.1986 8.09661C39.7074 8.15124 39.7423 8.49796 39.8875 8.82573C40.0327 9.1535 39.9618 9.35974 39.6928 9.58717C38.0988 10.9428 36.5284 12.3174 34.931 13.6608C34.5708 13.963 34.4188 14.2383 34.5235 14.73C34.949 16.7189 35.3115 18.7223 35.7291 20.7123C35.8226 21.1582 35.7291 21.4091 35.3543 21.6833C34.9794 21.9576 34.7374 21.9275 34.3727 21.7045C32.6053 20.6276 30.8109 19.5941 29.0514 18.506C28.6383 18.2507 28.3557 18.273 27.9527 18.506C26.1347 19.5328 24.2829 20.5005 22.475 21.544C21.9955 21.8205 21.7816 21.5362 21.454 21.3522C21.1039 21.1549 21.0949 20.9141 21.1782 20.5718C21.6791 18.4859 22.1497 16.3933 22.663 14.3108C22.7441 13.9763 22.663 13.8069 22.4379 13.5973C20.8619 12.148 19.3028 10.6742 17.7009 9.24937C17.3001 8.89373 17.4611 8.60945 17.55 8.23374C17.6435 7.8402 17.8641 7.77331 18.2255 7.74655C20.3879 7.58044 22.5504 7.40095 24.7084 7.18913C24.9223 7.16794 25.2015 6.94497 25.2994 6.74318C26.221 4.84347 27.1216 2.93336 28.0011 1.01284C28.1711 0.636021 28.3636 0.421969 28.8128 0.545718ZM28.7745 3.49896C28.0698 4.99844 27.3764 6.38866 26.7651 7.81344C26.4567 8.53141 26.0964 9.00522 25.2218 8.89485C24.8953 8.8536 24.5531 8.94836 24.2187 8.97846L20.3812 9.32295C21.5812 10.4244 22.6518 11.4824 23.809 12.4379C24.5193 13.0254 24.8705 13.5962 24.4473 14.4892C24.3234 14.7501 24.3066 15.0611 24.2401 15.3487C23.9643 16.5439 23.6874 17.7379 23.3902 19.0277C24.9415 18.1738 26.4094 17.4023 27.8368 16.5617C28.3794 16.2428 28.7813 16.2562 29.2946 16.5985C30.1456 17.1671 31.0451 17.6632 31.9242 18.1883C32.4612 18.5082 33.0004 18.8248 33.6286 19.1916C33.2717 17.3443 32.9531 15.6051 32.5884 13.8738C32.5197 13.5482 32.5884 13.3699 32.8304 13.1647C34.0822 12.1067 35.3183 11.0309 36.5655 9.96734C36.6725 9.87703 36.8233 9.83467 37.0417 9.72653C36.7749 9.60278 36.7288 9.56599 36.6781 9.56042C35.0289 9.36197 33.3798 9.15795 31.725 8.97623C31.3265 8.93164 31.0428 8.84691 30.8785 8.41881C30.5171 7.46895 30.0905 6.5414 29.6908 5.60715C29.4026 4.93155 29.1055 4.25818 28.7745 3.49896Z" fill="#4D7ABD"/>
<path id="Vector_3" d="M46.6013 22.0167C46.3311 20.6097 46.1071 19.341 45.8346 18.0757C45.7322 17.6007 45.8279 17.2741 46.2061 16.9608C47.208 16.1314 48.184 15.2718 49.2951 14.3175L44.5311 13.7601L42.7401 9.38427C42.1311 10.673 41.575 11.7979 41.0684 12.944C40.8196 13.5081 40.4605 13.7812 39.8301 13.7656C39.3854 13.7545 38.9397 13.8325 38.4297 13.8771C38.3723 13.3052 38.3171 12.7623 38.2642 12.2227C38.334 12.1825 38.3836 12.1279 38.4252 12.1335C39.3596 12.2606 39.7536 11.7411 40.0744 10.9529C40.5843 9.70311 41.2001 8.50019 41.799 7.28165C41.9892 6.89257 42.0646 6.42768 42.7266 6.42433C43.4324 6.42433 43.5371 6.8948 43.7307 7.33851C44.3656 8.79897 44.9994 10.2605 45.6129 11.7299C45.7435 12.041 45.9056 12.1848 46.259 12.2216C47.9307 12.3977 49.6013 12.6017 51.2696 12.808C51.6073 12.8492 51.9551 12.8269 52.0733 13.313C52.1915 13.7991 52.142 14.1837 51.7581 14.5126C51.1788 15.0106 50.5987 15.5085 50.0178 16.0065C49.3424 16.5884 48.6726 17.1871 47.9746 17.7457C47.6797 17.982 47.6369 18.2317 47.7022 18.5684C48.05 20.2909 48.3641 22.0245 48.739 23.7369C48.8651 24.3155 48.3495 24.3255 48.1255 24.592C47.924 24.8328 47.7213 24.738 47.4917 24.5987C45.9573 23.6756 44.4129 22.7703 42.8819 21.8427C42.6095 21.6777 42.4069 21.661 42.1209 21.8227C40.6091 22.6711 39.0815 23.495 37.5618 24.3277C37.295 24.4749 37.0451 24.7124 36.7265 24.3712C36.4406 24.0658 36.0241 23.942 36.2019 23.3143C36.6725 21.6421 37.0327 19.9386 37.4064 18.2418C37.4187 18.1318 37.4079 18.0205 37.3747 17.9148C37.3416 17.8091 37.2869 17.7113 37.214 17.6275C36.8222 17.2072 36.3798 16.8348 35.907 16.4011L37.1126 15.1369C37.8365 15.8058 38.5704 16.4335 39.2312 17.1291C39.3821 17.2875 39.3438 17.6866 39.2909 17.9597C39.0545 19.0813 38.7753 20.1894 38.5164 21.311C38.4849 21.4503 38.4759 21.5952 38.441 21.8528C39.6466 21.1928 40.7757 20.5963 41.8811 19.9575C42.3382 19.6933 42.7175 19.6966 43.1667 19.9742C44.2575 20.6465 45.372 21.2853 46.6013 22.0167Z" fill="#4D7ABD"/>
<path id="Vector_4" d="M14.8179 9.43555C14.2348 10.6775 13.6832 11.8303 13.1552 12.993C12.9301 13.4992 12.6036 13.7433 12.0059 13.7734C10.7417 13.827 9.48205 13.973 8.08842 14.0923C9.03064 14.9563 9.8434 15.7735 10.7305 16.4993C11.3789 17.0277 11.5657 17.5539 11.317 18.3678C10.9792 19.4748 10.7789 20.6242 10.4941 21.8717C11.3946 21.3834 12.2029 20.9486 13.0089 20.5027C14.9305 19.4391 14.3947 19.4726 16.2735 20.5707C17.0615 21.03 17.8382 21.5072 18.7005 22.02C18.4495 20.6922 18.2423 19.4414 17.9677 18.2061C17.8382 17.6253 17.9519 17.215 18.4348 16.856C18.9178 16.497 19.3444 16.0946 19.8397 15.6743L20.9407 16.9251C20.9136 16.9965 20.9114 17.0467 20.8866 17.06C19.8532 17.6576 19.6619 18.4603 20.0007 19.6008C20.3947 20.9252 20.5275 22.3232 20.8405 23.6733C20.9857 24.2999 20.4532 24.3422 20.1898 24.6165C19.9264 24.8908 19.7215 24.6622 19.5076 24.5351C17.9845 23.6299 16.4682 22.7134 14.9327 21.8305C14.8245 21.7814 14.7068 21.7561 14.5877 21.7561C14.4686 21.7561 14.351 21.7814 14.2427 21.8305C12.6768 22.6577 11.1121 23.4905 9.58336 24.3846C9.02839 24.7079 8.82238 24.2575 8.47454 24.0869C8.12669 23.9164 8.24039 23.651 8.30681 23.3768C8.71882 21.6499 9.13083 19.9207 9.51695 18.1916C9.52999 18.0915 9.52083 17.9897 9.49012 17.8935C9.4594 17.7972 9.40786 17.7087 9.33908 17.6342C7.99836 16.3967 6.6295 15.1882 5.29778 13.9418C5.17057 13.8225 5.20772 13.4958 5.21898 13.2729C5.24712 12.7322 5.51167 12.5181 6.10041 12.4869C7.74282 12.4011 9.38073 12.2182 11.0209 12.0967C11.452 12.0655 11.7188 11.9462 11.9091 11.5125C12.6081 9.91828 13.3725 8.35192 14.0828 6.76437C14.2787 6.32734 14.6457 6.50795 14.9463 6.4366C15.2468 6.36525 15.4641 6.47116 15.5969 6.78443C16.2723 8.36975 16.9849 9.93835 17.6288 11.5337C17.8292 12.0287 18.0904 12.2361 18.6138 12.2238C18.9234 12.216 19.2352 12.3052 19.5853 12.3565C19.5076 12.9373 19.4345 13.4802 19.3602 14.0444C18.5226 13.9663 17.7234 13.9239 16.9388 13.7946C16.7553 13.7634 16.5729 13.4602 16.475 13.2372C15.9752 12.1223 15.5035 10.9952 15.0217 9.87257C14.971 9.7622 14.9147 9.6418 14.8179 9.43555Z" fill="#4D7ABD"/>
<path id="Vector_5" d="M9.1995 28.8106H0.5V27.0681H1.1304C3.69477 27.0681 6.25914 27.0681 8.82351 27.0681C10.3601 27.0681 10.9939 27.7024 10.9939 29.232C10.9939 35.0515 10.9939 40.8707 10.9939 46.6895C10.9939 48.2424 10.3488 48.879 8.78073 48.879H0.5V47.1688H9.1995V28.8106Z" fill="#4D7ABD"/>
<path id="Vector_6" d="M4.50191 44.4375C4.51156 44.122 4.64489 43.8226 4.87364 43.6029C5.10238 43.3831 5.40855 43.2602 5.72724 43.2602C6.04594 43.2602 6.35211 43.3831 6.58085 43.6029C6.80959 43.8226 6.94292 44.122 6.95258 44.4375C6.94668 44.7546 6.81935 45.0577 6.59635 45.2854C6.37335 45.513 6.07135 45.6483 5.75145 45.6638C5.42226 45.6629 5.10663 45.5338 4.87281 45.3043C4.63899 45.0749 4.50575 44.7634 4.50191 44.4375Z" fill="#4D7ABD"/>
</g>
</g>
<defs>
<clipPath id="clip0_2031_2618">
<rect width="55" height="49" fill="white" transform="translate(0.5 0.5)"/>
</clipPath>
</defs>
</svg>
