<svg width="17" height="17" viewBox="0 0 17 17" fill="none" xmlns="http://www.w3.org/2000/svg">
<g id="Frame">
<path id="Vector" d="M1.9574 8.82595C5.45565 7.30184 7.78838 6.29704 8.95552 5.81157C12.288 4.42545 12.9805 4.18467 13.4318 4.17672C13.5311 4.17497 13.7531 4.19957 13.8968 4.31624C14.0182 4.41475 14.0517 4.54782 14.0676 4.64121C14.0837 4.73461 14.1035 4.94737 14.0877 5.11361C13.9071 7.0111 13.1257 11.6158 12.7282 13.741C12.56 14.6403 12.2288 14.9417 11.9081 14.9713C11.2113 15.0354 10.682 14.5107 10.0071 14.0683C8.95098 13.376 8.35432 12.945 7.32912 12.2694C6.14435 11.4887 6.91239 11.0595 7.58758 10.3583C7.76432 10.1747 10.8347 7.38199 10.8941 7.12865C10.9015 7.09696 10.9084 6.97885 10.8382 6.91649C10.7681 6.85412 10.6646 6.87545 10.5898 6.89241C10.4839 6.91645 8.79665 8.03161 5.52815 10.238C5.04924 10.5668 4.61546 10.7271 4.2268 10.7187C3.79834 10.7094 2.97415 10.4764 2.36145 10.2773C1.60995 10.0329 1.01267 9.90381 1.06468 9.48895C1.09177 9.27288 1.38934 9.05188 1.9574 8.82595Z" fill="#293881"/>
</g>
</svg>
