<svg width="12" height="12" viewBox="0 0 12 12" fill="none" xmlns="http://www.w3.org/2000/svg">
<g id="Frame 20">
<path id="Vector" d="M0.527616 11.5399L1.27712 8.78577C0.783254 7.93917 0.523788 6.97632 0.525398 5.99621C0.525398 2.93445 3.00729 0.45256 6.06904 0.45256C9.1308 0.45256 11.6127 2.93445 11.6127 5.99621C11.6127 9.05796 9.1308 11.5399 6.06904 11.5399C5.08936 11.5414 4.12691 11.2822 3.28059 10.7887L0.527616 11.5399ZM4.06834 3.39513C3.99675 3.39957 3.9268 3.41843 3.86267 3.45056C3.80254 3.48462 3.74764 3.52719 3.69969 3.57696C3.63317 3.6396 3.59547 3.69393 3.555 3.74659C3.35011 4.01324 3.23991 4.34055 3.24178 4.67682C3.24289 4.94846 3.31385 5.21289 3.42473 5.46014C3.65146 5.96017 4.02455 6.48959 4.51738 6.9802C4.63601 7.09828 4.75187 7.21692 4.87661 7.32724C5.48829 7.86578 6.2172 8.25416 7.00537 8.46147L7.3208 8.5097C7.42336 8.51524 7.52591 8.50748 7.62903 8.50249C7.79048 8.49415 7.94813 8.45044 8.09081 8.37443C8.18284 8.32565 8.22608 8.30125 8.30313 8.25247C8.30313 8.25247 8.32697 8.23695 8.37243 8.20258C8.44727 8.14714 8.49328 8.10778 8.55537 8.04292C8.60138 7.99525 8.6413 7.93925 8.67179 7.8755C8.71503 7.78514 8.75827 7.61273 8.77601 7.46915C8.78931 7.35939 8.78543 7.29952 8.78377 7.26238C8.78155 7.20306 8.73221 7.14152 8.67844 7.11547L8.3558 6.97078C8.3558 6.97078 7.8735 6.76068 7.57913 6.62652C7.5481 6.61299 7.51484 6.60529 7.48101 6.60379C7.44308 6.5999 7.40476 6.60416 7.36861 6.61631C7.33247 6.62845 7.29934 6.64819 7.27146 6.67419V6.67309C7.26869 6.67309 7.23155 6.70468 6.83074 7.19031C6.80774 7.22122 6.77605 7.24458 6.73972 7.25742C6.70338 7.27025 6.66405 7.27198 6.62673 7.26238C6.59061 7.25272 6.55523 7.24049 6.52085 7.22579C6.45211 7.19696 6.42827 7.18587 6.38115 7.16536L6.37838 7.16425C6.06123 7.02579 5.76759 6.83876 5.50803 6.60989C5.43818 6.54891 5.37332 6.48238 5.30679 6.41808C5.08869 6.20921 4.89862 5.97293 4.74134 5.71514L4.70863 5.66248C4.68514 5.62709 4.66615 5.58892 4.65209 5.54883C4.63102 5.46734 4.6859 5.40193 4.6859 5.40193C4.6859 5.40193 4.82062 5.25447 4.88326 5.17464C4.93542 5.10829 4.98408 5.03927 5.02906 4.96786C5.09447 4.86253 5.11498 4.75443 5.08061 4.67072C4.92539 4.29154 4.76462 3.91401 4.59942 3.53926C4.56672 3.46498 4.4697 3.41176 4.38156 3.40123C4.35162 3.3979 4.32169 3.39457 4.29175 3.39236C4.2173 3.38866 4.1427 3.38995 4.06834 3.39513Z" fill="#293881"/>
</g>
</svg>
