<svg width="27" height="28" viewBox="0 0 27 28" fill="none" xmlns="http://www.w3.org/2000/svg">
<g id="Frame">
<path id="Vector" d="M7.90023 21.1027L8.68966 21.563C10.0085 22.332 11.5073 22.7427 13.0714 22.7427C17.8841 22.7427 21.7855 18.8412 21.7855 14.0285C21.7855 9.21582 17.8841 5.31437 13.0714 5.31437C8.2587 5.31437 4.35725 9.21582 4.35725 14.0285C4.35725 15.593 4.76815 17.0924 5.53766 18.4115L5.99775 19.2001L5.28592 21.8161L7.90023 21.1027ZM2.18326 24.9212L3.65591 19.5092C2.71677 17.8993 2.17871 16.0268 2.17871 14.0285C2.17871 8.01265 7.05553 3.13583 13.0714 3.13583C19.0872 3.13583 23.9641 8.01265 23.9641 14.0285C23.9641 20.0443 19.0872 24.9212 13.0714 24.9212C11.0738 24.9212 9.2018 24.3835 7.59224 23.4449L2.18326 24.9212ZM9.14059 8.91803C9.28642 8.90778 9.43274 8.90621 9.57877 8.91333C9.63776 8.91721 9.69648 8.92403 9.75523 8.93081C9.92871 8.95085 10.1195 9.05649 10.1836 9.2019C10.5086 9.9387 10.8239 10.6797 11.1295 11.4248C11.1969 11.5892 11.1563 11.8024 11.0279 12.0087C10.9628 12.1145 10.8605 12.2628 10.742 12.4145C10.6188 12.5722 10.3537 12.862 10.3537 12.862C10.3537 12.862 10.2463 12.9908 10.2867 13.151C10.3025 13.2116 10.3528 13.2998 10.3984 13.374C10.4237 13.415 10.4471 13.4517 10.4624 13.4771C10.7411 13.9426 11.1158 14.4144 11.5736 14.8581C11.7047 14.9852 11.8319 15.1149 11.9687 15.2354C12.4788 15.6852 13.0559 16.0527 13.6792 16.3249L13.6848 16.3274C13.7768 16.3671 13.8241 16.3887 13.9588 16.4459C14.0268 16.4747 14.0963 16.4995 14.1676 16.5184C14.1935 16.5251 14.2199 16.5289 14.2465 16.5308C14.4226 16.5413 14.5245 16.4284 14.568 16.3764C15.356 15.4217 15.4281 15.3594 15.4336 15.3598V15.3616C15.5372 15.2524 15.7 15.2145 15.8453 15.2234C15.9117 15.2275 15.9777 15.2402 16.038 15.2678C16.6173 15.532 17.5644 15.9442 17.5644 15.9442L18.1978 16.2289C18.3039 16.2801 18.4008 16.4007 18.4054 16.5179C18.4083 16.5908 18.4161 16.7084 18.3901 16.9237C18.356 17.2055 18.2703 17.5448 18.1851 17.7225C18.1252 17.8473 18.0476 17.9579 17.9574 18.0516C17.8351 18.1786 17.7443 18.2557 17.5972 18.3653C17.5077 18.432 17.4613 18.4634 17.4613 18.4634C17.31 18.5588 17.2247 18.6065 17.0444 18.7024C16.764 18.8518 16.4542 18.9376 16.1369 18.954C15.9347 18.9643 15.7329 18.9789 15.5309 18.968C15.5219 18.9675 14.9119 18.8738 14.9119 18.8738C13.3631 18.4664 11.9307 17.7033 10.7288 16.6449C10.483 16.4286 10.2551 16.1945 10.0225 15.9629C9.05406 14.9988 8.32092 13.9592 7.87635 12.9758C7.65713 12.4909 7.51831 11.9715 7.51612 11.4371C7.5121 10.776 7.72854 10.1324 8.13124 9.60811C8.21063 9.50475 8.28597 9.39754 8.41598 9.27479C8.55365 9.14479 8.64127 9.075 8.73565 9.02671C8.86146 8.96235 8.99965 8.92793 9.14059 8.91803Z" fill="white"/>
</g>
</svg>
