<svg width="212" height="208" viewBox="0 0 212 208" fill="none" xmlns="http://www.w3.org/2000/svg">
<g opacity="0.4">
<path d="M86.8502 92.3107C88.7238 88.9672 91.3101 86.3364 94.6091 84.4182C97.908 82.5 101.566 81.5409 105.578 81.5409C109.589 81.5409 113.114 82.5 116.413 84.4182C119.712 86.3364 122.298 88.9672 124.172 92.3107C125.659 94.9683 126.532 97.8782 126.838 101.017H141.088C140.732 95.3098 139.131 90.1342 136.281 85.4872C133.023 80.181 128.676 76.0358 123.236 73.0457C117.797 70.0585 111.908 68.5649 105.578 68.5649C99.2472 68.5649 93.359 70.0585 87.9192 73.0457C82.4793 76.0358 78.1293 80.181 74.8749 85.4872C72.0243 90.1342 70.4238 95.3098 70.0675 101.017H84.1837C84.4896 97.8782 85.3596 94.9683 86.8502 92.3107Z" fill="#D8D8D8"/>
<path d="M126.862 105.631H126.847V105.78C126.565 109.004 125.701 111.994 124.175 114.717C122.301 118.061 119.715 120.695 116.416 122.61C113.114 124.528 109.503 125.487 105.581 125.487C101.658 125.487 97.908 124.531 94.6121 122.61C91.3102 120.692 88.7268 118.061 86.8532 114.717C85.3062 111.953 84.4332 108.912 84.1659 105.631H70.0616C70.3674 111.487 71.9679 116.793 74.8808 121.541C78.1352 126.847 82.4823 130.995 87.9251 133.982C93.3649 136.973 99.2502 138.463 105.584 138.463C111.917 138.463 117.803 136.97 123.242 133.982C124.504 133.288 125.707 132.53 126.85 131.711V138.243H141.103V105.631H126.865H126.862Z" fill="#D8D8D8"/>
</g>
</svg>
