<svg width="194" height="39" viewBox="0 0 194 39" fill="none" xmlns="http://www.w3.org/2000/svg">
<g id="Group 1">
<path id="Vector" d="M122.706 16.9301C121.391 14.7867 119.634 13.1111 117.437 11.9032C115.238 10.6971 112.86 10.0914 110.303 10.0914C107.745 10.0914 105.366 10.6953 103.168 11.9032C100.969 13.1111 99.2132 14.7867 97.8996 16.9301C96.5842 19.0735 95.9265 21.4982 95.9265 24.2007C95.9265 24.2849 95.9318 24.3656 95.9336 24.448H95.9211V38.3423H101.625V24.448H101.616C101.613 24.3656 101.602 24.2849 101.602 24.2007C101.602 22.543 101.98 21.0376 102.736 19.6864C103.493 18.3351 104.538 17.2724 105.871 16.4982C107.204 15.724 108.683 15.3369 110.303 15.3369C111.923 15.3369 113.348 15.724 114.681 16.4982C116.014 17.2742 117.059 18.3351 117.817 19.6864C118.573 21.0376 118.952 22.543 118.952 24.2007C118.952 24.2885 118.952 24.3727 118.95 24.4588V38.3423H124.676V24.4588C124.676 24.3727 124.683 24.2885 124.683 24.2007C124.683 21.4982 124.025 19.0752 122.71 16.9301H122.706Z" fill="#202054"/>
<path id="Vector_2" d="M157.559 31.9194C156.226 31.1452 155.181 30.0824 154.425 28.7312C153.672 27.3871 153.296 25.8925 153.29 24.2455H153.283V23.2473H153.285V13.7366H161.901V8.03226H153.285V0H147.581V8.03226H136.423V0H130.719V8.03226H124.686V13.7366H130.719V23.2473H130.726C130.706 23.5663 130.697 23.8907 130.697 24.2168C130.697 26.9194 131.355 29.3441 132.67 31.4875C133.986 33.6308 135.742 35.3064 137.941 36.5143C140.131 37.7186 142.5 38.319 145.047 38.3244V33.0806C143.473 33.0753 142.022 32.69 140.697 31.9211C139.364 31.147 138.319 30.0842 137.563 28.733C136.81 27.3889 136.434 25.8943 136.428 24.2473H136.421V23.2491H136.423V13.7384H147.581V23.2491H147.588C147.568 23.5681 147.559 23.8925 147.559 24.2186C147.559 26.9212 148.217 29.3459 149.532 31.4892C150.848 33.6326 152.604 35.3082 154.803 36.5161C156.993 37.7204 159.362 38.3208 161.909 38.3262V33.0824C160.335 33.0771 158.884 32.6918 157.559 31.9229V31.9194Z" fill="#202054"/>
<path id="Vector_3" d="M92.2849 27.4516C92.5161 26.4158 92.6398 25.3333 92.6398 24.1989C92.6398 21.4964 91.982 19.0735 90.6666 16.9283C89.3512 14.7849 87.5932 13.1093 85.396 11.9014C83.1971 10.6953 80.819 10.0896 78.2616 10.0896C75.7043 10.0896 73.3243 10.6935 71.1272 11.9014C68.9283 13.1093 67.172 14.7849 65.8566 16.9283C64.5412 19.0735 63.8835 21.4964 63.8835 24.1989C63.8835 26.9014 64.5412 29.3262 65.8566 31.4695C67.172 33.6129 68.9283 35.2885 71.1272 36.4964C73.3243 37.7043 75.7025 38.3082 78.2616 38.3082C80.8208 38.3082 83.1989 37.7061 85.396 36.4964C87.5932 35.2903 89.3494 33.6147 90.6666 31.4695C90.6738 31.457 90.681 31.4426 90.6881 31.4301L84.8459 30.0287C84.2258 30.7688 83.4982 31.4014 82.638 31.9014C81.3046 32.6774 79.8459 33.0627 78.2598 33.0627C76.6738 33.0627 75.1595 32.6756 73.8279 31.9014C72.4946 31.1272 71.4498 30.0645 70.6935 28.7133C70.4659 28.3047 70.276 27.8817 70.1165 27.4462H86.3441C86.3441 27.4462 86.3441 27.4498 86.3423 27.4534H92.2849V27.4516ZM73.8297 16.4964C75.1631 15.7222 76.6398 15.3351 78.2616 15.3351C79.8835 15.3351 81.3064 15.7222 82.6398 16.4964C83.9731 17.2724 85.0179 18.3333 85.7742 19.6846C86.2652 20.5609 86.5932 21.5036 86.767 22.509H69.7025C69.8745 21.5036 70.2043 20.5609 70.6953 19.6846C71.4516 18.3333 72.4964 17.2706 73.8297 16.4964Z" fill="#202054"/>
<path id="Vector_4" d="M6.78315 19.7724C7.53943 18.4212 8.58423 17.3584 9.91756 16.5842C11.2509 15.81 12.7276 15.4229 14.3495 15.4229C15.9713 15.4229 17.3943 15.81 18.7276 16.5842C20.0609 17.3602 21.1057 18.4212 21.862 19.7724C22.4642 20.8459 22.8154 22.0215 22.9391 23.2903H28.6953C28.552 20.9857 27.905 18.8943 26.7527 17.0161C25.4373 14.8728 23.681 13.1971 21.4821 11.9893C19.2832 10.7832 16.905 10.1774 14.3477 10.1774C11.7903 10.1774 9.41039 10.7814 7.21326 11.9893C5.01434 13.1971 3.25806 14.8728 1.94265 17.0161C0.790322 18.8943 0.143369 20.9857 0 23.2903H5.70251C5.82617 22.0233 6.17742 20.8477 6.77957 19.7724H6.78315Z" fill="#202054"/>
<path id="Vector_5" d="M22.9498 25.129H22.9427V25.19C22.828 26.4928 22.4785 27.7007 21.8638 28.8011C21.1075 30.1523 20.0609 31.2151 18.7294 31.9892C17.3961 32.7652 15.9373 33.1505 14.3513 33.1505C12.7652 33.1505 11.2509 32.7634 9.91936 31.9892C8.58602 31.2151 7.54122 30.1523 6.78495 28.8011C6.1595 27.6846 5.80824 26.4552 5.69893 25.129H0C0.123656 27.4946 0.770609 29.6398 1.94624 31.5573C3.26165 33.7007 5.01792 35.3763 7.21685 36.5842C9.41398 37.7921 11.7921 38.3961 14.3513 38.3961C16.9104 38.3961 19.2885 37.7939 21.4857 36.5842C21.9964 36.3047 22.4803 35.9982 22.9427 35.6667V38.3064H28.7025V25.129H22.9498Z" fill="#202054"/>
<path id="Vector_6" d="M60.6613 24.2616C60.6613 23.9874 60.6523 23.7168 60.6398 23.448V0.0178833H54.9355V12.9229C54.4552 12.5752 53.9498 12.2562 53.4193 11.9641C51.2204 10.758 48.8423 10.1523 46.2849 10.1523C43.7276 10.1523 41.3477 10.7562 39.1505 11.9641C36.9516 13.172 35.1953 14.8476 33.8799 16.991C32.5645 19.1344 31.9068 21.5591 31.9068 24.2616C31.9068 26.9641 32.5645 29.3889 33.8799 31.5322C35.1953 33.6774 36.9516 35.3512 39.1505 36.5591C41.3477 37.767 43.7258 38.3709 46.2849 38.3709C48.8441 38.3709 51.2222 37.7688 53.4193 36.5591C53.9516 36.267 54.457 35.9462 54.9355 35.6003V38.3476H60.6398V25.0752C60.6541 24.8064 60.6613 24.5358 60.6613 24.2616ZM53.7957 28.7759C53.0394 30.1272 51.9928 31.1899 50.6613 31.9641C49.3279 32.7401 47.8692 33.1254 46.2831 33.1254C44.6971 33.1254 43.1828 32.7383 41.8512 31.9641C40.5179 31.1899 39.4731 30.1272 38.7168 28.7759C37.9606 27.4247 37.5824 25.9193 37.5824 24.2616C37.5824 22.6039 37.9606 21.0985 38.7168 19.7473C39.4731 18.396 40.5179 17.3333 41.8512 16.5591C43.1846 15.7849 44.6613 15.3978 46.2831 15.3978C47.905 15.3978 49.3279 15.7849 50.6613 16.5591C51.9946 17.3351 53.0394 18.396 53.7957 19.7473C54.552 21.0985 54.9301 22.6039 54.9301 24.2616C54.9301 25.9193 54.552 27.4247 53.7957 28.7759Z" fill="#202054"/>
<path id="Vector_7" d="M172.052 19.7617C172.808 18.4104 173.853 17.3477 175.186 16.5735C176.52 15.7993 177.996 15.4122 179.618 15.4122C181.24 15.4122 182.663 15.7993 183.996 16.5735C185.33 17.3495 186.375 18.4104 187.131 19.7617C187.733 20.8351 188.084 22.0108 188.208 23.2796H193.964C193.821 20.9749 193.174 18.8835 192.022 17.0054C190.706 14.862 188.95 13.1864 186.751 11.9785C184.552 10.7724 182.174 10.1667 179.617 10.1667C177.059 10.1667 174.679 10.7706 172.482 11.9785C170.283 13.1864 168.527 14.862 167.212 17.0054C166.059 18.8835 165.412 20.9749 165.269 23.2796H170.971C171.095 22.0126 171.446 20.8369 172.048 19.7617H172.052Z" fill="#202054"/>
<path id="Vector_8" d="M188.219 25.1434H188.212V25.2044C188.097 26.5072 187.747 27.7151 187.133 28.8155C186.376 30.1667 185.33 31.2295 183.998 32.0036C182.665 32.7796 181.206 33.1649 179.62 33.1649C178.034 33.1649 176.52 32.7778 175.188 32.0036C173.855 31.2295 172.81 30.1667 172.054 28.8155C171.428 27.699 171.075 26.4696 170.968 25.1434H165.269C165.393 27.509 166.039 29.6542 167.215 31.5717C168.531 33.7151 170.287 35.3907 172.486 36.5986C174.683 37.8065 177.061 38.4105 179.62 38.4105C182.179 38.4105 184.557 37.8083 186.755 36.5986C187.265 36.3191 187.749 36.0126 188.213 35.6811V38.3209H193.973V25.1434H188.22H188.219Z" fill="#202054"/>
<path id="Vector_9" d="M22.9534 25.1057C22.8458 26.4319 22.4928 27.6595 21.8673 28.7778C21.1111 30.129 20.0645 31.1917 18.7329 31.9659C17.3996 32.7419 15.9408 33.1272 14.3548 33.1272C12.7688 33.1272 11.2544 32.7401 9.9229 31.9659C8.58956 31.1917 7.54476 30.129 6.78849 28.7778C6.16304 27.6613 5.81178 26.4319 5.70247 25.1057H0.00354004C0.127196 27.4713 0.774149 29.6165 1.94978 31.534C3.26519 33.6774 5.02146 35.353 7.22039 36.5609C9.41752 37.7688 11.7957 38.3727 14.3548 38.3727C16.9139 38.3727 19.2921 37.7706 21.4892 36.5609C23.6863 35.3548 25.4426 33.6792 26.7598 31.534C27.9372 29.6165 28.5824 27.4713 28.7078 25.1057H22.9552H22.9534Z" fill="#9FB3DC"/>
<path id="Vector_10" d="M188.246 25.1398C188.138 26.466 187.785 27.6936 187.16 28.8119C186.403 30.1631 185.357 31.2259 184.025 32C182.692 32.776 181.233 33.1613 179.647 33.1613C178.061 33.1613 176.547 32.7742 175.215 32C173.882 31.2259 172.837 30.1631 172.081 28.8119C171.455 27.6954 171.104 26.466 170.995 25.1398H165.296C165.419 27.5054 166.066 29.6506 167.242 31.5681C168.557 33.7115 170.314 35.3871 172.513 36.595C174.71 37.8029 177.088 38.4069 179.647 38.4069C182.206 38.4069 184.584 37.8047 186.781 36.595C188.979 35.3889 190.735 33.7133 192.052 31.5681C193.229 29.6506 193.875 27.5054 194 25.1398H188.247H188.246Z" fill="#9FB3DC"/>
</g>
</svg>
