<svg width="48" height="47" viewBox="0 0 48 47" fill="none" xmlns="http://www.w3.org/2000/svg">
<path d="M11.1216 15.7319C12.3616 13.5164 14.0747 11.774 16.2608 10.5046C18.4469 9.23522 20.8681 8.60054 23.5273 8.60054C26.1865 8.60054 28.5196 9.23522 30.7057 10.5046C32.8919 11.7769 34.6049 13.5164 35.8449 15.7319C36.8322 17.492 37.4081 19.4195 37.6108 21.4999H47.0488C46.8137 17.7212 45.753 14.2921 43.8636 11.2127C41.7069 7.69847 38.8273 4.95111 35.222 2.97066C31.6166 0.993157 27.7174 0 23.5244 0C19.3314 0 15.4293 0.990219 11.8268 2.97066C8.22149 4.95111 5.34191 7.69847 3.18517 11.2127C1.29581 14.2921 0.235068 17.7212 0 21.4999H9.34982C9.55256 19.4225 10.1285 17.4949 11.1158 15.7319H11.1216Z" fill="#202054"/>
<path d="M37.6285 24.5146H37.6167V24.6145C37.4287 26.7507 36.8557 28.7311 35.8478 30.5353C34.6078 32.7508 32.8918 34.4932 30.7087 35.7626C28.5225 37.0349 26.1307 37.6666 23.5303 37.6666C20.9298 37.6666 18.4469 37.0319 16.2637 35.7626C14.0776 34.4932 12.3646 32.7508 11.1246 30.5353C10.0991 28.7047 9.52318 26.689 9.34394 24.5146H0C0.202746 28.3932 1.26349 31.9104 3.19104 35.0544C5.34779 38.5687 8.22737 41.3161 11.8327 43.2965C15.4351 45.277 19.3343 46.2672 23.5303 46.2672C27.7262 46.2672 31.6254 45.2799 35.2278 43.2965C36.0653 42.8381 36.8586 42.3357 37.6167 41.7921V46.1203H47.0606V24.5146H37.6285Z" fill="#202054"/>
<path d="M37.6338 24.4764C37.4575 26.6508 36.8787 28.6635 35.8532 30.4971C34.6132 32.7126 32.8972 34.455 30.714 35.7244C28.5279 36.9967 26.1361 37.6284 23.5357 37.6284C20.9352 37.6284 18.4523 36.9937 16.2691 35.7244C14.083 34.455 12.3699 32.7126 11.13 30.4971C10.1045 28.6665 9.52855 26.6508 9.34931 24.4764H0.00537109C0.208117 28.355 1.26886 31.8722 3.19641 35.0162C5.35316 38.5305 8.23274 41.2779 11.8381 43.2583C15.4405 45.2387 19.3397 46.229 23.5357 46.229C27.7316 46.229 31.6308 45.2417 35.2332 43.2583C38.8356 41.2808 41.7152 38.5334 43.8749 35.0162C45.8054 31.8722 46.8632 28.355 47.0689 24.4764H37.6368H37.6338Z" fill="#9FB3DC"/>
</svg>
